<svg xmlns="http://www.w3.org/2000/svg" xmlns:xlink="http://www.w3.org/1999/xlink" xmlns:inkscape="http://www.inkscape.org/namespaces/inkscape" version="1.1" width="255.516" height="255.516" viewBox="0 0 255.516 255.516">
<path transform="matrix(1,0,0,-1,42.52,42.519014)" d="M-14.17339-14.17339H14.1734V14.1734H-14.17339Z" fill="#afafff"/>
<text xml:space="preserve" transform="matrix(1 0 -0 1 0 255.51602)" font-size="9.9626" font-family="CMR10"><tspan y="-209.787" x="40.029">0</tspan></text>
<path transform="matrix(1,0,0,-1,42.52,42.519014)" d="M14.1734-14.17339H42.52019V14.1734H14.1734Z" fill="#afafff"/>
<text xml:space="preserve" transform="matrix(1 0 -0 1 0 255.51602)" font-size="9.9626" font-family="CMR10"><tspan y="-209.787" x="68.375">1</tspan></text>
<path transform="matrix(1,0,0,-1,42.52,42.519014)" d="M42.52022-14.17339H70.86701V14.1734H42.52022Z" fill="#afafff"/>
<text xml:space="preserve" transform="matrix(1 0 -0 1 0 255.51602)" font-size="9.9626" font-family="CMR10"><tspan y="-209.787" x="96.722">2</tspan></text>
<path transform="matrix(1,0,0,-1,42.52,42.519014)" d="M70.86702-14.17339H99.213809V14.1734H70.86702Z" fill="#afafff"/>
<text xml:space="preserve" transform="matrix(1 0 -0 1 -.0000076293949 255.51602)" font-size="9.9626" font-family="CMR10"><tspan y="-209.787" x="125.068">3</tspan></text>
<path transform="matrix(1,0,0,-1,42.52,42.519014)" d="M99.21384-14.17339H127.56062V14.1734H99.21384Z" fill="#afafff"/>
<text xml:space="preserve" transform="matrix(1 0 -0 1 0 255.51602)" font-size="9.9626" font-family="CMR10"><tspan y="-209.787" x="153.415">4</tspan></text>
<path transform="matrix(1,0,0,-1,42.52,42.519014)" d="M127.56064-14.17339H155.90743V14.1734H127.56064Z" fill="#afafff"/>
<text xml:space="preserve" transform="matrix(1 0 -0 1 0 255.51602)" font-size="9.9626" font-family="CMR10"><tspan y="-209.787" x="181.761">5</tspan></text>
<path transform="matrix(1,0,0,-1,42.52,42.519014)" d="M155.90746-14.17339H184.25424V14.1734H155.90746Z" fill="#afafff"/>
<text xml:space="preserve" transform="matrix(1 0 -0 1 0 255.51602)" font-size="9.9626" font-family="CMR10"><tspan y="-209.787" x="210.108">6</tspan></text>
<path transform="matrix(1,0,0,-1,42.52,42.519014)" d="M184.25426-14.17339H212.60105V14.1734H184.25426Z" fill="#afafff"/>
<text xml:space="preserve" transform="matrix(1 0 -0 1 .000015258789 255.51602)" font-size="9.9626" font-family="CMR10"><tspan y="-209.787" x="238.454">7</tspan></text>
<path transform="matrix(1,0,0,-1,42.52,42.519014)" d="M-14.17339-42.5202H14.1734V-14.1734089H-14.17339Z" fill="#afffaf"/>
<text xml:space="preserve" transform="matrix(1 0 -0 1 0 255.51602)" font-size="9.9626" font-family="CMR10"><tspan y="-181.44" x="40.029">8</tspan></text>
<path transform="matrix(1,0,0,-1,42.52,42.519014)" d="M14.1734-42.5202H42.52019V-14.1734089H14.1734Z" fill="#afffaf"/>
<text xml:space="preserve" transform="matrix(1 0 -0 1 0 255.51602)" font-size="9.9626" font-family="CMR10"><tspan y="-181.44" x="68.375">9</tspan></text>
<path transform="matrix(1,0,0,-1,42.52,42.519014)" d="M42.52022-42.5202H70.86701V-14.1734089H42.52022Z" fill="#afffaf"/>
<text xml:space="preserve" transform="matrix(1 0 -0 1 0 255.51602)" font-size="9.9626" font-family="CMR10"><tspan y="-181.44" x="94.231 99.2123">10</tspan></text>
<path transform="matrix(1,0,0,-1,42.52,42.519014)" d="M70.86702-42.5202H99.213809V-14.1734089H70.86702Z" fill="#afffaf"/>
<text xml:space="preserve" transform="matrix(1 0 -0 1 0 255.51602)" font-size="9.9626" font-family="CMR10"><tspan y="-181.44" x="122.578 127.5593">11</tspan></text>
<path transform="matrix(1,0,0,-1,42.52,42.519014)" d="M99.21384-42.5202H127.56062V-14.1734089H99.21384Z" fill="#afffaf"/>
<text xml:space="preserve" transform="matrix(1 0 -0 1 0 255.51602)" font-size="9.9626" font-family="CMR10"><tspan y="-181.44" x="150.924 155.90529">12</tspan></text>
<path transform="matrix(1,0,0,-1,42.52,42.519014)" d="M127.56064-42.5202H155.90743V-14.1734089H127.56064Z" fill="#afffaf"/>
<text xml:space="preserve" transform="matrix(1 0 -0 1 .000015258789 255.51602)" font-size="9.9626" font-family="CMR10"><tspan y="-181.44" x="179.271 184.25229">13</tspan></text>
<path transform="matrix(1,0,0,-1,42.52,42.519014)" d="M155.90746-42.5202H184.25424V-14.1734089H155.90746Z" fill="#afffaf"/>
<text xml:space="preserve" transform="matrix(1 0 -0 1 0 255.51602)" font-size="9.9626" font-family="CMR10"><tspan y="-181.44" x="207.617 212.5983">14</tspan></text>
<path transform="matrix(1,0,0,-1,42.52,42.519014)" d="M184.25426-42.5202H212.60105V-14.1734089H184.25426Z" fill="#afffaf"/>
<text xml:space="preserve" transform="matrix(1 0 -0 1 0 255.51602)" font-size="9.9626" font-family="CMR10"><tspan y="-181.44" x="235.963 240.94429">15</tspan></text>
<path transform="matrix(1,0,0,-1,42.52,42.519014)" d="M-14.17339-70.867H14.1734V-42.520208H-14.17339Z" fill="#ffffaf"/>
<text xml:space="preserve" transform="matrix(1 0 -0 1 .0000038146974 255.516)" font-size="9.9626" font-family="CMR10"><tspan y="-153.094" x="37.538 42.5193">16</tspan></text>
<path transform="matrix(1,0,0,-1,42.52,42.519014)" d="M14.1734-70.867H42.52019V-42.520208H14.1734Z" fill="#ffffaf"/>
<text xml:space="preserve" transform="matrix(1 0 -0 1 0 255.516)" font-size="9.9626" font-family="CMR10"><tspan y="-153.094" x="65.885 70.8663">17</tspan></text>
<path transform="matrix(1,0,0,-1,42.52,42.519014)" d="M42.52022-70.867H70.86701V-42.520208H42.52022Z" fill="#ffffaf"/>
<text xml:space="preserve" transform="matrix(1 0 -0 1 0 255.516)" font-size="9.9626" font-family="CMR10"><tspan y="-153.094" x="94.231 99.2123">18</tspan></text>
<path transform="matrix(1,0,0,-1,42.52,42.519014)" d="M70.86702-70.867H99.213809V-42.520208H70.86702Z" fill="#ffffaf"/>
<text xml:space="preserve" transform="matrix(1 0 -0 1 0 255.516)" font-size="9.9626" font-family="CMR10"><tspan y="-153.094" x="122.578 127.5593">19</tspan></text>
<path transform="matrix(1,0,0,-1,42.52,42.519014)" d="M99.21384-70.867H127.56062V-42.520208H99.21384Z" fill="#ffffaf"/>
<text xml:space="preserve" transform="matrix(1 0 -0 1 0 255.516)" font-size="9.9626" font-family="CMR10"><tspan y="-153.094" x="150.924 155.90529">20</tspan></text>
<path transform="matrix(1,0,0,-1,42.52,42.519014)" d="M127.56064-70.867H155.90743V-42.520208H127.56064Z" fill="#ffffaf"/>
<text xml:space="preserve" transform="matrix(1 0 -0 1 .000015258789 255.516)" font-size="9.9626" font-family="CMR10"><tspan y="-153.094" x="179.271 184.25229">21</tspan></text>
<path transform="matrix(1,0,0,-1,42.52,42.519014)" d="M155.90746-70.867H184.25424V-42.520208H155.90746Z" fill="#ffffaf"/>
<text xml:space="preserve" transform="matrix(1 0 -0 1 0 255.516)" font-size="9.9626" font-family="CMR10"><tspan y="-153.094" x="207.617 212.5983">22</tspan></text>
<path transform="matrix(1,0,0,-1,42.52,42.519014)" d="M184.25426-70.867H212.60105V-42.520208H184.25426Z" fill="#ffffaf"/>
<text xml:space="preserve" transform="matrix(1 0 -0 1 0 255.516)" font-size="9.9626" font-family="CMR10"><tspan y="-153.094" x="235.963 240.94429">23</tspan></text>
<path transform="matrix(1,0,0,-1,42.52,42.519014)" d="M-14.17339-99.21382H14.1734V-70.867038H-14.17339Z" fill="#ffafaf"/>
<text xml:space="preserve" transform="matrix(1 0 -0 1 .0000038146974 255.51602)" font-size="9.9626" font-family="CMR10"><tspan y="-124.747" x="37.538 42.5193">24</tspan></text>
<path transform="matrix(1,0,0,-1,42.52,42.519014)" d="M14.1734-99.21382H42.52019V-70.867038H14.1734Z" fill="#ffafaf"/>
<text xml:space="preserve" transform="matrix(1 0 -0 1 0 255.51602)" font-size="9.9626" font-family="CMR10"><tspan y="-124.747" x="65.885 70.8663">25</tspan></text>
<path transform="matrix(1,0,0,-1,42.52,42.519014)" d="M42.52022-99.21382H70.86701V-70.867038H42.52022Z" fill="#ffafaf"/>
<text xml:space="preserve" transform="matrix(1 0 -0 1 0 255.51602)" font-size="9.9626" font-family="CMR10"><tspan y="-124.747" x="94.231 99.2123">26</tspan></text>
<path transform="matrix(1,0,0,-1,42.52,42.519014)" d="M70.86702-99.21382H99.213809V-70.867038H70.86702Z" fill="#ffafaf"/>
<text xml:space="preserve" transform="matrix(1 0 -0 1 0 255.51602)" font-size="9.9626" font-family="CMR10"><tspan y="-124.747" x="122.578 127.5593">27</tspan></text>
<path transform="matrix(1,0,0,-1,42.52,42.519014)" d="M99.21384-99.21382H127.56062V-70.867038H99.21384Z" fill="#ffafaf"/>
<text xml:space="preserve" transform="matrix(1 0 -0 1 0 255.51602)" font-size="9.9626" font-family="CMR10"><tspan y="-124.747" x="150.924 155.90529">28</tspan></text>
<path transform="matrix(1,0,0,-1,42.52,42.519014)" d="M127.56064-99.21382H155.90743V-70.867038H127.56064Z" fill="#ffafaf"/>
<text xml:space="preserve" transform="matrix(1 0 -0 1 .000015258789 255.51602)" font-size="9.9626" font-family="CMR10"><tspan y="-124.747" x="179.271 184.25229">29</tspan></text>
<path transform="matrix(1,0,0,-1,42.52,42.519014)" d="M155.90746-99.21382H184.25424V-70.867038H155.90746Z" fill="#ffafaf"/>
<text xml:space="preserve" transform="matrix(1 0 -0 1 0 255.51602)" font-size="9.9626" font-family="CMR10"><tspan y="-124.747" x="207.617 212.5983">30</tspan></text>
<path transform="matrix(1,0,0,-1,42.52,42.519014)" d="M184.25426-99.21382H212.60105V-70.867038H184.25426Z" fill="#ffafaf"/>
<text xml:space="preserve" transform="matrix(1 0 -0 1 0 255.51602)" font-size="9.9626" font-family="CMR10"><tspan y="-124.747" x="235.963 240.94429">31</tspan></text>
<path transform="matrix(1,0,0,-1,42.52,42.519014)" d="M-14.17339-127.56062H14.1734V-99.21384H-14.17339Z" fill="#d2d2ff"/>
<text xml:space="preserve" transform="matrix(1 0 -0 1 .0000038146974 255.51602)" font-size="9.9626" font-family="CMR10"><tspan y="-96.401" x="37.538 42.5193">32</tspan></text>
<path transform="matrix(1,0,0,-1,42.52,42.519014)" d="M14.1734-127.56062H42.52019V-99.21384H14.1734Z" fill="#d2d2ff"/>
<text xml:space="preserve" transform="matrix(1 0 -0 1 0 255.51602)" font-size="9.9626" font-family="CMR10"><tspan y="-96.401" x="65.885 70.8663">33</tspan></text>
<path transform="matrix(1,0,0,-1,42.52,42.519014)" d="M42.52022-127.56062H70.86701V-99.21384H42.52022Z" fill="#d2d2ff"/>
<text xml:space="preserve" transform="matrix(1 0 -0 1 0 255.51602)" font-size="9.9626" font-family="CMR10"><tspan y="-96.401" x="94.231 99.2123">34</tspan></text>
<path transform="matrix(1,0,0,-1,42.52,42.519014)" d="M70.86702-127.56062H99.213809V-99.21384H70.86702Z" fill="#d2d2ff"/>
<text xml:space="preserve" transform="matrix(1 0 -0 1 0 255.51602)" font-size="9.9626" font-family="CMR10"><tspan y="-96.401" x="122.578 127.5593">35</tspan></text>
<path transform="matrix(1,0,0,-1,42.52,42.519014)" d="M99.21384-127.56062H127.56062V-99.21384H99.21384Z" fill="#d2d2ff"/>
<text xml:space="preserve" transform="matrix(1 0 -0 1 0 255.51602)" font-size="9.9626" font-family="CMR10"><tspan y="-96.401" x="150.924 155.90529">36</tspan></text>
<path transform="matrix(1,0,0,-1,42.52,42.519014)" d="M127.56064-127.56062H155.90743V-99.21384H127.56064Z" fill="#d2d2ff"/>
<text xml:space="preserve" transform="matrix(1 0 -0 1 .000015258789 255.51602)" font-size="9.9626" font-family="CMR10"><tspan y="-96.401" x="179.271 184.25229">37</tspan></text>
<path transform="matrix(1,0,0,-1,42.52,42.519014)" d="M155.90746-127.56062H184.25424V-99.21384H155.90746Z" fill="#d2d2ff"/>
<text xml:space="preserve" transform="matrix(1 0 -0 1 0 255.51602)" font-size="9.9626" font-family="CMR10"><tspan y="-96.401" x="207.617 212.5983">38</tspan></text>
<path transform="matrix(1,0,0,-1,42.52,42.519014)" d="M184.25426-127.56062H212.60105V-99.21384H184.25426Z" fill="#d2d2ff"/>
<text xml:space="preserve" transform="matrix(1 0 -0 1 0 255.51602)" font-size="9.9626" font-family="CMR10"><tspan y="-96.401" x="235.963 240.94429">39</tspan></text>
<path transform="matrix(1,0,0,-1,42.52,42.519014)" d="M-14.17339-155.90744H14.1734V-127.56065H-14.17339Z" fill="#d2ffd2"/>
<text xml:space="preserve" transform="matrix(1 0 -0 1 .0000038146974 255.51602)" font-size="9.9626" font-family="CMR10"><tspan y="-68.055" x="37.538 42.5193">40</tspan></text>
<path transform="matrix(1,0,0,-1,42.52,42.519014)" d="M14.1734-155.90744H42.52019V-127.56065H14.1734Z" fill="#d2ffd2"/>
<text xml:space="preserve" transform="matrix(1 0 -0 1 0 255.51602)" font-size="9.9626" font-family="CMR10"><tspan y="-68.055" x="65.885 70.8663">41</tspan></text>
<path transform="matrix(1,0,0,-1,42.52,42.519014)" d="M42.52022-155.90744H70.86701V-127.56065H42.52022Z" fill="#d2ffd2"/>
<text xml:space="preserve" transform="matrix(1 0 -0 1 0 255.51602)" font-size="9.9626" font-family="CMR10"><tspan y="-68.055" x="94.231 99.2123">42</tspan></text>
<path transform="matrix(1,0,0,-1,42.52,42.519014)" d="M70.86702-155.90744H99.213809V-127.56065H70.86702Z" fill="#d2ffd2"/>
<text xml:space="preserve" transform="matrix(1 0 -0 1 0 255.51602)" font-size="9.9626" font-family="CMR10"><tspan y="-68.055" x="122.578 127.5593">43</tspan></text>
<path transform="matrix(1,0,0,-1,42.52,42.519014)" d="M99.21384-155.90744H127.56062V-127.56065H99.21384Z" fill="#d2ffd2"/>
<text xml:space="preserve" transform="matrix(1 0 -0 1 0 255.51602)" font-size="9.9626" font-family="CMR10"><tspan y="-68.055" x="150.924 155.90529">44</tspan></text>
<path transform="matrix(1,0,0,-1,42.52,42.519014)" d="M127.56064-155.90744H155.90743V-127.56065H127.56064Z" fill="#d2ffd2"/>
<text xml:space="preserve" transform="matrix(1 0 -0 1 .000015258789 255.51602)" font-size="9.9626" font-family="CMR10"><tspan y="-68.055" x="179.271 184.25229">45</tspan></text>
<path transform="matrix(1,0,0,-1,42.52,42.519014)" d="M155.90746-155.90744H184.25424V-127.56065H155.90746Z" fill="#d2ffd2"/>
<text xml:space="preserve" transform="matrix(1 0 -0 1 0 255.51602)" font-size="9.9626" font-family="CMR10"><tspan y="-68.055" x="207.617 212.5983">46</tspan></text>
<path transform="matrix(1,0,0,-1,42.52,42.519014)" d="M184.25426-155.90744H212.60105V-127.56065H184.25426Z" fill="#d2ffd2"/>
<text xml:space="preserve" transform="matrix(1 0 -0 1 0 255.51602)" font-size="9.9626" font-family="CMR10"><tspan y="-68.055" x="235.963 240.94429">47</tspan></text>
<path transform="matrix(1,0,0,-1,42.52,42.519014)" d="M-14.17339-184.25424H14.1734V-155.90746H-14.17339Z" fill="#ffffd2"/>
<text xml:space="preserve" transform="matrix(1 0 -0 1 .0000038146974 255.51602)" font-size="9.9626" font-family="CMR10"><tspan y="-39.708" x="37.538 42.5193">48</tspan></text>
<path transform="matrix(1,0,0,-1,42.52,42.519014)" d="M14.1734-184.25424H42.52019V-155.90746H14.1734Z" fill="#ffffd2"/>
<text xml:space="preserve" transform="matrix(1 0 -0 1 0 255.51602)" font-size="9.9626" font-family="CMR10"><tspan y="-39.708" x="65.885 70.8663">49</tspan></text>
<path transform="matrix(1,0,0,-1,42.52,42.519014)" d="M42.52022-184.25424H70.86701V-155.90746H42.52022Z" fill="#ffffd2"/>
<text xml:space="preserve" transform="matrix(1 0 -0 1 0 255.51602)" font-size="9.9626" font-family="CMR10"><tspan y="-39.708" x="94.231 99.2123">50</tspan></text>
<path transform="matrix(1,0,0,-1,42.52,42.519014)" d="M70.86702-184.25424H99.213809V-155.90746H70.86702Z" fill="#ffffd2"/>
<text xml:space="preserve" transform="matrix(1 0 -0 1 0 255.51602)" font-size="9.9626" font-family="CMR10"><tspan y="-39.708" x="122.578 127.5593">51</tspan></text>
<path transform="matrix(1,0,0,-1,42.52,42.519014)" d="M99.21384-184.25424H127.56062V-155.90746H99.21384Z" fill="#ffffd2"/>
<text xml:space="preserve" transform="matrix(1 0 -0 1 0 255.51602)" font-size="9.9626" font-family="CMR10"><tspan y="-39.708" x="150.924 155.90529">52</tspan></text>
<path transform="matrix(1,0,0,-1,42.52,42.519014)" d="M127.56064-184.25424H155.90743V-155.90746H127.56064Z" fill="#ffffd2"/>
<text xml:space="preserve" transform="matrix(1 0 -0 1 .000015258789 255.51602)" font-size="9.9626" font-family="CMR10"><tspan y="-39.708" x="179.271 184.25229">53</tspan></text>
<path transform="matrix(1,0,0,-1,42.52,42.519014)" d="M155.90746-184.25424H184.25424V-155.90746H155.90746Z" fill="#ffffd2"/>
<text xml:space="preserve" transform="matrix(1 0 -0 1 0 255.51602)" font-size="9.9626" font-family="CMR10"><tspan y="-39.708" x="207.617 212.5983">54</tspan></text>
<path transform="matrix(1,0,0,-1,42.52,42.519014)" d="M184.25426-184.25424H212.60105V-155.90746H184.25426Z" fill="#ffffd2"/>
<text xml:space="preserve" transform="matrix(1 0 -0 1 0 255.51602)" font-size="9.9626" font-family="CMR10"><tspan y="-39.708" x="235.963 240.94429">55</tspan></text>
<path transform="matrix(1,0,0,-1,42.52,42.519014)" d="M-14.17339-212.60106H14.1734V-184.25428H-14.17339Z" fill="#ffd2d2"/>
<text xml:space="preserve" transform="matrix(1 0 -0 1 .0000038146974 255.516)" font-size="9.9626" font-family="CMR10"><tspan y="-11.362" x="37.538 42.5193">56</tspan></text>
<path transform="matrix(1,0,0,-1,42.52,42.519014)" d="M14.1734-212.60106H42.52019V-184.25428H14.1734Z" fill="#ffd2d2"/>
<text xml:space="preserve" transform="matrix(1 0 -0 1 0 255.516)" font-size="9.9626" font-family="CMR10"><tspan y="-11.362" x="65.885 70.8663">57</tspan></text>
<path transform="matrix(1,0,0,-1,42.52,42.519014)" d="M42.52022-212.60106H70.86701V-184.25428H42.52022Z" fill="#ffd2d2"/>
<text xml:space="preserve" transform="matrix(1 0 -0 1 0 255.516)" font-size="9.9626" font-family="CMR10"><tspan y="-11.362" x="94.231 99.2123">58</tspan></text>
<path transform="matrix(1,0,0,-1,42.52,42.519014)" d="M70.86702-212.60106H99.213809V-184.25428H70.86702Z" fill="#ffd2d2"/>
<text xml:space="preserve" transform="matrix(1 0 -0 1 0 255.516)" font-size="9.9626" font-family="CMR10"><tspan y="-11.362" x="122.578 127.5593">59</tspan></text>
<path transform="matrix(1,0,0,-1,42.52,42.519014)" d="M99.21384-212.60106H127.56062V-184.25428H99.21384Z" fill="#ffd2d2"/>
<text xml:space="preserve" transform="matrix(1 0 -0 1 0 255.516)" font-size="9.9626" font-family="CMR10"><tspan y="-11.362" x="150.924 155.90529">60</tspan></text>
<path transform="matrix(1,0,0,-1,42.52,42.519014)" d="M127.56064-212.60106H155.90743V-184.25428H127.56064Z" fill="#ffd2d2"/>
<text xml:space="preserve" transform="matrix(1 0 -0 1 .000015258789 255.516)" font-size="9.9626" font-family="CMR10"><tspan y="-11.362" x="179.271 184.25229">61</tspan></text>
<path transform="matrix(1,0,0,-1,42.52,42.519014)" d="M155.90746-212.60106H184.25424V-184.25428H155.90746Z" fill="#ffd2d2"/>
<text xml:space="preserve" transform="matrix(1 0 -0 1 0 255.516)" font-size="9.9626" font-family="CMR10"><tspan y="-11.362" x="207.617 212.5983">62</tspan></text>
<path transform="matrix(1,0,0,-1,42.52,42.519014)" d="M184.25426-212.60106H212.60105V-184.25428H184.25426Z" fill="#ffd2d2"/>
<text xml:space="preserve" transform="matrix(1 0 -0 1 0 255.516)" font-size="9.9626" font-family="CMR10"><tspan y="-11.362" x="235.963 240.94429">63</tspan></text>
<path transform="matrix(1,0,0,-1,42.52,42.519014)" stroke-width=".79701" stroke-linecap="butt" stroke-miterlimit="10" stroke-linejoin="miter" fill="none" stroke="#000000" d="M-14.17339-212.60108H212.60108M-14.17339-184.25426H212.60108M-14.17339-155.90746H212.60108M-14.17339-127.56064H212.60108M-14.17339-99.21384H212.60108M-14.17339-70.86702H212.60108M-14.17339-42.52022H212.60108M-14.17339-14.1734H212.60108M-14.17339 14.16344H212.60108M-14.17339-212.60108V14.17339M14.1734-212.60108V14.17339M42.52022-212.60108V14.17339M70.86702-212.60108V14.17339M99.21384-212.60108V14.17339M127.56064-212.60108V14.17339M155.90746-212.60108V14.17339M184.25426-212.60108V14.17339M212.59111-212.60108V14.17339M212.60108-212.60108"/>
<text xml:space="preserve" transform="matrix(1 0 -0 1 .0000019073487 255.51602)" font-size="14.3462" font-family="CMTT12"><tspan y="-208.613" x="10.482">0</tspan></text>
<text xml:space="preserve" transform="matrix(1 0 -0 1 .0000019073487 255.516)" font-size="14.3462" font-family="CMTT12"><tspan y="-180.267" x="10.482">1</tspan></text>
<text xml:space="preserve" transform="matrix(1 0 -0 1 .0000019073487 255.51602)" font-size="14.3462" font-family="CMTT12"><tspan y="-151.921" x="10.482">2</tspan></text>
<text xml:space="preserve" transform="matrix(1 0 -0 1 .0000019073487 255.51602)" font-size="14.3462" font-family="CMTT12"><tspan y="-123.574" x="10.482">3</tspan></text>
<text xml:space="preserve" transform="matrix(1 0 -0 1 .0000019073487 255.516)" font-size="14.3462" font-family="CMTT12"><tspan y="-95.228" x="10.482">4</tspan></text>
<text xml:space="preserve" transform="matrix(1 0 -0 1 .0000019073487 255.516)" font-size="14.3462" font-family="CMTT12"><tspan y="-66.881" x="10.482">5</tspan></text>
<text xml:space="preserve" transform="matrix(1 0 -0 1 .0000019073487 255.51602)" font-size="14.3462" font-family="CMTT12"><tspan y="-38.535" x="10.482">6</tspan></text>
<text xml:space="preserve" transform="matrix(1 0 -0 1 .0000019073487 255.51602)" font-size="14.3462" font-family="CMTT12"><tspan y="-10.188" x="10.482">7</tspan></text>
<text xml:space="preserve" transform="matrix(1 0 -0 1 0 255.51602)" font-size="14.3462" font-family="CMTT12"><tspan y="-236.96" x="38.828">0</tspan></text>
<text xml:space="preserve" transform="matrix(1 0 -0 1 0 255.51602)" font-size="14.3462" font-family="CMTT12"><tspan y="-236.96" x="67.175">1</tspan></text>
<text xml:space="preserve" transform="matrix(1 0 -0 1 -.0000076293949 255.51602)" font-size="14.3462" font-family="CMTT12"><tspan y="-236.96" x="95.521">2</tspan></text>
<text xml:space="preserve" transform="matrix(1 0 -0 1 0 255.51602)" font-size="14.3462" font-family="CMTT12"><tspan y="-236.96" x="123.868">3</tspan></text>
<text xml:space="preserve" transform="matrix(1 0 -0 1 0 255.51602)" font-size="14.3462" font-family="CMTT12"><tspan y="-236.96" x="152.214">4</tspan></text>
<text xml:space="preserve" transform="matrix(1 0 -0 1 0 255.51602)" font-size="14.3462" font-family="CMTT12"><tspan y="-236.96" x="180.561">5</tspan></text>
<text xml:space="preserve" transform="matrix(1 0 -0 1 0 255.51602)" font-size="14.3462" font-family="CMTT12"><tspan y="-236.96" x="208.907">6</tspan></text>
<text xml:space="preserve" transform="matrix(1 0 -0 1 0 255.51602)" font-size="14.3462" font-family="CMTT12"><tspan y="-236.96" x="237.254">7</tspan></text>
</svg>
