<svg xmlns="http://www.w3.org/2000/svg" xmlns:xlink="http://www.w3.org/1999/xlink" xmlns:inkscape="http://www.inkscape.org/namespaces/inkscape" version="1.1" width="482.288" height="255.516" viewBox="0 0 482.288 255.516">
<path transform="matrix(1,0,0,-1,42.52,42.519014)" d="M-14.17339-14.17339H14.1734V14.1734H-14.17339Z" fill="#afafff"/>
<text xml:space="preserve" transform="matrix(1 0 -0 1 0 255.51602)" font-size="9.9626" font-family="CMR10"><tspan y="-209.787" x="40.029">0</tspan></text>
<path transform="matrix(1,0,0,-1,42.52,42.519014)" d="M14.1734-14.17339H42.52019V14.1734H14.1734Z" fill="#afafff"/>
<text xml:space="preserve" transform="matrix(1 0 -0 1 0 255.51602)" font-size="9.9626" font-family="CMR10"><tspan y="-209.787" x="68.375">1</tspan></text>
<path transform="matrix(1,0,0,-1,42.52,42.519014)" d="M42.52022-14.17339H70.86701V14.1734H42.52022Z" fill="#afafff"/>
<text xml:space="preserve" transform="matrix(1 0 -0 1 0 255.51602)" font-size="9.9626" font-family="CMR10"><tspan y="-209.787" x="96.722">2</tspan></text>
<path transform="matrix(1,0,0,-1,42.52,42.519014)" d="M70.86702-14.17339H99.213809V14.1734H70.86702Z" fill="#afafff"/>
<text xml:space="preserve" transform="matrix(1 0 -0 1 -.0000076293949 255.51602)" font-size="9.9626" font-family="CMR10"><tspan y="-209.787" x="125.068">3</tspan></text>
<path transform="matrix(1,0,0,-1,42.52,42.519014)" d="M99.21384-14.17339H127.56062V14.1734H99.21384Z" fill="#afafff"/>
<text xml:space="preserve" transform="matrix(1 0 -0 1 0 255.51602)" font-size="9.9626" font-family="CMR10"><tspan y="-209.787" x="153.415">4</tspan></text>
<path transform="matrix(1,0,0,-1,42.52,42.519014)" d="M127.56064-14.17339H155.90743V14.1734H127.56064Z" fill="#afafff"/>
<text xml:space="preserve" transform="matrix(1 0 -0 1 0 255.51602)" font-size="9.9626" font-family="CMR10"><tspan y="-209.787" x="181.761">5</tspan></text>
<path transform="matrix(1,0,0,-1,42.52,42.519014)" d="M155.90746-14.17339H184.25424V14.1734H155.90746Z" fill="#afafff"/>
<text xml:space="preserve" transform="matrix(1 0 -0 1 0 255.51602)" font-size="9.9626" font-family="CMR10"><tspan y="-209.787" x="210.108">6</tspan></text>
<path transform="matrix(1,0,0,-1,42.52,42.519014)" d="M184.25426-14.17339H212.60105V14.1734H184.25426Z" fill="#afafff"/>
<text xml:space="preserve" transform="matrix(1 0 -0 1 .000015258789 255.51602)" font-size="9.9626" font-family="CMR10"><tspan y="-209.787" x="238.454">7</tspan></text>
<path transform="matrix(1,0,0,-1,42.52,42.519014)" d="M212.60108-14.17339H240.94786V14.1734H212.60108Z" fill="#afffaf"/>
<text xml:space="preserve" transform="matrix(1 0 -0 1 0 255.51602)" font-size="9.9626" font-family="CMR10"><tspan y="-209.787" x="266.801">8</tspan></text>
<path transform="matrix(1,0,0,-1,42.52,42.519014)" d="M240.94789-14.17339H269.29469V14.1734H240.94789Z" fill="#afffaf"/>
<text xml:space="preserve" transform="matrix(1 0 -0 1 0 255.51602)" font-size="9.9626" font-family="CMR10"><tspan y="-209.787" x="295.147">9</tspan></text>
<path transform="matrix(1,0,0,-1,42.52,42.519014)" d="M269.2947-14.17339H297.6415V14.1734H269.2947Z" fill="#afffaf"/>
<text xml:space="preserve" transform="matrix(1 0 -0 1 0 255.51602)" font-size="9.9626" font-family="CMR10"><tspan y="-209.787" x="321.003 325.98429">10</tspan></text>
<path transform="matrix(1,0,0,-1,42.52,42.519014)" d="M297.6415-14.17339H325.9883V14.1734H297.6415Z" fill="#afffaf"/>
<text xml:space="preserve" transform="matrix(1 0 -0 1 0 255.51602)" font-size="9.9626" font-family="CMR10"><tspan y="-209.787" x="349.349 354.3303">11</tspan></text>
<path transform="matrix(1,0,0,-1,42.52,42.519014)" d="M325.9883-14.17339H354.3351V14.1734H325.9883Z" fill="#afffaf"/>
<text xml:space="preserve" transform="matrix(1 0 -0 1 -.000030517579 255.51602)" font-size="9.9626" font-family="CMR10"><tspan y="-209.787" x="377.696 382.6773">12</tspan></text>
<path transform="matrix(1,0,0,-1,42.52,42.519014)" d="M354.33515-14.17339H382.68196V14.1734H354.33515Z" fill="#afffaf"/>
<text xml:space="preserve" transform="matrix(1 0 -0 1 0 255.51602)" font-size="9.9626" font-family="CMR10"><tspan y="-209.787" x="406.042 411.0233">13</tspan></text>
<path transform="matrix(1,0,0,-1,42.52,42.519014)" d="M382.68193-14.17339H411.02873V14.1734H382.68193Z" fill="#afffaf"/>
<text xml:space="preserve" transform="matrix(1 0 -0 1 -.000030517579 255.51602)" font-size="9.9626" font-family="CMR10"><tspan y="-209.787" x="434.389 439.3703">14</tspan></text>
<path transform="matrix(1,0,0,-1,42.52,42.519014)" d="M411.02876-14.17339H439.37556V14.1734H411.02876Z" fill="#afffaf"/>
<text xml:space="preserve" transform="matrix(1 0 -0 1 0 255.51602)" font-size="9.9626" font-family="CMR10"><tspan y="-209.787" x="462.735 467.71629">15</tspan></text>
<path transform="matrix(1,0,0,-1,42.52,42.519014)" d="M-14.17339-42.5202H14.1734V-14.1734089H-14.17339Z" fill="#ffffaf"/>
<text xml:space="preserve" transform="matrix(1 0 -0 1 .0000038146974 255.51602)" font-size="9.9626" font-family="CMR10"><tspan y="-181.44" x="37.538 42.5193">16</tspan></text>
<path transform="matrix(1,0,0,-1,42.52,42.519014)" d="M14.1734-42.5202H42.52019V-14.1734089H14.1734Z" fill="#ffffaf"/>
<text xml:space="preserve" transform="matrix(1 0 -0 1 0 255.51602)" font-size="9.9626" font-family="CMR10"><tspan y="-181.44" x="65.885 70.8663">17</tspan></text>
<path transform="matrix(1,0,0,-1,42.52,42.519014)" d="M42.52022-42.5202H70.86701V-14.1734089H42.52022Z" fill="#ffffaf"/>
<text xml:space="preserve" transform="matrix(1 0 -0 1 0 255.51602)" font-size="9.9626" font-family="CMR10"><tspan y="-181.44" x="94.231 99.2123">18</tspan></text>
<path transform="matrix(1,0,0,-1,42.52,42.519014)" d="M70.86702-42.5202H99.213809V-14.1734089H70.86702Z" fill="#ffffaf"/>
<text xml:space="preserve" transform="matrix(1 0 -0 1 0 255.51602)" font-size="9.9626" font-family="CMR10"><tspan y="-181.44" x="122.578 127.5593">19</tspan></text>
<path transform="matrix(1,0,0,-1,42.52,42.519014)" d="M99.21384-42.5202H127.56062V-14.1734089H99.21384Z" fill="#ffffaf"/>
<text xml:space="preserve" transform="matrix(1 0 -0 1 0 255.51602)" font-size="9.9626" font-family="CMR10"><tspan y="-181.44" x="150.924 155.90529">20</tspan></text>
<path transform="matrix(1,0,0,-1,42.52,42.519014)" d="M127.56064-42.5202H155.90743V-14.1734089H127.56064Z" fill="#ffffaf"/>
<text xml:space="preserve" transform="matrix(1 0 -0 1 .000015258789 255.51602)" font-size="9.9626" font-family="CMR10"><tspan y="-181.44" x="179.271 184.25229">21</tspan></text>
<path transform="matrix(1,0,0,-1,42.52,42.519014)" d="M155.90746-42.5202H184.25424V-14.1734089H155.90746Z" fill="#ffffaf"/>
<text xml:space="preserve" transform="matrix(1 0 -0 1 0 255.51602)" font-size="9.9626" font-family="CMR10"><tspan y="-181.44" x="207.617 212.5983">22</tspan></text>
<path transform="matrix(1,0,0,-1,42.52,42.519014)" d="M184.25426-42.5202H212.60105V-14.1734089H184.25426Z" fill="#ffffaf"/>
<text xml:space="preserve" transform="matrix(1 0 -0 1 0 255.51602)" font-size="9.9626" font-family="CMR10"><tspan y="-181.44" x="235.963 240.94429">23</tspan></text>
<path transform="matrix(1,0,0,-1,42.52,42.519014)" d="M212.60108-42.5202H240.94786V-14.1734089H212.60108Z" fill="#ffafaf"/>
<text xml:space="preserve" transform="matrix(1 0 -0 1 0 255.51602)" font-size="9.9626" font-family="CMR10"><tspan y="-181.44" x="264.31 269.2913">24</tspan></text>
<path transform="matrix(1,0,0,-1,42.52,42.519014)" d="M240.94789-42.5202H269.29469V-14.1734089H240.94789Z" fill="#ffafaf"/>
<text xml:space="preserve" transform="matrix(1 0 -0 1 0 255.51602)" font-size="9.9626" font-family="CMR10"><tspan y="-181.44" x="292.656 297.6373">25</tspan></text>
<path transform="matrix(1,0,0,-1,42.52,42.519014)" d="M269.2947-42.5202H297.6415V-14.1734089H269.2947Z" fill="#ffafaf"/>
<text xml:space="preserve" transform="matrix(1 0 -0 1 0 255.51602)" font-size="9.9626" font-family="CMR10"><tspan y="-181.44" x="321.003 325.98429">26</tspan></text>
<path transform="matrix(1,0,0,-1,42.52,42.519014)" d="M297.6415-42.5202H325.9883V-14.1734089H297.6415Z" fill="#ffafaf"/>
<text xml:space="preserve" transform="matrix(1 0 -0 1 0 255.51602)" font-size="9.9626" font-family="CMR10"><tspan y="-181.44" x="349.349 354.3303">27</tspan></text>
<path transform="matrix(1,0,0,-1,42.52,42.519014)" d="M325.9883-42.5202H354.3351V-14.1734089H325.9883Z" fill="#ffafaf"/>
<text xml:space="preserve" transform="matrix(1 0 -0 1 -.000030517579 255.51602)" font-size="9.9626" font-family="CMR10"><tspan y="-181.44" x="377.696 382.6773">28</tspan></text>
<path transform="matrix(1,0,0,-1,42.52,42.519014)" d="M354.33515-42.5202H382.68196V-14.1734089H354.33515Z" fill="#ffafaf"/>
<text xml:space="preserve" transform="matrix(1 0 -0 1 0 255.51602)" font-size="9.9626" font-family="CMR10"><tspan y="-181.44" x="406.042 411.0233">29</tspan></text>
<path transform="matrix(1,0,0,-1,42.52,42.519014)" d="M382.68193-42.5202H411.02873V-14.1734089H382.68193Z" fill="#ffafaf"/>
<text xml:space="preserve" transform="matrix(1 0 -0 1 -.000030517579 255.51602)" font-size="9.9626" font-family="CMR10"><tspan y="-181.44" x="434.389 439.3703">30</tspan></text>
<path transform="matrix(1,0,0,-1,42.52,42.519014)" d="M411.02876-42.5202H439.37556V-14.1734089H411.02876Z" fill="#ffafaf"/>
<text xml:space="preserve" transform="matrix(1 0 -0 1 0 255.51602)" font-size="9.9626" font-family="CMR10"><tspan y="-181.44" x="462.735 467.71629">31</tspan></text>
<path transform="matrix(1,0,0,-1,42.52,42.519014)" d="M-14.17339-70.867H14.1734V-42.520208H-14.17339Z" fill="#d2d2ff"/>
<text xml:space="preserve" transform="matrix(1 0 -0 1 .0000038146974 255.516)" font-size="9.9626" font-family="CMR10"><tspan y="-153.094" x="37.538 42.5193">32</tspan></text>
<path transform="matrix(1,0,0,-1,42.52,42.519014)" d="M14.1734-70.867H42.52019V-42.520208H14.1734Z" fill="#d2d2ff"/>
<text xml:space="preserve" transform="matrix(1 0 -0 1 0 255.516)" font-size="9.9626" font-family="CMR10"><tspan y="-153.094" x="65.885 70.8663">33</tspan></text>
<path transform="matrix(1,0,0,-1,42.52,42.519014)" d="M42.52022-70.867H70.86701V-42.520208H42.52022Z" fill="#d2d2ff"/>
<text xml:space="preserve" transform="matrix(1 0 -0 1 0 255.516)" font-size="9.9626" font-family="CMR10"><tspan y="-153.094" x="94.231 99.2123">34</tspan></text>
<path transform="matrix(1,0,0,-1,42.52,42.519014)" d="M70.86702-70.867H99.213809V-42.520208H70.86702Z" fill="#d2d2ff"/>
<text xml:space="preserve" transform="matrix(1 0 -0 1 0 255.516)" font-size="9.9626" font-family="CMR10"><tspan y="-153.094" x="122.578 127.5593">35</tspan></text>
<path transform="matrix(1,0,0,-1,42.52,42.519014)" d="M99.21384-70.867H127.56062V-42.520208H99.21384Z" fill="#d2d2ff"/>
<text xml:space="preserve" transform="matrix(1 0 -0 1 0 255.516)" font-size="9.9626" font-family="CMR10"><tspan y="-153.094" x="150.924 155.90529">36</tspan></text>
<path transform="matrix(1,0,0,-1,42.52,42.519014)" d="M127.56064-70.867H155.90743V-42.520208H127.56064Z" fill="#d2d2ff"/>
<text xml:space="preserve" transform="matrix(1 0 -0 1 .000015258789 255.516)" font-size="9.9626" font-family="CMR10"><tspan y="-153.094" x="179.271 184.25229">37</tspan></text>
<path transform="matrix(1,0,0,-1,42.52,42.519014)" d="M155.90746-70.867H184.25424V-42.520208H155.90746Z" fill="#d2d2ff"/>
<text xml:space="preserve" transform="matrix(1 0 -0 1 0 255.516)" font-size="9.9626" font-family="CMR10"><tspan y="-153.094" x="207.617 212.5983">38</tspan></text>
<path transform="matrix(1,0,0,-1,42.52,42.519014)" d="M184.25426-70.867H212.60105V-42.520208H184.25426Z" fill="#d2d2ff"/>
<text xml:space="preserve" transform="matrix(1 0 -0 1 0 255.516)" font-size="9.9626" font-family="CMR10"><tspan y="-153.094" x="235.963 240.94429">39</tspan></text>
<path transform="matrix(1,0,0,-1,42.52,42.519014)" d="M212.60108-70.867H240.94786V-42.520208H212.60108Z" fill="#d2ffd2"/>
<text xml:space="preserve" transform="matrix(1 0 -0 1 0 255.516)" font-size="9.9626" font-family="CMR10"><tspan y="-153.094" x="264.31 269.2913">40</tspan></text>
<path transform="matrix(1,0,0,-1,42.52,42.519014)" d="M240.94789-70.867H269.29469V-42.520208H240.94789Z" fill="#d2ffd2"/>
<text xml:space="preserve" transform="matrix(1 0 -0 1 0 255.516)" font-size="9.9626" font-family="CMR10"><tspan y="-153.094" x="292.656 297.6373">41</tspan></text>
<path transform="matrix(1,0,0,-1,42.52,42.519014)" d="M269.2947-70.867H297.6415V-42.520208H269.2947Z" fill="#d2ffd2"/>
<text xml:space="preserve" transform="matrix(1 0 -0 1 0 255.516)" font-size="9.9626" font-family="CMR10"><tspan y="-153.094" x="321.003 325.98429">42</tspan></text>
<path transform="matrix(1,0,0,-1,42.52,42.519014)" d="M297.6415-70.867H325.9883V-42.520208H297.6415Z" fill="#d2ffd2"/>
<text xml:space="preserve" transform="matrix(1 0 -0 1 0 255.516)" font-size="9.9626" font-family="CMR10"><tspan y="-153.094" x="349.349 354.3303">43</tspan></text>
<path transform="matrix(1,0,0,-1,42.52,42.519014)" d="M325.9883-70.867H354.3351V-42.520208H325.9883Z" fill="#d2ffd2"/>
<text xml:space="preserve" transform="matrix(1 0 -0 1 -.000030517579 255.516)" font-size="9.9626" font-family="CMR10"><tspan y="-153.094" x="377.696 382.6773">44</tspan></text>
<path transform="matrix(1,0,0,-1,42.52,42.519014)" d="M354.33515-70.867H382.68196V-42.520208H354.33515Z" fill="#d2ffd2"/>
<text xml:space="preserve" transform="matrix(1 0 -0 1 0 255.516)" font-size="9.9626" font-family="CMR10"><tspan y="-153.094" x="406.042 411.0233">45</tspan></text>
<path transform="matrix(1,0,0,-1,42.52,42.519014)" d="M382.68193-70.867H411.02873V-42.520208H382.68193Z" fill="#d2ffd2"/>
<text xml:space="preserve" transform="matrix(1 0 -0 1 -.000030517579 255.516)" font-size="9.9626" font-family="CMR10"><tspan y="-153.094" x="434.389 439.3703">46</tspan></text>
<path transform="matrix(1,0,0,-1,42.52,42.519014)" d="M411.02876-70.867H439.37556V-42.520208H411.02876Z" fill="#d2ffd2"/>
<text xml:space="preserve" transform="matrix(1 0 -0 1 0 255.516)" font-size="9.9626" font-family="CMR10"><tspan y="-153.094" x="462.735 467.71629">47</tspan></text>
<path transform="matrix(1,0,0,-1,42.52,42.519014)" d="M-14.17339-99.21382H14.1734V-70.867038H-14.17339Z" fill="#ffffd2"/>
<text xml:space="preserve" transform="matrix(1 0 -0 1 .0000038146974 255.51602)" font-size="9.9626" font-family="CMR10"><tspan y="-124.747" x="37.538 42.5193">48</tspan></text>
<path transform="matrix(1,0,0,-1,42.52,42.519014)" d="M14.1734-99.21382H42.52019V-70.867038H14.1734Z" fill="#ffffd2"/>
<text xml:space="preserve" transform="matrix(1 0 -0 1 0 255.51602)" font-size="9.9626" font-family="CMR10"><tspan y="-124.747" x="65.885 70.8663">49</tspan></text>
<path transform="matrix(1,0,0,-1,42.52,42.519014)" d="M42.52022-99.21382H70.86701V-70.867038H42.52022Z" fill="#ffffd2"/>
<text xml:space="preserve" transform="matrix(1 0 -0 1 0 255.51602)" font-size="9.9626" font-family="CMR10"><tspan y="-124.747" x="94.231 99.2123">50</tspan></text>
<path transform="matrix(1,0,0,-1,42.52,42.519014)" d="M70.86702-99.21382H99.213809V-70.867038H70.86702Z" fill="#ffffd2"/>
<text xml:space="preserve" transform="matrix(1 0 -0 1 0 255.51602)" font-size="9.9626" font-family="CMR10"><tspan y="-124.747" x="122.578 127.5593">51</tspan></text>
<path transform="matrix(1,0,0,-1,42.52,42.519014)" d="M99.21384-99.21382H127.56062V-70.867038H99.21384Z" fill="#ffffd2"/>
<text xml:space="preserve" transform="matrix(1 0 -0 1 0 255.51602)" font-size="9.9626" font-family="CMR10"><tspan y="-124.747" x="150.924 155.90529">52</tspan></text>
<path transform="matrix(1,0,0,-1,42.52,42.519014)" d="M127.56064-99.21382H155.90743V-70.867038H127.56064Z" fill="#ffffd2"/>
<text xml:space="preserve" transform="matrix(1 0 -0 1 .000015258789 255.51602)" font-size="9.9626" font-family="CMR10"><tspan y="-124.747" x="179.271 184.25229">53</tspan></text>
<path transform="matrix(1,0,0,-1,42.52,42.519014)" d="M155.90746-99.21382H184.25424V-70.867038H155.90746Z" fill="#ffffd2"/>
<text xml:space="preserve" transform="matrix(1 0 -0 1 0 255.51602)" font-size="9.9626" font-family="CMR10"><tspan y="-124.747" x="207.617 212.5983">54</tspan></text>
<path transform="matrix(1,0,0,-1,42.52,42.519014)" d="M184.25426-99.21382H212.60105V-70.867038H184.25426Z" fill="#ffffd2"/>
<text xml:space="preserve" transform="matrix(1 0 -0 1 0 255.51602)" font-size="9.9626" font-family="CMR10"><tspan y="-124.747" x="235.963 240.94429">55</tspan></text>
<path transform="matrix(1,0,0,-1,42.52,42.519014)" d="M212.60108-99.21382H240.94786V-70.867038H212.60108Z" fill="#ffd2d2"/>
<text xml:space="preserve" transform="matrix(1 0 -0 1 0 255.51602)" font-size="9.9626" font-family="CMR10"><tspan y="-124.747" x="264.31 269.2913">56</tspan></text>
<path transform="matrix(1,0,0,-1,42.52,42.519014)" d="M240.94789-99.21382H269.29469V-70.867038H240.94789Z" fill="#ffd2d2"/>
<text xml:space="preserve" transform="matrix(1 0 -0 1 0 255.51602)" font-size="9.9626" font-family="CMR10"><tspan y="-124.747" x="292.656 297.6373">57</tspan></text>
<path transform="matrix(1,0,0,-1,42.52,42.519014)" d="M269.2947-99.21382H297.6415V-70.867038H269.2947Z" fill="#ffd2d2"/>
<text xml:space="preserve" transform="matrix(1 0 -0 1 0 255.51602)" font-size="9.9626" font-family="CMR10"><tspan y="-124.747" x="321.003 325.98429">58</tspan></text>
<path transform="matrix(1,0,0,-1,42.52,42.519014)" d="M297.6415-99.21382H325.9883V-70.867038H297.6415Z" fill="#ffd2d2"/>
<text xml:space="preserve" transform="matrix(1 0 -0 1 0 255.51602)" font-size="9.9626" font-family="CMR10"><tspan y="-124.747" x="349.349 354.3303">59</tspan></text>
<path transform="matrix(1,0,0,-1,42.52,42.519014)" d="M325.9883-99.21382H354.3351V-70.867038H325.9883Z" fill="#ffd2d2"/>
<text xml:space="preserve" transform="matrix(1 0 -0 1 -.000030517579 255.51602)" font-size="9.9626" font-family="CMR10"><tspan y="-124.747" x="377.696 382.6773">60</tspan></text>
<path transform="matrix(1,0,0,-1,42.52,42.519014)" d="M354.33515-99.21382H382.68196V-70.867038H354.33515Z" fill="#ffd2d2"/>
<text xml:space="preserve" transform="matrix(1 0 -0 1 0 255.51602)" font-size="9.9626" font-family="CMR10"><tspan y="-124.747" x="406.042 411.0233">61</tspan></text>
<path transform="matrix(1,0,0,-1,42.52,42.519014)" d="M382.68193-99.21382H411.02873V-70.867038H382.68193Z" fill="#ffd2d2"/>
<text xml:space="preserve" transform="matrix(1 0 -0 1 -.000030517579 255.51602)" font-size="9.9626" font-family="CMR10"><tspan y="-124.747" x="434.389 439.3703">62</tspan></text>
<path transform="matrix(1,0,0,-1,42.52,42.519014)" d="M411.02876-99.21382H439.37556V-70.867038H411.02876Z" fill="#ffd2d2"/>
<text xml:space="preserve" transform="matrix(1 0 -0 1 0 255.51602)" font-size="9.9626" font-family="CMR10"><tspan y="-124.747" x="462.735 467.71629">63</tspan></text>
<path transform="matrix(1,0,0,-1,42.52,42.519014)" d="M-14.17339-127.56062H14.1734V-99.21384H-14.17339Z" fill="#afffaf"/>
<text xml:space="preserve" transform="matrix(1 0 -0 1 .0000038146974 255.51602)" font-size="9.9626" font-family="CMR10"><tspan y="-96.401" x="37.538 42.5193">72</tspan></text>
<path transform="matrix(1,0,0,-1,42.52,42.519014)" d="M14.1734-127.56062H42.52019V-99.21384H14.1734Z" fill="#afffaf"/>
<text xml:space="preserve" transform="matrix(1 0 -0 1 0 255.51602)" font-size="9.9626" font-family="CMR10"><tspan y="-96.401" x="65.885 70.8663">73</tspan></text>
<path transform="matrix(1,0,0,-1,42.52,42.519014)" d="M42.52022-127.56062H70.86701V-99.21384H42.52022Z" fill="#afffaf"/>
<text xml:space="preserve" transform="matrix(1 0 -0 1 0 255.51602)" font-size="9.9626" font-family="CMR10"><tspan y="-96.401" x="94.231 99.2123">74</tspan></text>
<path transform="matrix(1,0,0,-1,42.52,42.519014)" d="M70.86702-127.56062H99.213809V-99.21384H70.86702Z" fill="#afffaf"/>
<text xml:space="preserve" transform="matrix(1 0 -0 1 0 255.51602)" font-size="9.9626" font-family="CMR10"><tspan y="-96.401" x="122.578 127.5593">75</tspan></text>
<path transform="matrix(1,0,0,-1,42.52,42.519014)" d="M99.21384-127.56062H127.56062V-99.21384H99.21384Z" fill="#afffaf"/>
<text xml:space="preserve" transform="matrix(1 0 -0 1 0 255.51602)" font-size="9.9626" font-family="CMR10"><tspan y="-96.401" x="150.924 155.90529">76</tspan></text>
<path transform="matrix(1,0,0,-1,42.52,42.519014)" d="M127.56064-127.56062H155.90743V-99.21384H127.56064Z" fill="#afffaf"/>
<text xml:space="preserve" transform="matrix(1 0 -0 1 .000015258789 255.51602)" font-size="9.9626" font-family="CMR10"><tspan y="-96.401" x="179.271 184.25229">77</tspan></text>
<path transform="matrix(1,0,0,-1,42.52,42.519014)" d="M155.90746-127.56062H184.25424V-99.21384H155.90746Z" fill="#afffaf"/>
<text xml:space="preserve" transform="matrix(1 0 -0 1 0 255.51602)" font-size="9.9626" font-family="CMR10"><tspan y="-96.401" x="207.617 212.5983">78</tspan></text>
<path transform="matrix(1,0,0,-1,42.52,42.519014)" d="M184.25426-127.56062H212.60105V-99.21384H184.25426Z" fill="#afffaf"/>
<text xml:space="preserve" transform="matrix(1 0 -0 1 0 255.51602)" font-size="9.9626" font-family="CMR10"><tspan y="-96.401" x="235.963 240.94429">79</tspan></text>
<path transform="matrix(1,0,0,-1,42.52,42.519014)" d="M212.60108-127.56062H240.94786V-99.21384H212.60108Z" fill="#afafff"/>
<text xml:space="preserve" transform="matrix(1 0 -0 1 0 255.51602)" font-size="9.9626" font-family="CMR10"><tspan y="-96.401" x="264.31 269.2913">64</tspan></text>
<path transform="matrix(1,0,0,-1,42.52,42.519014)" d="M240.94789-127.56062H269.29469V-99.21384H240.94789Z" fill="#afafff"/>
<text xml:space="preserve" transform="matrix(1 0 -0 1 0 255.51602)" font-size="9.9626" font-family="CMR10"><tspan y="-96.401" x="292.656 297.6373">65</tspan></text>
<path transform="matrix(1,0,0,-1,42.52,42.519014)" d="M269.2947-127.56062H297.6415V-99.21384H269.2947Z" fill="#afafff"/>
<text xml:space="preserve" transform="matrix(1 0 -0 1 0 255.51602)" font-size="9.9626" font-family="CMR10"><tspan y="-96.401" x="321.003 325.98429">66</tspan></text>
<path transform="matrix(1,0,0,-1,42.52,42.519014)" d="M297.6415-127.56062H325.9883V-99.21384H297.6415Z" fill="#afafff"/>
<text xml:space="preserve" transform="matrix(1 0 -0 1 0 255.51602)" font-size="9.9626" font-family="CMR10"><tspan y="-96.401" x="349.349 354.3303">67</tspan></text>
<path transform="matrix(1,0,0,-1,42.52,42.519014)" d="M325.9883-127.56062H354.3351V-99.21384H325.9883Z" fill="#afafff"/>
<text xml:space="preserve" transform="matrix(1 0 -0 1 -.000030517579 255.51602)" font-size="9.9626" font-family="CMR10"><tspan y="-96.401" x="377.696 382.6773">68</tspan></text>
<path transform="matrix(1,0,0,-1,42.52,42.519014)" d="M354.33515-127.56062H382.68196V-99.21384H354.33515Z" fill="#afafff"/>
<text xml:space="preserve" transform="matrix(1 0 -0 1 0 255.51602)" font-size="9.9626" font-family="CMR10"><tspan y="-96.401" x="406.042 411.0233">69</tspan></text>
<path transform="matrix(1,0,0,-1,42.52,42.519014)" d="M382.68193-127.56062H411.02873V-99.21384H382.68193Z" fill="#afafff"/>
<text xml:space="preserve" transform="matrix(1 0 -0 1 -.000030517579 255.51602)" font-size="9.9626" font-family="CMR10"><tspan y="-96.401" x="434.389 439.3703">70</tspan></text>
<path transform="matrix(1,0,0,-1,42.52,42.519014)" d="M411.02876-127.56062H439.37556V-99.21384H411.02876Z" fill="#afafff"/>
<text xml:space="preserve" transform="matrix(1 0 -0 1 0 255.51602)" font-size="9.9626" font-family="CMR10"><tspan y="-96.401" x="462.735 467.71629">71</tspan></text>
<path transform="matrix(1,0,0,-1,42.52,42.519014)" d="M-14.17339-155.90744H14.1734V-127.56065H-14.17339Z" fill="#ffafaf"/>
<text xml:space="preserve" transform="matrix(1 0 -0 1 .0000038146974 255.51602)" font-size="9.9626" font-family="CMR10"><tspan y="-68.055" x="37.538 42.5193">88</tspan></text>
<path transform="matrix(1,0,0,-1,42.52,42.519014)" d="M14.1734-155.90744H42.52019V-127.56065H14.1734Z" fill="#ffafaf"/>
<text xml:space="preserve" transform="matrix(1 0 -0 1 0 255.51602)" font-size="9.9626" font-family="CMR10"><tspan y="-68.055" x="65.885 70.8663">89</tspan></text>
<path transform="matrix(1,0,0,-1,42.52,42.519014)" d="M42.52022-155.90744H70.86701V-127.56065H42.52022Z" fill="#ffafaf"/>
<text xml:space="preserve" transform="matrix(1 0 -0 1 0 255.51602)" font-size="9.9626" font-family="CMR10"><tspan y="-68.055" x="94.231 99.2123">90</tspan></text>
<path transform="matrix(1,0,0,-1,42.52,42.519014)" d="M70.86702-155.90744H99.213809V-127.56065H70.86702Z" fill="#ffafaf"/>
<text xml:space="preserve" transform="matrix(1 0 -0 1 0 255.51602)" font-size="9.9626" font-family="CMR10"><tspan y="-68.055" x="122.578 127.5593">91</tspan></text>
<path transform="matrix(1,0,0,-1,42.52,42.519014)" d="M99.21384-155.90744H127.56062V-127.56065H99.21384Z" fill="#ffafaf"/>
<text xml:space="preserve" transform="matrix(1 0 -0 1 0 255.51602)" font-size="9.9626" font-family="CMR10"><tspan y="-68.055" x="150.924 155.90529">92</tspan></text>
<path transform="matrix(1,0,0,-1,42.52,42.519014)" d="M127.56064-155.90744H155.90743V-127.56065H127.56064Z" fill="#ffafaf"/>
<text xml:space="preserve" transform="matrix(1 0 -0 1 .000015258789 255.51602)" font-size="9.9626" font-family="CMR10"><tspan y="-68.055" x="179.271 184.25229">93</tspan></text>
<path transform="matrix(1,0,0,-1,42.52,42.519014)" d="M155.90746-155.90744H184.25424V-127.56065H155.90746Z" fill="#ffafaf"/>
<text xml:space="preserve" transform="matrix(1 0 -0 1 0 255.51602)" font-size="9.9626" font-family="CMR10"><tspan y="-68.055" x="207.617 212.5983">94</tspan></text>
<path transform="matrix(1,0,0,-1,42.52,42.519014)" d="M184.25426-155.90744H212.60105V-127.56065H184.25426Z" fill="#ffafaf"/>
<text xml:space="preserve" transform="matrix(1 0 -0 1 0 255.51602)" font-size="9.9626" font-family="CMR10"><tspan y="-68.055" x="235.963 240.94429">95</tspan></text>
<path transform="matrix(1,0,0,-1,42.52,42.519014)" d="M212.60108-155.90744H240.94786V-127.56065H212.60108Z" fill="#ffffaf"/>
<text xml:space="preserve" transform="matrix(1 0 -0 1 0 255.51602)" font-size="9.9626" font-family="CMR10"><tspan y="-68.055" x="264.31 269.2913">80</tspan></text>
<path transform="matrix(1,0,0,-1,42.52,42.519014)" d="M240.94789-155.90744H269.29469V-127.56065H240.94789Z" fill="#ffffaf"/>
<text xml:space="preserve" transform="matrix(1 0 -0 1 0 255.51602)" font-size="9.9626" font-family="CMR10"><tspan y="-68.055" x="292.656 297.6373">81</tspan></text>
<path transform="matrix(1,0,0,-1,42.52,42.519014)" d="M269.2947-155.90744H297.6415V-127.56065H269.2947Z" fill="#ffffaf"/>
<text xml:space="preserve" transform="matrix(1 0 -0 1 0 255.51602)" font-size="9.9626" font-family="CMR10"><tspan y="-68.055" x="321.003 325.98429">82</tspan></text>
<path transform="matrix(1,0,0,-1,42.52,42.519014)" d="M297.6415-155.90744H325.9883V-127.56065H297.6415Z" fill="#ffffaf"/>
<text xml:space="preserve" transform="matrix(1 0 -0 1 0 255.51602)" font-size="9.9626" font-family="CMR10"><tspan y="-68.055" x="349.349 354.3303">83</tspan></text>
<path transform="matrix(1,0,0,-1,42.52,42.519014)" d="M325.9883-155.90744H354.3351V-127.56065H325.9883Z" fill="#ffffaf"/>
<text xml:space="preserve" transform="matrix(1 0 -0 1 -.000030517579 255.51602)" font-size="9.9626" font-family="CMR10"><tspan y="-68.055" x="377.696 382.6773">84</tspan></text>
<path transform="matrix(1,0,0,-1,42.52,42.519014)" d="M354.33515-155.90744H382.68196V-127.56065H354.33515Z" fill="#ffffaf"/>
<text xml:space="preserve" transform="matrix(1 0 -0 1 0 255.51602)" font-size="9.9626" font-family="CMR10"><tspan y="-68.055" x="406.042 411.0233">85</tspan></text>
<path transform="matrix(1,0,0,-1,42.52,42.519014)" d="M382.68193-155.90744H411.02873V-127.56065H382.68193Z" fill="#ffffaf"/>
<text xml:space="preserve" transform="matrix(1 0 -0 1 -.000030517579 255.51602)" font-size="9.9626" font-family="CMR10"><tspan y="-68.055" x="434.389 439.3703">86</tspan></text>
<path transform="matrix(1,0,0,-1,42.52,42.519014)" d="M411.02876-155.90744H439.37556V-127.56065H411.02876Z" fill="#ffffaf"/>
<text xml:space="preserve" transform="matrix(1 0 -0 1 0 255.51602)" font-size="9.9626" font-family="CMR10"><tspan y="-68.055" x="462.735 467.71629">87</tspan></text>
<path transform="matrix(1,0,0,-1,42.52,42.519014)" d="M-14.17339-184.25424H14.1734V-155.90746H-14.17339Z" fill="#d2ffd2"/>
<text xml:space="preserve" transform="matrix(1 0 -0 1 0 255.51602)" font-size="9.9626" font-family="CMR10"><tspan y="-39.708" x="35.048 40.0293 45.0106">104</tspan></text>
<path transform="matrix(1,0,0,-1,42.52,42.519014)" d="M14.1734-184.25424H42.52019V-155.90746H14.1734Z" fill="#d2ffd2"/>
<text xml:space="preserve" transform="matrix(1 0 -0 1 0 255.51602)" font-size="9.9626" font-family="CMR10"><tspan y="-39.708" x="63.394 68.3753 73.3566">105</tspan></text>
<path transform="matrix(1,0,0,-1,42.52,42.519014)" d="M42.52022-184.25424H70.86701V-155.90746H42.52022Z" fill="#d2ffd2"/>
<text xml:space="preserve" transform="matrix(1 0 -0 1 0 255.51602)" font-size="9.9626" font-family="CMR10"><tspan y="-39.708" x="91.741 96.7223 101.7036">106</tspan></text>
<path transform="matrix(1,0,0,-1,42.52,42.519014)" d="M70.86702-184.25424H99.213809V-155.90746H70.86702Z" fill="#d2ffd2"/>
<text xml:space="preserve" transform="matrix(1 0 -0 1 .0000076293949 255.51602)" font-size="9.9626" font-family="CMR10"><tspan y="-39.708" x="120.087 125.0683 130.04959">107</tspan></text>
<path transform="matrix(1,0,0,-1,42.52,42.519014)" d="M99.21384-184.25424H127.56062V-155.90746H99.21384Z" fill="#d2ffd2"/>
<text xml:space="preserve" transform="matrix(1 0 -0 1 0 255.51602)" font-size="9.9626" font-family="CMR10"><tspan y="-39.708" x="148.433 153.41429 158.39559">108</tspan></text>
<path transform="matrix(1,0,0,-1,42.52,42.519014)" d="M127.56064-184.25424H155.90743V-155.90746H127.56064Z" fill="#d2ffd2"/>
<text xml:space="preserve" transform="matrix(1 0 -0 1 0 255.51602)" font-size="9.9626" font-family="CMR10"><tspan y="-39.708" x="176.78 181.76129 186.74259">109</tspan></text>
<path transform="matrix(1,0,0,-1,42.52,42.519014)" d="M155.90746-184.25424H184.25424V-155.90746H155.90746Z" fill="#d2ffd2"/>
<text xml:space="preserve" transform="matrix(1 0 -0 1 0 255.51602)" font-size="9.9626" font-family="CMR10"><tspan y="-39.708" x="205.126 210.1073 215.0886">110</tspan></text>
<path transform="matrix(1,0,0,-1,42.52,42.519014)" d="M184.25426-184.25424H212.60105V-155.90746H184.25426Z" fill="#d2ffd2"/>
<text xml:space="preserve" transform="matrix(1 0 -0 1 0 255.51602)" font-size="9.9626" font-family="CMR10"><tspan y="-39.708" x="233.473 238.4543 243.4356">111</tspan></text>
<path transform="matrix(1,0,0,-1,42.52,42.519014)" d="M212.60108-184.25424H240.94786V-155.90746H212.60108Z" fill="#d2d2ff"/>
<text xml:space="preserve" transform="matrix(1 0 -0 1 0 255.51602)" font-size="9.9626" font-family="CMR10"><tspan y="-39.708" x="264.31 269.2913">96</tspan></text>
<path transform="matrix(1,0,0,-1,42.52,42.519014)" d="M240.94789-184.25424H269.29469V-155.90746H240.94789Z" fill="#d2d2ff"/>
<text xml:space="preserve" transform="matrix(1 0 -0 1 0 255.51602)" font-size="9.9626" font-family="CMR10"><tspan y="-39.708" x="292.656 297.6373">97</tspan></text>
<path transform="matrix(1,0,0,-1,42.52,42.519014)" d="M269.2947-184.25424H297.6415V-155.90746H269.2947Z" fill="#d2d2ff"/>
<text xml:space="preserve" transform="matrix(1 0 -0 1 0 255.51602)" font-size="9.9626" font-family="CMR10"><tspan y="-39.708" x="321.003 325.98429">98</tspan></text>
<path transform="matrix(1,0,0,-1,42.52,42.519014)" d="M297.6415-184.25424H325.9883V-155.90746H297.6415Z" fill="#d2d2ff"/>
<text xml:space="preserve" transform="matrix(1 0 -0 1 0 255.51602)" font-size="9.9626" font-family="CMR10"><tspan y="-39.708" x="349.349 354.3303">99</tspan></text>
<path transform="matrix(1,0,0,-1,42.52,42.519014)" d="M325.9883-184.25424H354.3351V-155.90746H325.9883Z" fill="#d2d2ff"/>
<text xml:space="preserve" transform="matrix(1 0 -0 1 0 255.51602)" font-size="9.9626" font-family="CMR10"><tspan y="-39.708" x="375.205 380.18629 385.16758">100</tspan></text>
<path transform="matrix(1,0,0,-1,42.52,42.519014)" d="M354.33515-184.25424H382.68196V-155.90746H354.33515Z" fill="#d2d2ff"/>
<text xml:space="preserve" transform="matrix(1 0 -0 1 0 255.51602)" font-size="9.9626" font-family="CMR10"><tspan y="-39.708" x="403.551 408.5323 413.51359">101</tspan></text>
<path transform="matrix(1,0,0,-1,42.52,42.519014)" d="M382.68193-184.25424H411.02873V-155.90746H382.68193Z" fill="#d2d2ff"/>
<text xml:space="preserve" transform="matrix(1 0 -0 1 -.000030517579 255.51602)" font-size="9.9626" font-family="CMR10"><tspan y="-39.708" x="431.898 436.8793 441.8606">102</tspan></text>
<path transform="matrix(1,0,0,-1,42.52,42.519014)" d="M411.02876-184.25424H439.37556V-155.90746H411.02876Z" fill="#d2d2ff"/>
<text xml:space="preserve" transform="matrix(1 0 -0 1 0 255.51602)" font-size="9.9626" font-family="CMR10"><tspan y="-39.708" x="460.244 465.22529 470.20658">103</tspan></text>
<path transform="matrix(1,0,0,-1,42.52,42.519014)" d="M-14.17339-212.60106H14.1734V-184.25428H-14.17339Z" fill="#ffd2d2"/>
<text xml:space="preserve" transform="matrix(1 0 -0 1 0 255.516)" font-size="9.9626" font-family="CMR10"><tspan y="-11.362" x="35.048 40.0293 45.0106">120</tspan></text>
<path transform="matrix(1,0,0,-1,42.52,42.519014)" d="M14.1734-212.60106H42.52019V-184.25428H14.1734Z" fill="#ffd2d2"/>
<text xml:space="preserve" transform="matrix(1 0 -0 1 0 255.516)" font-size="9.9626" font-family="CMR10"><tspan y="-11.362" x="63.394 68.3753 73.3566">121</tspan></text>
<path transform="matrix(1,0,0,-1,42.52,42.519014)" d="M42.52022-212.60106H70.86701V-184.25428H42.52022Z" fill="#ffd2d2"/>
<text xml:space="preserve" transform="matrix(1 0 -0 1 0 255.516)" font-size="9.9626" font-family="CMR10"><tspan y="-11.362" x="91.741 96.7223 101.7036">122</tspan></text>
<path transform="matrix(1,0,0,-1,42.52,42.519014)" d="M70.86702-212.60106H99.213809V-184.25428H70.86702Z" fill="#ffd2d2"/>
<text xml:space="preserve" transform="matrix(1 0 -0 1 .0000076293949 255.516)" font-size="9.9626" font-family="CMR10"><tspan y="-11.362" x="120.087 125.0683 130.04959">123</tspan></text>
<path transform="matrix(1,0,0,-1,42.52,42.519014)" d="M99.21384-212.60106H127.56062V-184.25428H99.21384Z" fill="#ffd2d2"/>
<text xml:space="preserve" transform="matrix(1 0 -0 1 0 255.516)" font-size="9.9626" font-family="CMR10"><tspan y="-11.362" x="148.433 153.41429 158.39559">124</tspan></text>
<path transform="matrix(1,0,0,-1,42.52,42.519014)" d="M127.56064-212.60106H155.90743V-184.25428H127.56064Z" fill="#ffd2d2"/>
<text xml:space="preserve" transform="matrix(1 0 -0 1 0 255.516)" font-size="9.9626" font-family="CMR10"><tspan y="-11.362" x="176.78 181.76129 186.74259">125</tspan></text>
<path transform="matrix(1,0,0,-1,42.52,42.519014)" d="M155.90746-212.60106H184.25424V-184.25428H155.90746Z" fill="#ffd2d2"/>
<text xml:space="preserve" transform="matrix(1 0 -0 1 0 255.516)" font-size="9.9626" font-family="CMR10"><tspan y="-11.362" x="205.126 210.1073 215.0886">126</tspan></text>
<path transform="matrix(1,0,0,-1,42.52,42.519014)" d="M184.25426-212.60106H212.60105V-184.25428H184.25426Z" fill="#ffd2d2"/>
<text xml:space="preserve" transform="matrix(1 0 -0 1 0 255.516)" font-size="9.9626" font-family="CMR10"><tspan y="-11.362" x="233.473 238.4543 243.4356">127</tspan></text>
<path transform="matrix(1,0,0,-1,42.52,42.519014)" d="M212.60108-212.60106H240.94786V-184.25428H212.60108Z" fill="#ffffd2"/>
<text xml:space="preserve" transform="matrix(1 0 -0 1 0 255.516)" font-size="9.9626" font-family="CMR10"><tspan y="-11.362" x="261.819 266.8003 271.7816">112</tspan></text>
<path transform="matrix(1,0,0,-1,42.52,42.519014)" d="M240.94789-212.60106H269.29469V-184.25428H240.94789Z" fill="#ffffd2"/>
<text xml:space="preserve" transform="matrix(1 0 -0 1 0 255.516)" font-size="9.9626" font-family="CMR10"><tspan y="-11.362" x="290.166 295.14729 300.12858">113</tspan></text>
<path transform="matrix(1,0,0,-1,42.52,42.519014)" d="M269.2947-212.60106H297.6415V-184.25428H269.2947Z" fill="#ffffd2"/>
<text xml:space="preserve" transform="matrix(1 0 -0 1 0 255.516)" font-size="9.9626" font-family="CMR10"><tspan y="-11.362" x="318.512 323.4933 328.47459">114</tspan></text>
<path transform="matrix(1,0,0,-1,42.52,42.519014)" d="M297.6415-212.60106H325.9883V-184.25428H297.6415Z" fill="#ffffd2"/>
<text xml:space="preserve" transform="matrix(1 0 -0 1 -.000030517579 255.516)" font-size="9.9626" font-family="CMR10"><tspan y="-11.362" x="346.859 351.8403 356.8216">115</tspan></text>
<path transform="matrix(1,0,0,-1,42.52,42.519014)" d="M325.9883-212.60106H354.3351V-184.25428H325.9883Z" fill="#ffffd2"/>
<text xml:space="preserve" transform="matrix(1 0 -0 1 0 255.516)" font-size="9.9626" font-family="CMR10"><tspan y="-11.362" x="375.205 380.18629 385.16758">116</tspan></text>
<path transform="matrix(1,0,0,-1,42.52,42.519014)" d="M354.33515-212.60106H382.68196V-184.25428H354.33515Z" fill="#ffffd2"/>
<text xml:space="preserve" transform="matrix(1 0 -0 1 0 255.516)" font-size="9.9626" font-family="CMR10"><tspan y="-11.362" x="403.551 408.5323 413.51359">117</tspan></text>
<path transform="matrix(1,0,0,-1,42.52,42.519014)" d="M382.68193-212.60106H411.02873V-184.25428H382.68193Z" fill="#ffffd2"/>
<text xml:space="preserve" transform="matrix(1 0 -0 1 -.000030517579 255.516)" font-size="9.9626" font-family="CMR10"><tspan y="-11.362" x="431.898 436.8793 441.8606">118</tspan></text>
<path transform="matrix(1,0,0,-1,42.52,42.519014)" d="M411.02876-212.60106H439.37556V-184.25428H411.02876Z" fill="#ffffd2"/>
<text xml:space="preserve" transform="matrix(1 0 -0 1 0 255.516)" font-size="9.9626" font-family="CMR10"><tspan y="-11.362" x="460.244 465.22529 470.20658">119</tspan></text>
<path transform="matrix(1,0,0,-1,42.52,42.519014)" stroke-width=".79701" stroke-linecap="butt" stroke-miterlimit="10" stroke-linejoin="miter" fill="none" stroke="#000000" d="M-14.17339-212.60108H439.37556M-14.17339-184.25426H439.37556M-14.17339-155.90746H439.37556M-14.17339-127.56064H439.37556M-14.17339-99.21384H439.37556M-14.17339-70.86702H439.37556M-14.17339-42.52022H439.37556M-14.17339-14.1734H439.37556M-14.17339 14.16344H439.37556M-14.17339-212.60108V14.17339M14.1734-212.60108V14.17339M42.52022-212.60108V14.17339M70.86702-212.60108V14.17339M99.21384-212.60108V14.17339M127.56064-212.60108V14.17339M155.90746-212.60108V14.17339M184.25426-212.60108V14.17339M212.60108-212.60108V14.17339M240.94789-212.60108V14.17339M269.2947-212.60108V14.17339M297.6415-212.60108V14.17339M325.9883-212.60108V14.17339M354.33515-212.60108V14.17339M382.68193-212.60108V14.17339M411.02876-212.60108V14.17339M439.3656-212.60108V14.17339M439.37556-212.60108"/>
<text xml:space="preserve" transform="matrix(1 0 -0 1 .0000019073487 255.51602)" font-size="14.3462" font-family="CMTT12"><tspan y="-208.613" x="10.482">0</tspan></text>
<text xml:space="preserve" transform="matrix(1 0 -0 1 .0000019073487 255.516)" font-size="14.3462" font-family="CMTT12"><tspan y="-180.267" x="10.482">1</tspan></text>
<text xml:space="preserve" transform="matrix(1 0 -0 1 .0000019073487 255.51602)" font-size="14.3462" font-family="CMTT12"><tspan y="-151.921" x="10.482">2</tspan></text>
<text xml:space="preserve" transform="matrix(1 0 -0 1 .0000019073487 255.51602)" font-size="14.3462" font-family="CMTT12"><tspan y="-123.574" x="10.482">3</tspan></text>
<text xml:space="preserve" transform="matrix(1 0 -0 1 .0000019073487 255.516)" font-size="14.3462" font-family="CMTT12"><tspan y="-95.228" x="10.482">4</tspan></text>
<text xml:space="preserve" transform="matrix(1 0 -0 1 .0000019073487 255.516)" font-size="14.3462" font-family="CMTT12"><tspan y="-66.881" x="10.482">5</tspan></text>
<text xml:space="preserve" transform="matrix(1 0 -0 1 .0000019073487 255.51602)" font-size="14.3462" font-family="CMTT12"><tspan y="-38.535" x="10.482">6</tspan></text>
<text xml:space="preserve" transform="matrix(1 0 -0 1 .0000019073487 255.51602)" font-size="14.3462" font-family="CMTT12"><tspan y="-10.188" x="10.482">7</tspan></text>
<text xml:space="preserve" transform="matrix(1 0 -0 1 0 255.51602)" font-size="14.3462" font-family="CMTT12"><tspan y="-236.96" x="38.828">0</tspan></text>
<text xml:space="preserve" transform="matrix(1 0 -0 1 0 255.51602)" font-size="14.3462" font-family="CMTT12"><tspan y="-236.96" x="67.175">1</tspan></text>
<text xml:space="preserve" transform="matrix(1 0 -0 1 -.0000076293949 255.51602)" font-size="14.3462" font-family="CMTT12"><tspan y="-236.96" x="95.521">2</tspan></text>
<text xml:space="preserve" transform="matrix(1 0 -0 1 0 255.51602)" font-size="14.3462" font-family="CMTT12"><tspan y="-236.96" x="123.868">3</tspan></text>
<text xml:space="preserve" transform="matrix(1 0 -0 1 0 255.51602)" font-size="14.3462" font-family="CMTT12"><tspan y="-236.96" x="152.214">4</tspan></text>
<text xml:space="preserve" transform="matrix(1 0 -0 1 0 255.51602)" font-size="14.3462" font-family="CMTT12"><tspan y="-236.96" x="180.561">5</tspan></text>
<text xml:space="preserve" transform="matrix(1 0 -0 1 0 255.51602)" font-size="14.3462" font-family="CMTT12"><tspan y="-236.96" x="208.907">6</tspan></text>
<text xml:space="preserve" transform="matrix(1 0 -0 1 0 255.51602)" font-size="14.3462" font-family="CMTT12"><tspan y="-236.96" x="237.254">7</tspan></text>
<text xml:space="preserve" transform="matrix(1 0 -0 1 0 255.51602)" font-size="14.3462" font-family="CMTT12"><tspan y="-236.96" x="265.6">8</tspan></text>
<text xml:space="preserve" transform="matrix(1 0 -0 1 0 255.51602)" font-size="14.3462" font-family="CMTT12"><tspan y="-236.96" x="293.947">9</tspan></text>
<text xml:space="preserve" transform="matrix(1 0 -0 1 0 255.51602)" font-size="14.3462" font-family="CMTT12"><tspan y="-236.96" x="318.602 325.9903">10</tspan></text>
<text xml:space="preserve" transform="matrix(1 0 -0 1 0 255.51602)" font-size="14.3462" font-family="CMTT12"><tspan y="-236.96" x="346.948 354.3363">11</tspan></text>
<text xml:space="preserve" transform="matrix(1 0 -0 1 -.000030517579 255.51602)" font-size="14.3462" font-family="CMTT12"><tspan y="-236.96" x="375.295 382.68333">12</tspan></text>
<text xml:space="preserve" transform="matrix(1 0 -0 1 0 255.51602)" font-size="14.3462" font-family="CMTT12"><tspan y="-236.96" x="403.641 411.0293">13</tspan></text>
<text xml:space="preserve" transform="matrix(1 0 -0 1 -.000030517579 255.51602)" font-size="14.3462" font-family="CMTT12"><tspan y="-236.96" x="431.988 439.3763">14</tspan></text>
<text xml:space="preserve" transform="matrix(1 0 -0 1 -.000030517579 255.51602)" font-size="14.3462" font-family="CMTT12"><tspan y="-236.96" x="460.334 467.72233">15</tspan></text>
</svg>
