<svg xmlns="http://www.w3.org/2000/svg" xmlns:xlink="http://www.w3.org/1999/xlink" xmlns:inkscape="http://www.inkscape.org/namespaces/inkscape" version="1.1" width="482.288" height="482.288" viewBox="0 0 482.288 482.288">
<path transform="matrix(1,0,0,-1,42.52,42.51999)" d="M-14.17339-14.17339H14.1734V14.1734H-14.17339Z" fill="#afafff"/>
<text xml:space="preserve" transform="matrix(1 0 -0 1 0 482.288)" font-size="9.9626" font-family="CMR10"><tspan y="-436.558" x="40.029">0</tspan></text>
<path transform="matrix(1,0,0,-1,42.52,42.51999)" d="M14.1734-14.17339H42.52019V14.1734H14.1734Z" fill="#ffffaf"/>
<text xml:space="preserve" transform="matrix(1 0 -0 1 0 482.288)" font-size="9.9626" font-family="CMR10"><tspan y="-436.558" x="65.885 70.8663">16</tspan></text>
<path transform="matrix(1,0,0,-1,42.52,42.51999)" d="M42.52022-14.17339H70.86701V14.1734H42.52022Z" fill="#d2d2ff"/>
<text xml:space="preserve" transform="matrix(1 0 -0 1 0 482.288)" font-size="9.9626" font-family="CMR10"><tspan y="-436.558" x="94.231 99.2123">32</tspan></text>
<path transform="matrix(1,0,0,-1,42.52,42.51999)" d="M70.86702-14.17339H99.213809V14.1734H70.86702Z" fill="#ffffd2"/>
<text xml:space="preserve" transform="matrix(1 0 -0 1 0 482.288)" font-size="9.9626" font-family="CMR10"><tspan y="-436.558" x="122.578 127.5593">48</tspan></text>
<path transform="matrix(1,0,0,-1,42.52,42.51999)" d="M99.21384-14.17339H127.56062V14.1734H99.21384Z" fill="#afffaf"/>
<text xml:space="preserve" transform="matrix(1 0 -0 1 0 482.288)" font-size="9.9626" font-family="CMR10"><tspan y="-436.558" x="150.924 155.90529">72</tspan></text>
<path transform="matrix(1,0,0,-1,42.52,42.51999)" d="M127.56064-14.17339H155.90743V14.1734H127.56064Z" fill="#ffafaf"/>
<text xml:space="preserve" transform="matrix(1 0 -0 1 .000015258789 482.288)" font-size="9.9626" font-family="CMR10"><tspan y="-436.558" x="179.271 184.25229">88</tspan></text>
<path transform="matrix(1,0,0,-1,42.52,42.51999)" d="M155.90746-14.17339H184.25424V14.1734H155.90746Z" fill="#d2ffd2"/>
<text xml:space="preserve" transform="matrix(1 0 -0 1 0 482.288)" font-size="9.9626" font-family="CMR10"><tspan y="-436.558" x="205.126 210.1073 215.0886">104</tspan></text>
<path transform="matrix(1,0,0,-1,42.52,42.51999)" d="M184.25426-14.17339H212.60105V14.1734H184.25426Z" fill="#ffd2d2"/>
<text xml:space="preserve" transform="matrix(1 0 -0 1 0 482.288)" font-size="9.9626" font-family="CMR10"><tspan y="-436.558" x="233.473 238.4543 243.4356">120</tspan></text>
<path transform="matrix(1,0,0,-1,42.52,42.51999)" d="M212.60108-14.17339H240.94786V14.1734H212.60108Z" fill="#afafff"/>
<text xml:space="preserve" transform="matrix(1 0 -0 1 0 482.288)" font-size="9.9626" font-family="CMR10"><tspan y="-436.558" x="261.819 266.8003 271.7816">128</tspan></text>
<path transform="matrix(1,0,0,-1,42.52,42.51999)" d="M240.94789-14.17339H269.29469V14.1734H240.94789Z" fill="#ffffaf"/>
<text xml:space="preserve" transform="matrix(1 0 -0 1 0 482.288)" font-size="9.9626" font-family="CMR10"><tspan y="-436.558" x="290.166 295.14729 300.12858">144</tspan></text>
<path transform="matrix(1,0,0,-1,42.52,42.51999)" d="M269.2947-14.17339H297.6415V14.1734H269.2947Z" fill="#d2d2ff"/>
<text xml:space="preserve" transform="matrix(1 0 -0 1 0 482.288)" font-size="9.9626" font-family="CMR10"><tspan y="-436.558" x="318.512 323.4933 328.47459">160</tspan></text>
<path transform="matrix(1,0,0,-1,42.52,42.51999)" d="M297.6415-14.17339H325.9883V14.1734H297.6415Z" fill="#ffffd2"/>
<text xml:space="preserve" transform="matrix(1 0 -0 1 -.000030517579 482.288)" font-size="9.9626" font-family="CMR10"><tspan y="-436.558" x="346.859 351.8403 356.8216">176</tspan></text>
<path transform="matrix(1,0,0,-1,42.52,42.51999)" d="M325.9883-14.17339H354.3351V14.1734H325.9883Z" fill="#afffaf"/>
<text xml:space="preserve" transform="matrix(1 0 -0 1 0 482.288)" font-size="9.9626" font-family="CMR10"><tspan y="-436.558" x="375.205 380.18629 385.16758">200</tspan></text>
<path transform="matrix(1,0,0,-1,42.52,42.51999)" d="M354.33515-14.17339H382.68196V14.1734H354.33515Z" fill="#ffafaf"/>
<text xml:space="preserve" transform="matrix(1 0 -0 1 0 482.288)" font-size="9.9626" font-family="CMR10"><tspan y="-436.558" x="403.551 408.5323 413.51359">216</tspan></text>
<path transform="matrix(1,0,0,-1,42.52,42.51999)" d="M382.68193-14.17339H411.02873V14.1734H382.68193Z" fill="#d2ffd2"/>
<text xml:space="preserve" transform="matrix(1 0 -0 1 -.000030517579 482.288)" font-size="9.9626" font-family="CMR10"><tspan y="-436.558" x="431.898 436.8793 441.8606">232</tspan></text>
<path transform="matrix(1,0,0,-1,42.52,42.51999)" d="M411.02876-14.17339H439.37556V14.1734H411.02876Z" fill="#ffd2d2"/>
<text xml:space="preserve" transform="matrix(1 0 -0 1 0 482.288)" font-size="9.9626" font-family="CMR10"><tspan y="-436.558" x="460.244 465.22529 470.20658">248</tspan></text>
<path transform="matrix(1,0,0,-1,42.52,42.51999)" d="M-14.17339-42.5202H14.1734V-14.1734089H-14.17339Z" fill="#afafff"/>
<text xml:space="preserve" transform="matrix(1 0 -0 1 0 482.288)" font-size="9.9626" font-family="CMR10"><tspan y="-408.212" x="40.029">1</tspan></text>
<path transform="matrix(1,0,0,-1,42.52,42.51999)" d="M14.1734-42.5202H42.52019V-14.1734089H14.1734Z" fill="#ffffaf"/>
<text xml:space="preserve" transform="matrix(1 0 -0 1 0 482.288)" font-size="9.9626" font-family="CMR10"><tspan y="-408.212" x="65.885 70.8663">17</tspan></text>
<path transform="matrix(1,0,0,-1,42.52,42.51999)" d="M42.52022-42.5202H70.86701V-14.1734089H42.52022Z" fill="#d2d2ff"/>
<text xml:space="preserve" transform="matrix(1 0 -0 1 0 482.288)" font-size="9.9626" font-family="CMR10"><tspan y="-408.212" x="94.231 99.2123">33</tspan></text>
<path transform="matrix(1,0,0,-1,42.52,42.51999)" d="M70.86702-42.5202H99.213809V-14.1734089H70.86702Z" fill="#ffffd2"/>
<text xml:space="preserve" transform="matrix(1 0 -0 1 0 482.288)" font-size="9.9626" font-family="CMR10"><tspan y="-408.212" x="122.578 127.5593">49</tspan></text>
<path transform="matrix(1,0,0,-1,42.52,42.51999)" d="M99.21384-42.5202H127.56062V-14.1734089H99.21384Z" fill="#afffaf"/>
<text xml:space="preserve" transform="matrix(1 0 -0 1 0 482.288)" font-size="9.9626" font-family="CMR10"><tspan y="-408.212" x="150.924 155.90529">73</tspan></text>
<path transform="matrix(1,0,0,-1,42.52,42.51999)" d="M127.56064-42.5202H155.90743V-14.1734089H127.56064Z" fill="#ffafaf"/>
<text xml:space="preserve" transform="matrix(1 0 -0 1 .000015258789 482.288)" font-size="9.9626" font-family="CMR10"><tspan y="-408.212" x="179.271 184.25229">89</tspan></text>
<path transform="matrix(1,0,0,-1,42.52,42.51999)" d="M155.90746-42.5202H184.25424V-14.1734089H155.90746Z" fill="#d2ffd2"/>
<text xml:space="preserve" transform="matrix(1 0 -0 1 0 482.288)" font-size="9.9626" font-family="CMR10"><tspan y="-408.212" x="205.126 210.1073 215.0886">105</tspan></text>
<path transform="matrix(1,0,0,-1,42.52,42.51999)" d="M184.25426-42.5202H212.60105V-14.1734089H184.25426Z" fill="#ffd2d2"/>
<text xml:space="preserve" transform="matrix(1 0 -0 1 0 482.288)" font-size="9.9626" font-family="CMR10"><tspan y="-408.212" x="233.473 238.4543 243.4356">121</tspan></text>
<path transform="matrix(1,0,0,-1,42.52,42.51999)" d="M212.60108-42.5202H240.94786V-14.1734089H212.60108Z" fill="#afafff"/>
<text xml:space="preserve" transform="matrix(1 0 -0 1 0 482.288)" font-size="9.9626" font-family="CMR10"><tspan y="-408.212" x="261.819 266.8003 271.7816">129</tspan></text>
<path transform="matrix(1,0,0,-1,42.52,42.51999)" d="M240.94789-42.5202H269.29469V-14.1734089H240.94789Z" fill="#ffffaf"/>
<text xml:space="preserve" transform="matrix(1 0 -0 1 0 482.288)" font-size="9.9626" font-family="CMR10"><tspan y="-408.212" x="290.166 295.14729 300.12858">145</tspan></text>
<path transform="matrix(1,0,0,-1,42.52,42.51999)" d="M269.2947-42.5202H297.6415V-14.1734089H269.2947Z" fill="#d2d2ff"/>
<text xml:space="preserve" transform="matrix(1 0 -0 1 0 482.288)" font-size="9.9626" font-family="CMR10"><tspan y="-408.212" x="318.512 323.4933 328.47459">161</tspan></text>
<path transform="matrix(1,0,0,-1,42.52,42.51999)" d="M297.6415-42.5202H325.9883V-14.1734089H297.6415Z" fill="#ffffd2"/>
<text xml:space="preserve" transform="matrix(1 0 -0 1 -.000030517579 482.288)" font-size="9.9626" font-family="CMR10"><tspan y="-408.212" x="346.859 351.8403 356.8216">177</tspan></text>
<path transform="matrix(1,0,0,-1,42.52,42.51999)" d="M325.9883-42.5202H354.3351V-14.1734089H325.9883Z" fill="#afffaf"/>
<text xml:space="preserve" transform="matrix(1 0 -0 1 0 482.288)" font-size="9.9626" font-family="CMR10"><tspan y="-408.212" x="375.205 380.18629 385.16758">201</tspan></text>
<path transform="matrix(1,0,0,-1,42.52,42.51999)" d="M354.33515-42.5202H382.68196V-14.1734089H354.33515Z" fill="#ffafaf"/>
<text xml:space="preserve" transform="matrix(1 0 -0 1 0 482.288)" font-size="9.9626" font-family="CMR10"><tspan y="-408.212" x="403.551 408.5323 413.51359">217</tspan></text>
<path transform="matrix(1,0,0,-1,42.52,42.51999)" d="M382.68193-42.5202H411.02873V-14.1734089H382.68193Z" fill="#d2ffd2"/>
<text xml:space="preserve" transform="matrix(1 0 -0 1 -.000030517579 482.288)" font-size="9.9626" font-family="CMR10"><tspan y="-408.212" x="431.898 436.8793 441.8606">233</tspan></text>
<path transform="matrix(1,0,0,-1,42.52,42.51999)" d="M411.02876-42.5202H439.37556V-14.1734089H411.02876Z" fill="#ffd2d2"/>
<text xml:space="preserve" transform="matrix(1 0 -0 1 0 482.288)" font-size="9.9626" font-family="CMR10"><tspan y="-408.212" x="460.244 465.22529 470.20658">249</tspan></text>
<path transform="matrix(1,0,0,-1,42.52,42.51999)" d="M-14.17339-70.867H14.1734V-42.520208H-14.17339Z" fill="#afafff"/>
<text xml:space="preserve" transform="matrix(1 0 -0 1 0 482.28797)" font-size="9.9626" font-family="CMR10"><tspan y="-379.865" x="40.029">2</tspan></text>
<path transform="matrix(1,0,0,-1,42.52,42.51999)" d="M14.1734-70.867H42.52019V-42.520208H14.1734Z" fill="#ffffaf"/>
<text xml:space="preserve" transform="matrix(1 0 -0 1 0 482.28797)" font-size="9.9626" font-family="CMR10"><tspan y="-379.865" x="65.885 70.8663">18</tspan></text>
<path transform="matrix(1,0,0,-1,42.52,42.51999)" d="M42.52022-70.867H70.86701V-42.520208H42.52022Z" fill="#d2d2ff"/>
<text xml:space="preserve" transform="matrix(1 0 -0 1 0 482.28797)" font-size="9.9626" font-family="CMR10"><tspan y="-379.865" x="94.231 99.2123">34</tspan></text>
<path transform="matrix(1,0,0,-1,42.52,42.51999)" d="M70.86702-70.867H99.213809V-42.520208H70.86702Z" fill="#ffffd2"/>
<text xml:space="preserve" transform="matrix(1 0 -0 1 0 482.28797)" font-size="9.9626" font-family="CMR10"><tspan y="-379.865" x="122.578 127.5593">50</tspan></text>
<path transform="matrix(1,0,0,-1,42.52,42.51999)" d="M99.21384-70.867H127.56062V-42.520208H99.21384Z" fill="#afffaf"/>
<text xml:space="preserve" transform="matrix(1 0 -0 1 0 482.28797)" font-size="9.9626" font-family="CMR10"><tspan y="-379.865" x="150.924 155.90529">74</tspan></text>
<path transform="matrix(1,0,0,-1,42.52,42.51999)" d="M127.56064-70.867H155.90743V-42.520208H127.56064Z" fill="#ffafaf"/>
<text xml:space="preserve" transform="matrix(1 0 -0 1 .000015258789 482.28797)" font-size="9.9626" font-family="CMR10"><tspan y="-379.865" x="179.271 184.25229">90</tspan></text>
<path transform="matrix(1,0,0,-1,42.52,42.51999)" d="M155.90746-70.867H184.25424V-42.520208H155.90746Z" fill="#d2ffd2"/>
<text xml:space="preserve" transform="matrix(1 0 -0 1 0 482.28797)" font-size="9.9626" font-family="CMR10"><tspan y="-379.865" x="205.126 210.1073 215.0886">106</tspan></text>
<path transform="matrix(1,0,0,-1,42.52,42.51999)" d="M184.25426-70.867H212.60105V-42.520208H184.25426Z" fill="#ffd2d2"/>
<text xml:space="preserve" transform="matrix(1 0 -0 1 0 482.28797)" font-size="9.9626" font-family="CMR10"><tspan y="-379.865" x="233.473 238.4543 243.4356">122</tspan></text>
<path transform="matrix(1,0,0,-1,42.52,42.51999)" d="M212.60108-70.867H240.94786V-42.520208H212.60108Z" fill="#afafff"/>
<text xml:space="preserve" transform="matrix(1 0 -0 1 0 482.28797)" font-size="9.9626" font-family="CMR10"><tspan y="-379.865" x="261.819 266.8003 271.7816">130</tspan></text>
<path transform="matrix(1,0,0,-1,42.52,42.51999)" d="M240.94789-70.867H269.29469V-42.520208H240.94789Z" fill="#ffffaf"/>
<text xml:space="preserve" transform="matrix(1 0 -0 1 0 482.28797)" font-size="9.9626" font-family="CMR10"><tspan y="-379.865" x="290.166 295.14729 300.12858">146</tspan></text>
<path transform="matrix(1,0,0,-1,42.52,42.51999)" d="M269.2947-70.867H297.6415V-42.520208H269.2947Z" fill="#d2d2ff"/>
<text xml:space="preserve" transform="matrix(1 0 -0 1 0 482.28797)" font-size="9.9626" font-family="CMR10"><tspan y="-379.865" x="318.512 323.4933 328.47459">162</tspan></text>
<path transform="matrix(1,0,0,-1,42.52,42.51999)" d="M297.6415-70.867H325.9883V-42.520208H297.6415Z" fill="#ffffd2"/>
<text xml:space="preserve" transform="matrix(1 0 -0 1 -.000030517579 482.28797)" font-size="9.9626" font-family="CMR10"><tspan y="-379.865" x="346.859 351.8403 356.8216">178</tspan></text>
<path transform="matrix(1,0,0,-1,42.52,42.51999)" d="M325.9883-70.867H354.3351V-42.520208H325.9883Z" fill="#afffaf"/>
<text xml:space="preserve" transform="matrix(1 0 -0 1 0 482.28797)" font-size="9.9626" font-family="CMR10"><tspan y="-379.865" x="375.205 380.18629 385.16758">202</tspan></text>
<path transform="matrix(1,0,0,-1,42.52,42.51999)" d="M354.33515-70.867H382.68196V-42.520208H354.33515Z" fill="#ffafaf"/>
<text xml:space="preserve" transform="matrix(1 0 -0 1 0 482.28797)" font-size="9.9626" font-family="CMR10"><tspan y="-379.865" x="403.551 408.5323 413.51359">218</tspan></text>
<path transform="matrix(1,0,0,-1,42.52,42.51999)" d="M382.68193-70.867H411.02873V-42.520208H382.68193Z" fill="#d2ffd2"/>
<text xml:space="preserve" transform="matrix(1 0 -0 1 -.000030517579 482.28797)" font-size="9.9626" font-family="CMR10"><tspan y="-379.865" x="431.898 436.8793 441.8606">234</tspan></text>
<path transform="matrix(1,0,0,-1,42.52,42.51999)" d="M411.02876-70.867H439.37556V-42.520208H411.02876Z" fill="#ffd2d2"/>
<text xml:space="preserve" transform="matrix(1 0 -0 1 0 482.28797)" font-size="9.9626" font-family="CMR10"><tspan y="-379.865" x="460.244 465.22529 470.20658">250</tspan></text>
<path transform="matrix(1,0,0,-1,42.52,42.51999)" d="M-14.17339-99.21382H14.1734V-70.867038H-14.17339Z" fill="#afafff"/>
<text xml:space="preserve" transform="matrix(1 0 -0 1 0 482.288)" font-size="9.9626" font-family="CMR10"><tspan y="-351.519" x="40.029">3</tspan></text>
<path transform="matrix(1,0,0,-1,42.52,42.51999)" d="M14.1734-99.21382H42.52019V-70.867038H14.1734Z" fill="#ffffaf"/>
<text xml:space="preserve" transform="matrix(1 0 -0 1 0 482.288)" font-size="9.9626" font-family="CMR10"><tspan y="-351.519" x="65.885 70.8663">19</tspan></text>
<path transform="matrix(1,0,0,-1,42.52,42.51999)" d="M42.52022-99.21382H70.86701V-70.867038H42.52022Z" fill="#d2d2ff"/>
<text xml:space="preserve" transform="matrix(1 0 -0 1 0 482.288)" font-size="9.9626" font-family="CMR10"><tspan y="-351.519" x="94.231 99.2123">35</tspan></text>
<path transform="matrix(1,0,0,-1,42.52,42.51999)" d="M70.86702-99.21382H99.213809V-70.867038H70.86702Z" fill="#ffffd2"/>
<text xml:space="preserve" transform="matrix(1 0 -0 1 0 482.288)" font-size="9.9626" font-family="CMR10"><tspan y="-351.519" x="122.578 127.5593">51</tspan></text>
<path transform="matrix(1,0,0,-1,42.52,42.51999)" d="M99.21384-99.21382H127.56062V-70.867038H99.21384Z" fill="#afffaf"/>
<text xml:space="preserve" transform="matrix(1 0 -0 1 0 482.288)" font-size="9.9626" font-family="CMR10"><tspan y="-351.519" x="150.924 155.90529">75</tspan></text>
<path transform="matrix(1,0,0,-1,42.52,42.51999)" d="M127.56064-99.21382H155.90743V-70.867038H127.56064Z" fill="#ffafaf"/>
<text xml:space="preserve" transform="matrix(1 0 -0 1 .000015258789 482.288)" font-size="9.9626" font-family="CMR10"><tspan y="-351.519" x="179.271 184.25229">91</tspan></text>
<path transform="matrix(1,0,0,-1,42.52,42.51999)" d="M155.90746-99.21382H184.25424V-70.867038H155.90746Z" fill="#d2ffd2"/>
<text xml:space="preserve" transform="matrix(1 0 -0 1 0 482.288)" font-size="9.9626" font-family="CMR10"><tspan y="-351.519" x="205.126 210.1073 215.0886">107</tspan></text>
<path transform="matrix(1,0,0,-1,42.52,42.51999)" d="M184.25426-99.21382H212.60105V-70.867038H184.25426Z" fill="#ffd2d2"/>
<text xml:space="preserve" transform="matrix(1 0 -0 1 0 482.288)" font-size="9.9626" font-family="CMR10"><tspan y="-351.519" x="233.473 238.4543 243.4356">123</tspan></text>
<path transform="matrix(1,0,0,-1,42.52,42.51999)" d="M212.60108-99.21382H240.94786V-70.867038H212.60108Z" fill="#afafff"/>
<text xml:space="preserve" transform="matrix(1 0 -0 1 0 482.288)" font-size="9.9626" font-family="CMR10"><tspan y="-351.519" x="261.819 266.8003 271.7816">131</tspan></text>
<path transform="matrix(1,0,0,-1,42.52,42.51999)" d="M240.94789-99.21382H269.29469V-70.867038H240.94789Z" fill="#ffffaf"/>
<text xml:space="preserve" transform="matrix(1 0 -0 1 0 482.288)" font-size="9.9626" font-family="CMR10"><tspan y="-351.519" x="290.166 295.14729 300.12858">147</tspan></text>
<path transform="matrix(1,0,0,-1,42.52,42.51999)" d="M269.2947-99.21382H297.6415V-70.867038H269.2947Z" fill="#d2d2ff"/>
<text xml:space="preserve" transform="matrix(1 0 -0 1 0 482.288)" font-size="9.9626" font-family="CMR10"><tspan y="-351.519" x="318.512 323.4933 328.47459">163</tspan></text>
<path transform="matrix(1,0,0,-1,42.52,42.51999)" d="M297.6415-99.21382H325.9883V-70.867038H297.6415Z" fill="#ffffd2"/>
<text xml:space="preserve" transform="matrix(1 0 -0 1 -.000030517579 482.288)" font-size="9.9626" font-family="CMR10"><tspan y="-351.519" x="346.859 351.8403 356.8216">179</tspan></text>
<path transform="matrix(1,0,0,-1,42.52,42.51999)" d="M325.9883-99.21382H354.3351V-70.867038H325.9883Z" fill="#afffaf"/>
<text xml:space="preserve" transform="matrix(1 0 -0 1 0 482.288)" font-size="9.9626" font-family="CMR10"><tspan y="-351.519" x="375.205 380.18629 385.16758">203</tspan></text>
<path transform="matrix(1,0,0,-1,42.52,42.51999)" d="M354.33515-99.21382H382.68196V-70.867038H354.33515Z" fill="#ffafaf"/>
<text xml:space="preserve" transform="matrix(1 0 -0 1 0 482.288)" font-size="9.9626" font-family="CMR10"><tspan y="-351.519" x="403.551 408.5323 413.51359">219</tspan></text>
<path transform="matrix(1,0,0,-1,42.52,42.51999)" d="M382.68193-99.21382H411.02873V-70.867038H382.68193Z" fill="#d2ffd2"/>
<text xml:space="preserve" transform="matrix(1 0 -0 1 -.000030517579 482.288)" font-size="9.9626" font-family="CMR10"><tspan y="-351.519" x="431.898 436.8793 441.8606">235</tspan></text>
<path transform="matrix(1,0,0,-1,42.52,42.51999)" d="M411.02876-99.21382H439.37556V-70.867038H411.02876Z" fill="#ffd2d2"/>
<text xml:space="preserve" transform="matrix(1 0 -0 1 0 482.288)" font-size="9.9626" font-family="CMR10"><tspan y="-351.519" x="460.244 465.22529 470.20658">251</tspan></text>
<path transform="matrix(1,0,0,-1,42.52,42.51999)" d="M-14.17339-127.56062H14.1734V-99.21384H-14.17339Z" fill="#afafff"/>
<text xml:space="preserve" transform="matrix(1 0 -0 1 0 482.288)" font-size="9.9626" font-family="CMR10"><tspan y="-323.172" x="40.029">4</tspan></text>
<path transform="matrix(1,0,0,-1,42.52,42.51999)" d="M14.1734-127.56062H42.52019V-99.21384H14.1734Z" fill="#ffffaf"/>
<text xml:space="preserve" transform="matrix(1 0 -0 1 0 482.288)" font-size="9.9626" font-family="CMR10"><tspan y="-323.172" x="65.885 70.8663">20</tspan></text>
<path transform="matrix(1,0,0,-1,42.52,42.51999)" d="M42.52022-127.56062H70.86701V-99.21384H42.52022Z" fill="#d2d2ff"/>
<text xml:space="preserve" transform="matrix(1 0 -0 1 0 482.288)" font-size="9.9626" font-family="CMR10"><tspan y="-323.172" x="94.231 99.2123">36</tspan></text>
<path transform="matrix(1,0,0,-1,42.52,42.51999)" d="M70.86702-127.56062H99.213809V-99.21384H70.86702Z" fill="#ffffd2"/>
<text xml:space="preserve" transform="matrix(1 0 -0 1 0 482.288)" font-size="9.9626" font-family="CMR10"><tspan y="-323.172" x="122.578 127.5593">52</tspan></text>
<path transform="matrix(1,0,0,-1,42.52,42.51999)" d="M99.21384-127.56062H127.56062V-99.21384H99.21384Z" fill="#afffaf"/>
<text xml:space="preserve" transform="matrix(1 0 -0 1 0 482.288)" font-size="9.9626" font-family="CMR10"><tspan y="-323.172" x="150.924 155.90529">76</tspan></text>
<path transform="matrix(1,0,0,-1,42.52,42.51999)" d="M127.56064-127.56062H155.90743V-99.21384H127.56064Z" fill="#ffafaf"/>
<text xml:space="preserve" transform="matrix(1 0 -0 1 .000015258789 482.288)" font-size="9.9626" font-family="CMR10"><tspan y="-323.172" x="179.271 184.25229">92</tspan></text>
<path transform="matrix(1,0,0,-1,42.52,42.51999)" d="M155.90746-127.56062H184.25424V-99.21384H155.90746Z" fill="#d2ffd2"/>
<text xml:space="preserve" transform="matrix(1 0 -0 1 0 482.288)" font-size="9.9626" font-family="CMR10"><tspan y="-323.172" x="205.126 210.1073 215.0886">108</tspan></text>
<path transform="matrix(1,0,0,-1,42.52,42.51999)" d="M184.25426-127.56062H212.60105V-99.21384H184.25426Z" fill="#ffd2d2"/>
<text xml:space="preserve" transform="matrix(1 0 -0 1 0 482.288)" font-size="9.9626" font-family="CMR10"><tspan y="-323.172" x="233.473 238.4543 243.4356">124</tspan></text>
<path transform="matrix(1,0,0,-1,42.52,42.51999)" d="M212.60108-127.56062H240.94786V-99.21384H212.60108Z" fill="#afafff"/>
<text xml:space="preserve" transform="matrix(1 0 -0 1 0 482.288)" font-size="9.9626" font-family="CMR10"><tspan y="-323.172" x="261.819 266.8003 271.7816">132</tspan></text>
<path transform="matrix(1,0,0,-1,42.52,42.51999)" d="M240.94789-127.56062H269.29469V-99.21384H240.94789Z" fill="#ffffaf"/>
<text xml:space="preserve" transform="matrix(1 0 -0 1 0 482.288)" font-size="9.9626" font-family="CMR10"><tspan y="-323.172" x="290.166 295.14729 300.12858">148</tspan></text>
<path transform="matrix(1,0,0,-1,42.52,42.51999)" d="M269.2947-127.56062H297.6415V-99.21384H269.2947Z" fill="#d2d2ff"/>
<text xml:space="preserve" transform="matrix(1 0 -0 1 0 482.288)" font-size="9.9626" font-family="CMR10"><tspan y="-323.172" x="318.512 323.4933 328.47459">164</tspan></text>
<path transform="matrix(1,0,0,-1,42.52,42.51999)" d="M297.6415-127.56062H325.9883V-99.21384H297.6415Z" fill="#ffffd2"/>
<text xml:space="preserve" transform="matrix(1 0 -0 1 -.000030517579 482.288)" font-size="9.9626" font-family="CMR10"><tspan y="-323.172" x="346.859 351.8403 356.8216">180</tspan></text>
<path transform="matrix(1,0,0,-1,42.52,42.51999)" d="M325.9883-127.56062H354.3351V-99.21384H325.9883Z" fill="#afffaf"/>
<text xml:space="preserve" transform="matrix(1 0 -0 1 0 482.288)" font-size="9.9626" font-family="CMR10"><tspan y="-323.172" x="375.205 380.18629 385.16758">204</tspan></text>
<path transform="matrix(1,0,0,-1,42.52,42.51999)" d="M354.33515-127.56062H382.68196V-99.21384H354.33515Z" fill="#ffafaf"/>
<text xml:space="preserve" transform="matrix(1 0 -0 1 0 482.288)" font-size="9.9626" font-family="CMR10"><tspan y="-323.172" x="403.551 408.5323 413.51359">220</tspan></text>
<path transform="matrix(1,0,0,-1,42.52,42.51999)" d="M382.68193-127.56062H411.02873V-99.21384H382.68193Z" fill="#d2ffd2"/>
<text xml:space="preserve" transform="matrix(1 0 -0 1 -.000030517579 482.288)" font-size="9.9626" font-family="CMR10"><tspan y="-323.172" x="431.898 436.8793 441.8606">236</tspan></text>
<path transform="matrix(1,0,0,-1,42.52,42.51999)" d="M411.02876-127.56062H439.37556V-99.21384H411.02876Z" fill="#ffd2d2"/>
<text xml:space="preserve" transform="matrix(1 0 -0 1 0 482.288)" font-size="9.9626" font-family="CMR10"><tspan y="-323.172" x="460.244 465.22529 470.20658">252</tspan></text>
<path transform="matrix(1,0,0,-1,42.52,42.51999)" d="M-14.17339-155.90744H14.1734V-127.56065H-14.17339Z" fill="#afafff"/>
<text xml:space="preserve" transform="matrix(1 0 -0 1 0 482.28797)" font-size="9.9626" font-family="CMR10"><tspan y="-294.826" x="40.029">5</tspan></text>
<path transform="matrix(1,0,0,-1,42.52,42.51999)" d="M14.1734-155.90744H42.52019V-127.56065H14.1734Z" fill="#ffffaf"/>
<text xml:space="preserve" transform="matrix(1 0 -0 1 0 482.28797)" font-size="9.9626" font-family="CMR10"><tspan y="-294.826" x="65.885 70.8663">21</tspan></text>
<path transform="matrix(1,0,0,-1,42.52,42.51999)" d="M42.52022-155.90744H70.86701V-127.56065H42.52022Z" fill="#d2d2ff"/>
<text xml:space="preserve" transform="matrix(1 0 -0 1 0 482.28797)" font-size="9.9626" font-family="CMR10"><tspan y="-294.826" x="94.231 99.2123">37</tspan></text>
<path transform="matrix(1,0,0,-1,42.52,42.51999)" d="M70.86702-155.90744H99.213809V-127.56065H70.86702Z" fill="#ffffd2"/>
<text xml:space="preserve" transform="matrix(1 0 -0 1 0 482.28797)" font-size="9.9626" font-family="CMR10"><tspan y="-294.826" x="122.578 127.5593">53</tspan></text>
<path transform="matrix(1,0,0,-1,42.52,42.51999)" d="M99.21384-155.90744H127.56062V-127.56065H99.21384Z" fill="#afffaf"/>
<text xml:space="preserve" transform="matrix(1 0 -0 1 0 482.28797)" font-size="9.9626" font-family="CMR10"><tspan y="-294.826" x="150.924 155.90529">77</tspan></text>
<path transform="matrix(1,0,0,-1,42.52,42.51999)" d="M127.56064-155.90744H155.90743V-127.56065H127.56064Z" fill="#ffafaf"/>
<text xml:space="preserve" transform="matrix(1 0 -0 1 .000015258789 482.28797)" font-size="9.9626" font-family="CMR10"><tspan y="-294.826" x="179.271 184.25229">93</tspan></text>
<path transform="matrix(1,0,0,-1,42.52,42.51999)" d="M155.90746-155.90744H184.25424V-127.56065H155.90746Z" fill="#d2ffd2"/>
<text xml:space="preserve" transform="matrix(1 0 -0 1 0 482.28797)" font-size="9.9626" font-family="CMR10"><tspan y="-294.826" x="205.126 210.1073 215.0886">109</tspan></text>
<path transform="matrix(1,0,0,-1,42.52,42.51999)" d="M184.25426-155.90744H212.60105V-127.56065H184.25426Z" fill="#ffd2d2"/>
<text xml:space="preserve" transform="matrix(1 0 -0 1 0 482.28797)" font-size="9.9626" font-family="CMR10"><tspan y="-294.826" x="233.473 238.4543 243.4356">125</tspan></text>
<path transform="matrix(1,0,0,-1,42.52,42.51999)" d="M212.60108-155.90744H240.94786V-127.56065H212.60108Z" fill="#afafff"/>
<text xml:space="preserve" transform="matrix(1 0 -0 1 0 482.28797)" font-size="9.9626" font-family="CMR10"><tspan y="-294.826" x="261.819 266.8003 271.7816">133</tspan></text>
<path transform="matrix(1,0,0,-1,42.52,42.51999)" d="M240.94789-155.90744H269.29469V-127.56065H240.94789Z" fill="#ffffaf"/>
<text xml:space="preserve" transform="matrix(1 0 -0 1 0 482.28797)" font-size="9.9626" font-family="CMR10"><tspan y="-294.826" x="290.166 295.14729 300.12858">149</tspan></text>
<path transform="matrix(1,0,0,-1,42.52,42.51999)" d="M269.2947-155.90744H297.6415V-127.56065H269.2947Z" fill="#d2d2ff"/>
<text xml:space="preserve" transform="matrix(1 0 -0 1 0 482.28797)" font-size="9.9626" font-family="CMR10"><tspan y="-294.826" x="318.512 323.4933 328.47459">165</tspan></text>
<path transform="matrix(1,0,0,-1,42.52,42.51999)" d="M297.6415-155.90744H325.9883V-127.56065H297.6415Z" fill="#ffffd2"/>
<text xml:space="preserve" transform="matrix(1 0 -0 1 -.000030517579 482.28797)" font-size="9.9626" font-family="CMR10"><tspan y="-294.826" x="346.859 351.8403 356.8216">181</tspan></text>
<path transform="matrix(1,0,0,-1,42.52,42.51999)" d="M325.9883-155.90744H354.3351V-127.56065H325.9883Z" fill="#afffaf"/>
<text xml:space="preserve" transform="matrix(1 0 -0 1 0 482.28797)" font-size="9.9626" font-family="CMR10"><tspan y="-294.826" x="375.205 380.18629 385.16758">205</tspan></text>
<path transform="matrix(1,0,0,-1,42.52,42.51999)" d="M354.33515-155.90744H382.68196V-127.56065H354.33515Z" fill="#ffafaf"/>
<text xml:space="preserve" transform="matrix(1 0 -0 1 0 482.28797)" font-size="9.9626" font-family="CMR10"><tspan y="-294.826" x="403.551 408.5323 413.51359">221</tspan></text>
<path transform="matrix(1,0,0,-1,42.52,42.51999)" d="M382.68193-155.90744H411.02873V-127.56065H382.68193Z" fill="#d2ffd2"/>
<text xml:space="preserve" transform="matrix(1 0 -0 1 -.000030517579 482.28797)" font-size="9.9626" font-family="CMR10"><tspan y="-294.826" x="431.898 436.8793 441.8606">237</tspan></text>
<path transform="matrix(1,0,0,-1,42.52,42.51999)" d="M411.02876-155.90744H439.37556V-127.56065H411.02876Z" fill="#ffd2d2"/>
<text xml:space="preserve" transform="matrix(1 0 -0 1 0 482.28797)" font-size="9.9626" font-family="CMR10"><tspan y="-294.826" x="460.244 465.22529 470.20658">253</tspan></text>
<path transform="matrix(1,0,0,-1,42.52,42.51999)" d="M-14.17339-184.25424H14.1734V-155.90746H-14.17339Z" fill="#afafff"/>
<text xml:space="preserve" transform="matrix(1 0 -0 1 0 482.288)" font-size="9.9626" font-family="CMR10"><tspan y="-266.48" x="40.029">6</tspan></text>
<path transform="matrix(1,0,0,-1,42.52,42.51999)" d="M14.1734-184.25424H42.52019V-155.90746H14.1734Z" fill="#ffffaf"/>
<text xml:space="preserve" transform="matrix(1 0 -0 1 0 482.288)" font-size="9.9626" font-family="CMR10"><tspan y="-266.48" x="65.885 70.8663">22</tspan></text>
<path transform="matrix(1,0,0,-1,42.52,42.51999)" d="M42.52022-184.25424H70.86701V-155.90746H42.52022Z" fill="#d2d2ff"/>
<text xml:space="preserve" transform="matrix(1 0 -0 1 0 482.288)" font-size="9.9626" font-family="CMR10"><tspan y="-266.48" x="94.231 99.2123">38</tspan></text>
<path transform="matrix(1,0,0,-1,42.52,42.51999)" d="M70.86702-184.25424H99.213809V-155.90746H70.86702Z" fill="#ffffd2"/>
<text xml:space="preserve" transform="matrix(1 0 -0 1 0 482.288)" font-size="9.9626" font-family="CMR10"><tspan y="-266.48" x="122.578 127.5593">54</tspan></text>
<path transform="matrix(1,0,0,-1,42.52,42.51999)" d="M99.21384-184.25424H127.56062V-155.90746H99.21384Z" fill="#afffaf"/>
<text xml:space="preserve" transform="matrix(1 0 -0 1 0 482.288)" font-size="9.9626" font-family="CMR10"><tspan y="-266.48" x="150.924 155.90529">78</tspan></text>
<path transform="matrix(1,0,0,-1,42.52,42.51999)" d="M127.56064-184.25424H155.90743V-155.90746H127.56064Z" fill="#ffafaf"/>
<text xml:space="preserve" transform="matrix(1 0 -0 1 .000015258789 482.288)" font-size="9.9626" font-family="CMR10"><tspan y="-266.48" x="179.271 184.25229">94</tspan></text>
<path transform="matrix(1,0,0,-1,42.52,42.51999)" d="M155.90746-184.25424H184.25424V-155.90746H155.90746Z" fill="#d2ffd2"/>
<text xml:space="preserve" transform="matrix(1 0 -0 1 0 482.288)" font-size="9.9626" font-family="CMR10"><tspan y="-266.48" x="205.126 210.1073 215.0886">110</tspan></text>
<path transform="matrix(1,0,0,-1,42.52,42.51999)" d="M184.25426-184.25424H212.60105V-155.90746H184.25426Z" fill="#ffd2d2"/>
<text xml:space="preserve" transform="matrix(1 0 -0 1 0 482.288)" font-size="9.9626" font-family="CMR10"><tspan y="-266.48" x="233.473 238.4543 243.4356">126</tspan></text>
<path transform="matrix(1,0,0,-1,42.52,42.51999)" d="M212.60108-184.25424H240.94786V-155.90746H212.60108Z" fill="#afafff"/>
<text xml:space="preserve" transform="matrix(1 0 -0 1 0 482.288)" font-size="9.9626" font-family="CMR10"><tspan y="-266.48" x="261.819 266.8003 271.7816">134</tspan></text>
<path transform="matrix(1,0,0,-1,42.52,42.51999)" d="M240.94789-184.25424H269.29469V-155.90746H240.94789Z" fill="#ffffaf"/>
<text xml:space="preserve" transform="matrix(1 0 -0 1 0 482.288)" font-size="9.9626" font-family="CMR10"><tspan y="-266.48" x="290.166 295.14729 300.12858">150</tspan></text>
<path transform="matrix(1,0,0,-1,42.52,42.51999)" d="M269.2947-184.25424H297.6415V-155.90746H269.2947Z" fill="#d2d2ff"/>
<text xml:space="preserve" transform="matrix(1 0 -0 1 0 482.288)" font-size="9.9626" font-family="CMR10"><tspan y="-266.48" x="318.512 323.4933 328.47459">166</tspan></text>
<path transform="matrix(1,0,0,-1,42.52,42.51999)" d="M297.6415-184.25424H325.9883V-155.90746H297.6415Z" fill="#ffffd2"/>
<text xml:space="preserve" transform="matrix(1 0 -0 1 -.000030517579 482.288)" font-size="9.9626" font-family="CMR10"><tspan y="-266.48" x="346.859 351.8403 356.8216">182</tspan></text>
<path transform="matrix(1,0,0,-1,42.52,42.51999)" d="M325.9883-184.25424H354.3351V-155.90746H325.9883Z" fill="#afffaf"/>
<text xml:space="preserve" transform="matrix(1 0 -0 1 0 482.288)" font-size="9.9626" font-family="CMR10"><tspan y="-266.48" x="375.205 380.18629 385.16758">206</tspan></text>
<path transform="matrix(1,0,0,-1,42.52,42.51999)" d="M354.33515-184.25424H382.68196V-155.90746H354.33515Z" fill="#ffafaf"/>
<text xml:space="preserve" transform="matrix(1 0 -0 1 0 482.288)" font-size="9.9626" font-family="CMR10"><tspan y="-266.48" x="403.551 408.5323 413.51359">222</tspan></text>
<path transform="matrix(1,0,0,-1,42.52,42.51999)" d="M382.68193-184.25424H411.02873V-155.90746H382.68193Z" fill="#d2ffd2"/>
<text xml:space="preserve" transform="matrix(1 0 -0 1 -.000030517579 482.288)" font-size="9.9626" font-family="CMR10"><tspan y="-266.48" x="431.898 436.8793 441.8606">238</tspan></text>
<path transform="matrix(1,0,0,-1,42.52,42.51999)" d="M411.02876-184.25424H439.37556V-155.90746H411.02876Z" fill="#ffd2d2"/>
<text xml:space="preserve" transform="matrix(1 0 -0 1 0 482.288)" font-size="9.9626" font-family="CMR10"><tspan y="-266.48" x="460.244 465.22529 470.20658">254</tspan></text>
<path transform="matrix(1,0,0,-1,42.52,42.51999)" d="M-14.17339-212.60106H14.1734V-184.25428H-14.17339Z" fill="#afafff"/>
<text xml:space="preserve" transform="matrix(1 0 -0 1 0 482.28797)" font-size="9.9626" font-family="CMR10"><tspan y="-238.133" x="40.029">7</tspan></text>
<path transform="matrix(1,0,0,-1,42.52,42.51999)" d="M14.1734-212.60106H42.52019V-184.25428H14.1734Z" fill="#ffffaf"/>
<text xml:space="preserve" transform="matrix(1 0 -0 1 0 482.28797)" font-size="9.9626" font-family="CMR10"><tspan y="-238.133" x="65.885 70.8663">23</tspan></text>
<path transform="matrix(1,0,0,-1,42.52,42.51999)" d="M42.52022-212.60106H70.86701V-184.25428H42.52022Z" fill="#d2d2ff"/>
<text xml:space="preserve" transform="matrix(1 0 -0 1 0 482.28797)" font-size="9.9626" font-family="CMR10"><tspan y="-238.133" x="94.231 99.2123">39</tspan></text>
<path transform="matrix(1,0,0,-1,42.52,42.51999)" d="M70.86702-212.60106H99.213809V-184.25428H70.86702Z" fill="#ffffd2"/>
<text xml:space="preserve" transform="matrix(1 0 -0 1 0 482.28797)" font-size="9.9626" font-family="CMR10"><tspan y="-238.133" x="122.578 127.5593">55</tspan></text>
<path transform="matrix(1,0,0,-1,42.52,42.51999)" d="M99.21384-212.60106H127.56062V-184.25428H99.21384Z" fill="#afffaf"/>
<text xml:space="preserve" transform="matrix(1 0 -0 1 0 482.28797)" font-size="9.9626" font-family="CMR10"><tspan y="-238.133" x="150.924 155.90529">79</tspan></text>
<path transform="matrix(1,0,0,-1,42.52,42.51999)" d="M127.56064-212.60106H155.90743V-184.25428H127.56064Z" fill="#ffafaf"/>
<text xml:space="preserve" transform="matrix(1 0 -0 1 .000015258789 482.28797)" font-size="9.9626" font-family="CMR10"><tspan y="-238.133" x="179.271 184.25229">95</tspan></text>
<path transform="matrix(1,0,0,-1,42.52,42.51999)" d="M155.90746-212.60106H184.25424V-184.25428H155.90746Z" fill="#d2ffd2"/>
<text xml:space="preserve" transform="matrix(1 0 -0 1 0 482.28797)" font-size="9.9626" font-family="CMR10"><tspan y="-238.133" x="205.126 210.1073 215.0886">111</tspan></text>
<path transform="matrix(1,0,0,-1,42.52,42.51999)" d="M184.25426-212.60106H212.60105V-184.25428H184.25426Z" fill="#ffd2d2"/>
<text xml:space="preserve" transform="matrix(1 0 -0 1 0 482.28797)" font-size="9.9626" font-family="CMR10"><tspan y="-238.133" x="233.473 238.4543 243.4356">127</tspan></text>
<path transform="matrix(1,0,0,-1,42.52,42.51999)" d="M212.60108-212.60106H240.94786V-184.25428H212.60108Z" fill="#afafff"/>
<text xml:space="preserve" transform="matrix(1 0 -0 1 0 482.28797)" font-size="9.9626" font-family="CMR10"><tspan y="-238.133" x="261.819 266.8003 271.7816">135</tspan></text>
<path transform="matrix(1,0,0,-1,42.52,42.51999)" d="M240.94789-212.60106H269.29469V-184.25428H240.94789Z" fill="#ffffaf"/>
<text xml:space="preserve" transform="matrix(1 0 -0 1 0 482.28797)" font-size="9.9626" font-family="CMR10"><tspan y="-238.133" x="290.166 295.14729 300.12858">151</tspan></text>
<path transform="matrix(1,0,0,-1,42.52,42.51999)" d="M269.2947-212.60106H297.6415V-184.25428H269.2947Z" fill="#d2d2ff"/>
<text xml:space="preserve" transform="matrix(1 0 -0 1 0 482.28797)" font-size="9.9626" font-family="CMR10"><tspan y="-238.133" x="318.512 323.4933 328.47459">167</tspan></text>
<path transform="matrix(1,0,0,-1,42.52,42.51999)" d="M297.6415-212.60106H325.9883V-184.25428H297.6415Z" fill="#ffffd2"/>
<text xml:space="preserve" transform="matrix(1 0 -0 1 -.000030517579 482.28797)" font-size="9.9626" font-family="CMR10"><tspan y="-238.133" x="346.859 351.8403 356.8216">183</tspan></text>
<path transform="matrix(1,0,0,-1,42.52,42.51999)" d="M325.9883-212.60106H354.3351V-184.25428H325.9883Z" fill="#afffaf"/>
<text xml:space="preserve" transform="matrix(1 0 -0 1 0 482.28797)" font-size="9.9626" font-family="CMR10"><tspan y="-238.133" x="375.205 380.18629 385.16758">207</tspan></text>
<path transform="matrix(1,0,0,-1,42.52,42.51999)" d="M354.33515-212.60106H382.68196V-184.25428H354.33515Z" fill="#ffafaf"/>
<text xml:space="preserve" transform="matrix(1 0 -0 1 0 482.28797)" font-size="9.9626" font-family="CMR10"><tspan y="-238.133" x="403.551 408.5323 413.51359">223</tspan></text>
<path transform="matrix(1,0,0,-1,42.52,42.51999)" d="M382.68193-212.60106H411.02873V-184.25428H382.68193Z" fill="#d2ffd2"/>
<text xml:space="preserve" transform="matrix(1 0 -0 1 -.000030517579 482.28797)" font-size="9.9626" font-family="CMR10"><tspan y="-238.133" x="431.898 436.8793 441.8606">239</tspan></text>
<path transform="matrix(1,0,0,-1,42.52,42.51999)" d="M411.02876-212.60106H439.37556V-184.25428H411.02876Z" fill="#ffd2d2"/>
<text xml:space="preserve" transform="matrix(1 0 -0 1 0 482.28797)" font-size="9.9626" font-family="CMR10"><tspan y="-238.133" x="460.244 465.22529 470.20658">255</tspan></text>
<path transform="matrix(1,0,0,-1,42.52,42.51999)" d="M-14.17339-240.94788H14.1734V-212.60109H-14.17339Z" fill="#afffaf"/>
<text xml:space="preserve" transform="matrix(1 0 -0 1 0 482.28797)" font-size="9.9626" font-family="CMR10"><tspan y="-209.787" x="40.029">8</tspan></text>
<path transform="matrix(1,0,0,-1,42.52,42.51999)" d="M14.1734-240.94788H42.52019V-212.60109H14.1734Z" fill="#ffafaf"/>
<text xml:space="preserve" transform="matrix(1 0 -0 1 0 482.28797)" font-size="9.9626" font-family="CMR10"><tspan y="-209.787" x="65.885 70.8663">24</tspan></text>
<path transform="matrix(1,0,0,-1,42.52,42.51999)" d="M42.52022-240.94788H70.86701V-212.60109H42.52022Z" fill="#d2ffd2"/>
<text xml:space="preserve" transform="matrix(1 0 -0 1 0 482.28797)" font-size="9.9626" font-family="CMR10"><tspan y="-209.787" x="94.231 99.2123">40</tspan></text>
<path transform="matrix(1,0,0,-1,42.52,42.51999)" d="M70.86702-240.94788H99.213809V-212.60109H70.86702Z" fill="#ffd2d2"/>
<text xml:space="preserve" transform="matrix(1 0 -0 1 0 482.28797)" font-size="9.9626" font-family="CMR10"><tspan y="-209.787" x="122.578 127.5593">56</tspan></text>
<path transform="matrix(1,0,0,-1,42.52,42.51999)" d="M99.21384-240.94788H127.56062V-212.60109H99.21384Z" fill="#afafff"/>
<text xml:space="preserve" transform="matrix(1 0 -0 1 0 482.28797)" font-size="9.9626" font-family="CMR10"><tspan y="-209.787" x="150.924 155.90529">64</tspan></text>
<path transform="matrix(1,0,0,-1,42.52,42.51999)" d="M127.56064-240.94788H155.90743V-212.60109H127.56064Z" fill="#ffffaf"/>
<text xml:space="preserve" transform="matrix(1 0 -0 1 .000015258789 482.28797)" font-size="9.9626" font-family="CMR10"><tspan y="-209.787" x="179.271 184.25229">80</tspan></text>
<path transform="matrix(1,0,0,-1,42.52,42.51999)" d="M155.90746-240.94788H184.25424V-212.60109H155.90746Z" fill="#d2d2ff"/>
<text xml:space="preserve" transform="matrix(1 0 -0 1 0 482.28797)" font-size="9.9626" font-family="CMR10"><tspan y="-209.787" x="207.617 212.5983">96</tspan></text>
<path transform="matrix(1,0,0,-1,42.52,42.51999)" d="M184.25426-240.94788H212.60105V-212.60109H184.25426Z" fill="#ffffd2"/>
<text xml:space="preserve" transform="matrix(1 0 -0 1 0 482.28797)" font-size="9.9626" font-family="CMR10"><tspan y="-209.787" x="233.473 238.4543 243.4356">112</tspan></text>
<path transform="matrix(1,0,0,-1,42.52,42.51999)" d="M212.60108-240.94788H240.94786V-212.60109H212.60108Z" fill="#afffaf"/>
<text xml:space="preserve" transform="matrix(1 0 -0 1 0 482.28797)" font-size="9.9626" font-family="CMR10"><tspan y="-209.787" x="261.819 266.8003 271.7816">136</tspan></text>
<path transform="matrix(1,0,0,-1,42.52,42.51999)" d="M240.94789-240.94788H269.29469V-212.60109H240.94789Z" fill="#ffafaf"/>
<text xml:space="preserve" transform="matrix(1 0 -0 1 0 482.28797)" font-size="9.9626" font-family="CMR10"><tspan y="-209.787" x="290.166 295.14729 300.12858">152</tspan></text>
<path transform="matrix(1,0,0,-1,42.52,42.51999)" d="M269.2947-240.94788H297.6415V-212.60109H269.2947Z" fill="#d2ffd2"/>
<text xml:space="preserve" transform="matrix(1 0 -0 1 0 482.28797)" font-size="9.9626" font-family="CMR10"><tspan y="-209.787" x="318.512 323.4933 328.47459">168</tspan></text>
<path transform="matrix(1,0,0,-1,42.52,42.51999)" d="M297.6415-240.94788H325.9883V-212.60109H297.6415Z" fill="#ffd2d2"/>
<text xml:space="preserve" transform="matrix(1 0 -0 1 -.000030517579 482.28797)" font-size="9.9626" font-family="CMR10"><tspan y="-209.787" x="346.859 351.8403 356.8216">184</tspan></text>
<path transform="matrix(1,0,0,-1,42.52,42.51999)" d="M325.9883-240.94788H354.3351V-212.60109H325.9883Z" fill="#afafff"/>
<text xml:space="preserve" transform="matrix(1 0 -0 1 0 482.28797)" font-size="9.9626" font-family="CMR10"><tspan y="-209.787" x="375.205 380.18629 385.16758">192</tspan></text>
<path transform="matrix(1,0,0,-1,42.52,42.51999)" d="M354.33515-240.94788H382.68196V-212.60109H354.33515Z" fill="#ffffaf"/>
<text xml:space="preserve" transform="matrix(1 0 -0 1 0 482.28797)" font-size="9.9626" font-family="CMR10"><tspan y="-209.787" x="403.551 408.5323 413.51359">208</tspan></text>
<path transform="matrix(1,0,0,-1,42.52,42.51999)" d="M382.68193-240.94788H411.02873V-212.60109H382.68193Z" fill="#d2d2ff"/>
<text xml:space="preserve" transform="matrix(1 0 -0 1 -.000030517579 482.28797)" font-size="9.9626" font-family="CMR10"><tspan y="-209.787" x="431.898 436.8793 441.8606">224</tspan></text>
<path transform="matrix(1,0,0,-1,42.52,42.51999)" d="M411.02876-240.94788H439.37556V-212.60109H411.02876Z" fill="#ffffd2"/>
<text xml:space="preserve" transform="matrix(1 0 -0 1 0 482.28797)" font-size="9.9626" font-family="CMR10"><tspan y="-209.787" x="460.244 465.22529 470.20658">240</tspan></text>
<path transform="matrix(1,0,0,-1,42.52,42.51999)" d="M-14.17339-269.29469H14.1734V-240.94789H-14.17339Z" fill="#afffaf"/>
<text xml:space="preserve" transform="matrix(1 0 -0 1 0 482.288)" font-size="9.9626" font-family="CMR10"><tspan y="-181.44" x="40.029">9</tspan></text>
<path transform="matrix(1,0,0,-1,42.52,42.51999)" d="M14.1734-269.29469H42.52019V-240.94789H14.1734Z" fill="#ffafaf"/>
<text xml:space="preserve" transform="matrix(1 0 -0 1 0 482.288)" font-size="9.9626" font-family="CMR10"><tspan y="-181.44" x="65.885 70.8663">25</tspan></text>
<path transform="matrix(1,0,0,-1,42.52,42.51999)" d="M42.52022-269.29469H70.86701V-240.94789H42.52022Z" fill="#d2ffd2"/>
<text xml:space="preserve" transform="matrix(1 0 -0 1 0 482.288)" font-size="9.9626" font-family="CMR10"><tspan y="-181.44" x="94.231 99.2123">41</tspan></text>
<path transform="matrix(1,0,0,-1,42.52,42.51999)" d="M70.86702-269.29469H99.213809V-240.94789H70.86702Z" fill="#ffd2d2"/>
<text xml:space="preserve" transform="matrix(1 0 -0 1 0 482.288)" font-size="9.9626" font-family="CMR10"><tspan y="-181.44" x="122.578 127.5593">57</tspan></text>
<path transform="matrix(1,0,0,-1,42.52,42.51999)" d="M99.21384-269.29469H127.56062V-240.94789H99.21384Z" fill="#afafff"/>
<text xml:space="preserve" transform="matrix(1 0 -0 1 0 482.288)" font-size="9.9626" font-family="CMR10"><tspan y="-181.44" x="150.924 155.90529">65</tspan></text>
<path transform="matrix(1,0,0,-1,42.52,42.51999)" d="M127.56064-269.29469H155.90743V-240.94789H127.56064Z" fill="#ffffaf"/>
<text xml:space="preserve" transform="matrix(1 0 -0 1 .000015258789 482.288)" font-size="9.9626" font-family="CMR10"><tspan y="-181.44" x="179.271 184.25229">81</tspan></text>
<path transform="matrix(1,0,0,-1,42.52,42.51999)" d="M155.90746-269.29469H184.25424V-240.94789H155.90746Z" fill="#d2d2ff"/>
<text xml:space="preserve" transform="matrix(1 0 -0 1 0 482.288)" font-size="9.9626" font-family="CMR10"><tspan y="-181.44" x="207.617 212.5983">97</tspan></text>
<path transform="matrix(1,0,0,-1,42.52,42.51999)" d="M184.25426-269.29469H212.60105V-240.94789H184.25426Z" fill="#ffffd2"/>
<text xml:space="preserve" transform="matrix(1 0 -0 1 0 482.288)" font-size="9.9626" font-family="CMR10"><tspan y="-181.44" x="233.473 238.4543 243.4356">113</tspan></text>
<path transform="matrix(1,0,0,-1,42.52,42.51999)" d="M212.60108-269.29469H240.94786V-240.94789H212.60108Z" fill="#afffaf"/>
<text xml:space="preserve" transform="matrix(1 0 -0 1 0 482.288)" font-size="9.9626" font-family="CMR10"><tspan y="-181.44" x="261.819 266.8003 271.7816">137</tspan></text>
<path transform="matrix(1,0,0,-1,42.52,42.51999)" d="M240.94789-269.29469H269.29469V-240.94789H240.94789Z" fill="#ffafaf"/>
<text xml:space="preserve" transform="matrix(1 0 -0 1 0 482.288)" font-size="9.9626" font-family="CMR10"><tspan y="-181.44" x="290.166 295.14729 300.12858">153</tspan></text>
<path transform="matrix(1,0,0,-1,42.52,42.51999)" d="M269.2947-269.29469H297.6415V-240.94789H269.2947Z" fill="#d2ffd2"/>
<text xml:space="preserve" transform="matrix(1 0 -0 1 0 482.288)" font-size="9.9626" font-family="CMR10"><tspan y="-181.44" x="318.512 323.4933 328.47459">169</tspan></text>
<path transform="matrix(1,0,0,-1,42.52,42.51999)" d="M297.6415-269.29469H325.9883V-240.94789H297.6415Z" fill="#ffd2d2"/>
<text xml:space="preserve" transform="matrix(1 0 -0 1 -.000030517579 482.288)" font-size="9.9626" font-family="CMR10"><tspan y="-181.44" x="346.859 351.8403 356.8216">185</tspan></text>
<path transform="matrix(1,0,0,-1,42.52,42.51999)" d="M325.9883-269.29469H354.3351V-240.94789H325.9883Z" fill="#afafff"/>
<text xml:space="preserve" transform="matrix(1 0 -0 1 0 482.288)" font-size="9.9626" font-family="CMR10"><tspan y="-181.44" x="375.205 380.18629 385.16758">193</tspan></text>
<path transform="matrix(1,0,0,-1,42.52,42.51999)" d="M354.33515-269.29469H382.68196V-240.94789H354.33515Z" fill="#ffffaf"/>
<text xml:space="preserve" transform="matrix(1 0 -0 1 0 482.288)" font-size="9.9626" font-family="CMR10"><tspan y="-181.44" x="403.551 408.5323 413.51359">209</tspan></text>
<path transform="matrix(1,0,0,-1,42.52,42.51999)" d="M382.68193-269.29469H411.02873V-240.94789H382.68193Z" fill="#d2d2ff"/>
<text xml:space="preserve" transform="matrix(1 0 -0 1 -.000030517579 482.288)" font-size="9.9626" font-family="CMR10"><tspan y="-181.44" x="431.898 436.8793 441.8606">225</tspan></text>
<path transform="matrix(1,0,0,-1,42.52,42.51999)" d="M411.02876-269.29469H439.37556V-240.94789H411.02876Z" fill="#ffffd2"/>
<text xml:space="preserve" transform="matrix(1 0 -0 1 0 482.288)" font-size="9.9626" font-family="CMR10"><tspan y="-181.44" x="460.244 465.22529 470.20658">241</tspan></text>
<path transform="matrix(1,0,0,-1,42.52,42.51999)" d="M-14.17339-297.6415H14.1734V-269.2947H-14.17339Z" fill="#afffaf"/>
<text xml:space="preserve" transform="matrix(1 0 -0 1 .0000038146974 482.288)" font-size="9.9626" font-family="CMR10"><tspan y="-153.094" x="37.538 42.5193">10</tspan></text>
<path transform="matrix(1,0,0,-1,42.52,42.51999)" d="M14.1734-297.6415H42.52019V-269.2947H14.1734Z" fill="#ffafaf"/>
<text xml:space="preserve" transform="matrix(1 0 -0 1 0 482.288)" font-size="9.9626" font-family="CMR10"><tspan y="-153.094" x="65.885 70.8663">26</tspan></text>
<path transform="matrix(1,0,0,-1,42.52,42.51999)" d="M42.52022-297.6415H70.86701V-269.2947H42.52022Z" fill="#d2ffd2"/>
<text xml:space="preserve" transform="matrix(1 0 -0 1 0 482.288)" font-size="9.9626" font-family="CMR10"><tspan y="-153.094" x="94.231 99.2123">42</tspan></text>
<path transform="matrix(1,0,0,-1,42.52,42.51999)" d="M70.86702-297.6415H99.213809V-269.2947H70.86702Z" fill="#ffd2d2"/>
<text xml:space="preserve" transform="matrix(1 0 -0 1 0 482.288)" font-size="9.9626" font-family="CMR10"><tspan y="-153.094" x="122.578 127.5593">58</tspan></text>
<path transform="matrix(1,0,0,-1,42.52,42.51999)" d="M99.21384-297.6415H127.56062V-269.2947H99.21384Z" fill="#afafff"/>
<text xml:space="preserve" transform="matrix(1 0 -0 1 0 482.288)" font-size="9.9626" font-family="CMR10"><tspan y="-153.094" x="150.924 155.90529">66</tspan></text>
<path transform="matrix(1,0,0,-1,42.52,42.51999)" d="M127.56064-297.6415H155.90743V-269.2947H127.56064Z" fill="#ffffaf"/>
<text xml:space="preserve" transform="matrix(1 0 -0 1 .000015258789 482.288)" font-size="9.9626" font-family="CMR10"><tspan y="-153.094" x="179.271 184.25229">82</tspan></text>
<path transform="matrix(1,0,0,-1,42.52,42.51999)" d="M155.90746-297.6415H184.25424V-269.2947H155.90746Z" fill="#d2d2ff"/>
<text xml:space="preserve" transform="matrix(1 0 -0 1 0 482.288)" font-size="9.9626" font-family="CMR10"><tspan y="-153.094" x="207.617 212.5983">98</tspan></text>
<path transform="matrix(1,0,0,-1,42.52,42.51999)" d="M184.25426-297.6415H212.60105V-269.2947H184.25426Z" fill="#ffffd2"/>
<text xml:space="preserve" transform="matrix(1 0 -0 1 0 482.288)" font-size="9.9626" font-family="CMR10"><tspan y="-153.094" x="233.473 238.4543 243.4356">114</tspan></text>
<path transform="matrix(1,0,0,-1,42.52,42.51999)" d="M212.60108-297.6415H240.94786V-269.2947H212.60108Z" fill="#afffaf"/>
<text xml:space="preserve" transform="matrix(1 0 -0 1 0 482.288)" font-size="9.9626" font-family="CMR10"><tspan y="-153.094" x="261.819 266.8003 271.7816">138</tspan></text>
<path transform="matrix(1,0,0,-1,42.52,42.51999)" d="M240.94789-297.6415H269.29469V-269.2947H240.94789Z" fill="#ffafaf"/>
<text xml:space="preserve" transform="matrix(1 0 -0 1 0 482.288)" font-size="9.9626" font-family="CMR10"><tspan y="-153.094" x="290.166 295.14729 300.12858">154</tspan></text>
<path transform="matrix(1,0,0,-1,42.52,42.51999)" d="M269.2947-297.6415H297.6415V-269.2947H269.2947Z" fill="#d2ffd2"/>
<text xml:space="preserve" transform="matrix(1 0 -0 1 0 482.288)" font-size="9.9626" font-family="CMR10"><tspan y="-153.094" x="318.512 323.4933 328.47459">170</tspan></text>
<path transform="matrix(1,0,0,-1,42.52,42.51999)" d="M297.6415-297.6415H325.9883V-269.2947H297.6415Z" fill="#ffd2d2"/>
<text xml:space="preserve" transform="matrix(1 0 -0 1 -.000030517579 482.288)" font-size="9.9626" font-family="CMR10"><tspan y="-153.094" x="346.859 351.8403 356.8216">186</tspan></text>
<path transform="matrix(1,0,0,-1,42.52,42.51999)" d="M325.9883-297.6415H354.3351V-269.2947H325.9883Z" fill="#afafff"/>
<text xml:space="preserve" transform="matrix(1 0 -0 1 0 482.288)" font-size="9.9626" font-family="CMR10"><tspan y="-153.094" x="375.205 380.18629 385.16758">194</tspan></text>
<path transform="matrix(1,0,0,-1,42.52,42.51999)" d="M354.33515-297.6415H382.68196V-269.2947H354.33515Z" fill="#ffffaf"/>
<text xml:space="preserve" transform="matrix(1 0 -0 1 0 482.288)" font-size="9.9626" font-family="CMR10"><tspan y="-153.094" x="403.551 408.5323 413.51359">210</tspan></text>
<path transform="matrix(1,0,0,-1,42.52,42.51999)" d="M382.68193-297.6415H411.02873V-269.2947H382.68193Z" fill="#d2d2ff"/>
<text xml:space="preserve" transform="matrix(1 0 -0 1 -.000030517579 482.288)" font-size="9.9626" font-family="CMR10"><tspan y="-153.094" x="431.898 436.8793 441.8606">226</tspan></text>
<path transform="matrix(1,0,0,-1,42.52,42.51999)" d="M411.02876-297.6415H439.37556V-269.2947H411.02876Z" fill="#ffffd2"/>
<text xml:space="preserve" transform="matrix(1 0 -0 1 0 482.288)" font-size="9.9626" font-family="CMR10"><tspan y="-153.094" x="460.244 465.22529 470.20658">242</tspan></text>
<path transform="matrix(1,0,0,-1,42.52,42.51999)" d="M-14.17339-325.9883H14.1734V-297.6415H-14.17339Z" fill="#afffaf"/>
<text xml:space="preserve" transform="matrix(1 0 -0 1 .0000038146974 482.288)" font-size="9.9626" font-family="CMR10"><tspan y="-124.747" x="37.538 42.5193">11</tspan></text>
<path transform="matrix(1,0,0,-1,42.52,42.51999)" d="M14.1734-325.9883H42.52019V-297.6415H14.1734Z" fill="#ffafaf"/>
<text xml:space="preserve" transform="matrix(1 0 -0 1 0 482.288)" font-size="9.9626" font-family="CMR10"><tspan y="-124.747" x="65.885 70.8663">27</tspan></text>
<path transform="matrix(1,0,0,-1,42.52,42.51999)" d="M42.52022-325.9883H70.86701V-297.6415H42.52022Z" fill="#d2ffd2"/>
<text xml:space="preserve" transform="matrix(1 0 -0 1 0 482.288)" font-size="9.9626" font-family="CMR10"><tspan y="-124.747" x="94.231 99.2123">43</tspan></text>
<path transform="matrix(1,0,0,-1,42.52,42.51999)" d="M70.86702-325.9883H99.213809V-297.6415H70.86702Z" fill="#ffd2d2"/>
<text xml:space="preserve" transform="matrix(1 0 -0 1 0 482.288)" font-size="9.9626" font-family="CMR10"><tspan y="-124.747" x="122.578 127.5593">59</tspan></text>
<path transform="matrix(1,0,0,-1,42.52,42.51999)" d="M99.21384-325.9883H127.56062V-297.6415H99.21384Z" fill="#afafff"/>
<text xml:space="preserve" transform="matrix(1 0 -0 1 0 482.288)" font-size="9.9626" font-family="CMR10"><tspan y="-124.747" x="150.924 155.90529">67</tspan></text>
<path transform="matrix(1,0,0,-1,42.52,42.51999)" d="M127.56064-325.9883H155.90743V-297.6415H127.56064Z" fill="#ffffaf"/>
<text xml:space="preserve" transform="matrix(1 0 -0 1 .000015258789 482.288)" font-size="9.9626" font-family="CMR10"><tspan y="-124.747" x="179.271 184.25229">83</tspan></text>
<path transform="matrix(1,0,0,-1,42.52,42.51999)" d="M155.90746-325.9883H184.25424V-297.6415H155.90746Z" fill="#d2d2ff"/>
<text xml:space="preserve" transform="matrix(1 0 -0 1 0 482.288)" font-size="9.9626" font-family="CMR10"><tspan y="-124.747" x="207.617 212.5983">99</tspan></text>
<path transform="matrix(1,0,0,-1,42.52,42.51999)" d="M184.25426-325.9883H212.60105V-297.6415H184.25426Z" fill="#ffffd2"/>
<text xml:space="preserve" transform="matrix(1 0 -0 1 0 482.288)" font-size="9.9626" font-family="CMR10"><tspan y="-124.747" x="233.473 238.4543 243.4356">115</tspan></text>
<path transform="matrix(1,0,0,-1,42.52,42.51999)" d="M212.60108-325.9883H240.94786V-297.6415H212.60108Z" fill="#afffaf"/>
<text xml:space="preserve" transform="matrix(1 0 -0 1 0 482.288)" font-size="9.9626" font-family="CMR10"><tspan y="-124.747" x="261.819 266.8003 271.7816">139</tspan></text>
<path transform="matrix(1,0,0,-1,42.52,42.51999)" d="M240.94789-325.9883H269.29469V-297.6415H240.94789Z" fill="#ffafaf"/>
<text xml:space="preserve" transform="matrix(1 0 -0 1 0 482.288)" font-size="9.9626" font-family="CMR10"><tspan y="-124.747" x="290.166 295.14729 300.12858">155</tspan></text>
<path transform="matrix(1,0,0,-1,42.52,42.51999)" d="M269.2947-325.9883H297.6415V-297.6415H269.2947Z" fill="#d2ffd2"/>
<text xml:space="preserve" transform="matrix(1 0 -0 1 0 482.288)" font-size="9.9626" font-family="CMR10"><tspan y="-124.747" x="318.512 323.4933 328.47459">171</tspan></text>
<path transform="matrix(1,0,0,-1,42.52,42.51999)" d="M297.6415-325.9883H325.9883V-297.6415H297.6415Z" fill="#ffd2d2"/>
<text xml:space="preserve" transform="matrix(1 0 -0 1 -.000030517579 482.288)" font-size="9.9626" font-family="CMR10"><tspan y="-124.747" x="346.859 351.8403 356.8216">187</tspan></text>
<path transform="matrix(1,0,0,-1,42.52,42.51999)" d="M325.9883-325.9883H354.3351V-297.6415H325.9883Z" fill="#afafff"/>
<text xml:space="preserve" transform="matrix(1 0 -0 1 0 482.288)" font-size="9.9626" font-family="CMR10"><tspan y="-124.747" x="375.205 380.18629 385.16758">195</tspan></text>
<path transform="matrix(1,0,0,-1,42.52,42.51999)" d="M354.33515-325.9883H382.68196V-297.6415H354.33515Z" fill="#ffffaf"/>
<text xml:space="preserve" transform="matrix(1 0 -0 1 0 482.288)" font-size="9.9626" font-family="CMR10"><tspan y="-124.747" x="403.551 408.5323 413.51359">211</tspan></text>
<path transform="matrix(1,0,0,-1,42.52,42.51999)" d="M382.68193-325.9883H411.02873V-297.6415H382.68193Z" fill="#d2d2ff"/>
<text xml:space="preserve" transform="matrix(1 0 -0 1 -.000030517579 482.288)" font-size="9.9626" font-family="CMR10"><tspan y="-124.747" x="431.898 436.8793 441.8606">227</tspan></text>
<path transform="matrix(1,0,0,-1,42.52,42.51999)" d="M411.02876-325.9883H439.37556V-297.6415H411.02876Z" fill="#ffffd2"/>
<text xml:space="preserve" transform="matrix(1 0 -0 1 0 482.288)" font-size="9.9626" font-family="CMR10"><tspan y="-124.747" x="460.244 465.22529 470.20658">243</tspan></text>
<path transform="matrix(1,0,0,-1,42.52,42.51999)" d="M-14.17339-354.3351H14.1734V-325.9883H-14.17339Z" fill="#afffaf"/>
<text xml:space="preserve" transform="matrix(1 0 -0 1 .0000038146974 482.288)" font-size="9.9626" font-family="CMR10"><tspan y="-96.401" x="37.538 42.5193">12</tspan></text>
<path transform="matrix(1,0,0,-1,42.52,42.51999)" d="M14.1734-354.3351H42.52019V-325.9883H14.1734Z" fill="#ffafaf"/>
<text xml:space="preserve" transform="matrix(1 0 -0 1 0 482.288)" font-size="9.9626" font-family="CMR10"><tspan y="-96.401" x="65.885 70.8663">28</tspan></text>
<path transform="matrix(1,0,0,-1,42.52,42.51999)" d="M42.52022-354.3351H70.86701V-325.9883H42.52022Z" fill="#d2ffd2"/>
<text xml:space="preserve" transform="matrix(1 0 -0 1 0 482.288)" font-size="9.9626" font-family="CMR10"><tspan y="-96.401" x="94.231 99.2123">44</tspan></text>
<path transform="matrix(1,0,0,-1,42.52,42.51999)" d="M70.86702-354.3351H99.213809V-325.9883H70.86702Z" fill="#ffd2d2"/>
<text xml:space="preserve" transform="matrix(1 0 -0 1 0 482.288)" font-size="9.9626" font-family="CMR10"><tspan y="-96.401" x="122.578 127.5593">60</tspan></text>
<path transform="matrix(1,0,0,-1,42.52,42.51999)" d="M99.21384-354.3351H127.56062V-325.9883H99.21384Z" fill="#afafff"/>
<text xml:space="preserve" transform="matrix(1 0 -0 1 0 482.288)" font-size="9.9626" font-family="CMR10"><tspan y="-96.401" x="150.924 155.90529">68</tspan></text>
<path transform="matrix(1,0,0,-1,42.52,42.51999)" d="M127.56064-354.3351H155.90743V-325.9883H127.56064Z" fill="#ffffaf"/>
<text xml:space="preserve" transform="matrix(1 0 -0 1 .000015258789 482.288)" font-size="9.9626" font-family="CMR10"><tspan y="-96.401" x="179.271 184.25229">84</tspan></text>
<path transform="matrix(1,0,0,-1,42.52,42.51999)" d="M155.90746-354.3351H184.25424V-325.9883H155.90746Z" fill="#d2d2ff"/>
<text xml:space="preserve" transform="matrix(1 0 -0 1 0 482.288)" font-size="9.9626" font-family="CMR10"><tspan y="-96.401" x="205.126 210.1073 215.0886">100</tspan></text>
<path transform="matrix(1,0,0,-1,42.52,42.51999)" d="M184.25426-354.3351H212.60105V-325.9883H184.25426Z" fill="#ffffd2"/>
<text xml:space="preserve" transform="matrix(1 0 -0 1 0 482.288)" font-size="9.9626" font-family="CMR10"><tspan y="-96.401" x="233.473 238.4543 243.4356">116</tspan></text>
<path transform="matrix(1,0,0,-1,42.52,42.51999)" d="M212.60108-354.3351H240.94786V-325.9883H212.60108Z" fill="#afffaf"/>
<text xml:space="preserve" transform="matrix(1 0 -0 1 0 482.288)" font-size="9.9626" font-family="CMR10"><tspan y="-96.401" x="261.819 266.8003 271.7816">140</tspan></text>
<path transform="matrix(1,0,0,-1,42.52,42.51999)" d="M240.94789-354.3351H269.29469V-325.9883H240.94789Z" fill="#ffafaf"/>
<text xml:space="preserve" transform="matrix(1 0 -0 1 0 482.288)" font-size="9.9626" font-family="CMR10"><tspan y="-96.401" x="290.166 295.14729 300.12858">156</tspan></text>
<path transform="matrix(1,0,0,-1,42.52,42.51999)" d="M269.2947-354.3351H297.6415V-325.9883H269.2947Z" fill="#d2ffd2"/>
<text xml:space="preserve" transform="matrix(1 0 -0 1 0 482.288)" font-size="9.9626" font-family="CMR10"><tspan y="-96.401" x="318.512 323.4933 328.47459">172</tspan></text>
<path transform="matrix(1,0,0,-1,42.52,42.51999)" d="M297.6415-354.3351H325.9883V-325.9883H297.6415Z" fill="#ffd2d2"/>
<text xml:space="preserve" transform="matrix(1 0 -0 1 -.000030517579 482.288)" font-size="9.9626" font-family="CMR10"><tspan y="-96.401" x="346.859 351.8403 356.8216">188</tspan></text>
<path transform="matrix(1,0,0,-1,42.52,42.51999)" d="M325.9883-354.3351H354.3351V-325.9883H325.9883Z" fill="#afafff"/>
<text xml:space="preserve" transform="matrix(1 0 -0 1 0 482.288)" font-size="9.9626" font-family="CMR10"><tspan y="-96.401" x="375.205 380.18629 385.16758">196</tspan></text>
<path transform="matrix(1,0,0,-1,42.52,42.51999)" d="M354.33515-354.3351H382.68196V-325.9883H354.33515Z" fill="#ffffaf"/>
<text xml:space="preserve" transform="matrix(1 0 -0 1 0 482.288)" font-size="9.9626" font-family="CMR10"><tspan y="-96.401" x="403.551 408.5323 413.51359">212</tspan></text>
<path transform="matrix(1,0,0,-1,42.52,42.51999)" d="M382.68193-354.3351H411.02873V-325.9883H382.68193Z" fill="#d2d2ff"/>
<text xml:space="preserve" transform="matrix(1 0 -0 1 -.000030517579 482.288)" font-size="9.9626" font-family="CMR10"><tspan y="-96.401" x="431.898 436.8793 441.8606">228</tspan></text>
<path transform="matrix(1,0,0,-1,42.52,42.51999)" d="M411.02876-354.3351H439.37556V-325.9883H411.02876Z" fill="#ffffd2"/>
<text xml:space="preserve" transform="matrix(1 0 -0 1 0 482.288)" font-size="9.9626" font-family="CMR10"><tspan y="-96.401" x="460.244 465.22529 470.20658">244</tspan></text>
<path transform="matrix(1,0,0,-1,42.52,42.51999)" d="M-14.17339-382.68193H14.1734V-354.3351H-14.17339Z" fill="#afffaf"/>
<text xml:space="preserve" transform="matrix(1 0 -0 1 .0000038146974 482.28797)" font-size="9.9626" font-family="CMR10"><tspan y="-68.054" x="37.538 42.5193">13</tspan></text>
<path transform="matrix(1,0,0,-1,42.52,42.51999)" d="M14.1734-382.68193H42.52019V-354.3351H14.1734Z" fill="#ffafaf"/>
<text xml:space="preserve" transform="matrix(1 0 -0 1 0 482.28797)" font-size="9.9626" font-family="CMR10"><tspan y="-68.054" x="65.885 70.8663">29</tspan></text>
<path transform="matrix(1,0,0,-1,42.52,42.51999)" d="M42.52022-382.68193H70.86701V-354.3351H42.52022Z" fill="#d2ffd2"/>
<text xml:space="preserve" transform="matrix(1 0 -0 1 0 482.28797)" font-size="9.9626" font-family="CMR10"><tspan y="-68.054" x="94.231 99.2123">45</tspan></text>
<path transform="matrix(1,0,0,-1,42.52,42.51999)" d="M70.86702-382.68193H99.213809V-354.3351H70.86702Z" fill="#ffd2d2"/>
<text xml:space="preserve" transform="matrix(1 0 -0 1 0 482.28797)" font-size="9.9626" font-family="CMR10"><tspan y="-68.054" x="122.578 127.5593">61</tspan></text>
<path transform="matrix(1,0,0,-1,42.52,42.51999)" d="M99.21384-382.68193H127.56062V-354.3351H99.21384Z" fill="#afafff"/>
<text xml:space="preserve" transform="matrix(1 0 -0 1 0 482.28797)" font-size="9.9626" font-family="CMR10"><tspan y="-68.054" x="150.924 155.90529">69</tspan></text>
<path transform="matrix(1,0,0,-1,42.52,42.51999)" d="M127.56064-382.68193H155.90743V-354.3351H127.56064Z" fill="#ffffaf"/>
<text xml:space="preserve" transform="matrix(1 0 -0 1 .000015258789 482.28797)" font-size="9.9626" font-family="CMR10"><tspan y="-68.054" x="179.271 184.25229">85</tspan></text>
<path transform="matrix(1,0,0,-1,42.52,42.51999)" d="M155.90746-382.68193H184.25424V-354.3351H155.90746Z" fill="#d2d2ff"/>
<text xml:space="preserve" transform="matrix(1 0 -0 1 0 482.28797)" font-size="9.9626" font-family="CMR10"><tspan y="-68.054" x="205.126 210.1073 215.0886">101</tspan></text>
<path transform="matrix(1,0,0,-1,42.52,42.51999)" d="M184.25426-382.68193H212.60105V-354.3351H184.25426Z" fill="#ffffd2"/>
<text xml:space="preserve" transform="matrix(1 0 -0 1 0 482.28797)" font-size="9.9626" font-family="CMR10"><tspan y="-68.054" x="233.473 238.4543 243.4356">117</tspan></text>
<path transform="matrix(1,0,0,-1,42.52,42.51999)" d="M212.60108-382.68193H240.94786V-354.3351H212.60108Z" fill="#afffaf"/>
<text xml:space="preserve" transform="matrix(1 0 -0 1 0 482.28797)" font-size="9.9626" font-family="CMR10"><tspan y="-68.054" x="261.819 266.8003 271.7816">141</tspan></text>
<path transform="matrix(1,0,0,-1,42.52,42.51999)" d="M240.94789-382.68193H269.29469V-354.3351H240.94789Z" fill="#ffafaf"/>
<text xml:space="preserve" transform="matrix(1 0 -0 1 0 482.28797)" font-size="9.9626" font-family="CMR10"><tspan y="-68.054" x="290.166 295.14729 300.12858">157</tspan></text>
<path transform="matrix(1,0,0,-1,42.52,42.51999)" d="M269.2947-382.68193H297.6415V-354.3351H269.2947Z" fill="#d2ffd2"/>
<text xml:space="preserve" transform="matrix(1 0 -0 1 0 482.28797)" font-size="9.9626" font-family="CMR10"><tspan y="-68.054" x="318.512 323.4933 328.47459">173</tspan></text>
<path transform="matrix(1,0,0,-1,42.52,42.51999)" d="M297.6415-382.68193H325.9883V-354.3351H297.6415Z" fill="#ffd2d2"/>
<text xml:space="preserve" transform="matrix(1 0 -0 1 -.000030517579 482.28797)" font-size="9.9626" font-family="CMR10"><tspan y="-68.054" x="346.859 351.8403 356.8216">189</tspan></text>
<path transform="matrix(1,0,0,-1,42.52,42.51999)" d="M325.9883-382.68193H354.3351V-354.3351H325.9883Z" fill="#afafff"/>
<text xml:space="preserve" transform="matrix(1 0 -0 1 0 482.28797)" font-size="9.9626" font-family="CMR10"><tspan y="-68.054" x="375.205 380.18629 385.16758">197</tspan></text>
<path transform="matrix(1,0,0,-1,42.52,42.51999)" d="M354.33515-382.68193H382.68196V-354.3351H354.33515Z" fill="#ffffaf"/>
<text xml:space="preserve" transform="matrix(1 0 -0 1 0 482.28797)" font-size="9.9626" font-family="CMR10"><tspan y="-68.054" x="403.551 408.5323 413.51359">213</tspan></text>
<path transform="matrix(1,0,0,-1,42.52,42.51999)" d="M382.68193-382.68193H411.02873V-354.3351H382.68193Z" fill="#d2d2ff"/>
<text xml:space="preserve" transform="matrix(1 0 -0 1 -.000030517579 482.28797)" font-size="9.9626" font-family="CMR10"><tspan y="-68.054" x="431.898 436.8793 441.8606">229</tspan></text>
<path transform="matrix(1,0,0,-1,42.52,42.51999)" d="M411.02876-382.68193H439.37556V-354.3351H411.02876Z" fill="#ffffd2"/>
<text xml:space="preserve" transform="matrix(1 0 -0 1 0 482.28797)" font-size="9.9626" font-family="CMR10"><tspan y="-68.054" x="460.244 465.22529 470.20658">245</tspan></text>
<path transform="matrix(1,0,0,-1,42.52,42.51999)" d="M-14.17339-411.02873H14.1734V-382.68193H-14.17339Z" fill="#afffaf"/>
<text xml:space="preserve" transform="matrix(1 0 -0 1 .0000038146974 482.288)" font-size="9.9626" font-family="CMR10"><tspan y="-39.708" x="37.538 42.5193">14</tspan></text>
<path transform="matrix(1,0,0,-1,42.52,42.51999)" d="M14.1734-411.02873H42.52019V-382.68193H14.1734Z" fill="#ffafaf"/>
<text xml:space="preserve" transform="matrix(1 0 -0 1 0 482.288)" font-size="9.9626" font-family="CMR10"><tspan y="-39.708" x="65.885 70.8663">30</tspan></text>
<path transform="matrix(1,0,0,-1,42.52,42.51999)" d="M42.52022-411.02873H70.86701V-382.68193H42.52022Z" fill="#d2ffd2"/>
<text xml:space="preserve" transform="matrix(1 0 -0 1 0 482.288)" font-size="9.9626" font-family="CMR10"><tspan y="-39.708" x="94.231 99.2123">46</tspan></text>
<path transform="matrix(1,0,0,-1,42.52,42.51999)" d="M70.86702-411.02873H99.213809V-382.68193H70.86702Z" fill="#ffd2d2"/>
<text xml:space="preserve" transform="matrix(1 0 -0 1 0 482.288)" font-size="9.9626" font-family="CMR10"><tspan y="-39.708" x="122.578 127.5593">62</tspan></text>
<path transform="matrix(1,0,0,-1,42.52,42.51999)" d="M99.21384-411.02873H127.56062V-382.68193H99.21384Z" fill="#afafff"/>
<text xml:space="preserve" transform="matrix(1 0 -0 1 0 482.288)" font-size="9.9626" font-family="CMR10"><tspan y="-39.708" x="150.924 155.90529">70</tspan></text>
<path transform="matrix(1,0,0,-1,42.52,42.51999)" d="M127.56064-411.02873H155.90743V-382.68193H127.56064Z" fill="#ffffaf"/>
<text xml:space="preserve" transform="matrix(1 0 -0 1 .000015258789 482.288)" font-size="9.9626" font-family="CMR10"><tspan y="-39.708" x="179.271 184.25229">86</tspan></text>
<path transform="matrix(1,0,0,-1,42.52,42.51999)" d="M155.90746-411.02873H184.25424V-382.68193H155.90746Z" fill="#d2d2ff"/>
<text xml:space="preserve" transform="matrix(1 0 -0 1 0 482.288)" font-size="9.9626" font-family="CMR10"><tspan y="-39.708" x="205.126 210.1073 215.0886">102</tspan></text>
<path transform="matrix(1,0,0,-1,42.52,42.51999)" d="M184.25426-411.02873H212.60105V-382.68193H184.25426Z" fill="#ffffd2"/>
<text xml:space="preserve" transform="matrix(1 0 -0 1 0 482.288)" font-size="9.9626" font-family="CMR10"><tspan y="-39.708" x="233.473 238.4543 243.4356">118</tspan></text>
<path transform="matrix(1,0,0,-1,42.52,42.51999)" d="M212.60108-411.02873H240.94786V-382.68193H212.60108Z" fill="#afffaf"/>
<text xml:space="preserve" transform="matrix(1 0 -0 1 0 482.288)" font-size="9.9626" font-family="CMR10"><tspan y="-39.708" x="261.819 266.8003 271.7816">142</tspan></text>
<path transform="matrix(1,0,0,-1,42.52,42.51999)" d="M240.94789-411.02873H269.29469V-382.68193H240.94789Z" fill="#ffafaf"/>
<text xml:space="preserve" transform="matrix(1 0 -0 1 0 482.288)" font-size="9.9626" font-family="CMR10"><tspan y="-39.708" x="290.166 295.14729 300.12858">158</tspan></text>
<path transform="matrix(1,0,0,-1,42.52,42.51999)" d="M269.2947-411.02873H297.6415V-382.68193H269.2947Z" fill="#d2ffd2"/>
<text xml:space="preserve" transform="matrix(1 0 -0 1 0 482.288)" font-size="9.9626" font-family="CMR10"><tspan y="-39.708" x="318.512 323.4933 328.47459">174</tspan></text>
<path transform="matrix(1,0,0,-1,42.52,42.51999)" d="M297.6415-411.02873H325.9883V-382.68193H297.6415Z" fill="#ffd2d2"/>
<text xml:space="preserve" transform="matrix(1 0 -0 1 -.000030517579 482.288)" font-size="9.9626" font-family="CMR10"><tspan y="-39.708" x="346.859 351.8403 356.8216">190</tspan></text>
<path transform="matrix(1,0,0,-1,42.52,42.51999)" d="M325.9883-411.02873H354.3351V-382.68193H325.9883Z" fill="#afafff"/>
<text xml:space="preserve" transform="matrix(1 0 -0 1 0 482.288)" font-size="9.9626" font-family="CMR10"><tspan y="-39.708" x="375.205 380.18629 385.16758">198</tspan></text>
<path transform="matrix(1,0,0,-1,42.52,42.51999)" d="M354.33515-411.02873H382.68196V-382.68193H354.33515Z" fill="#ffffaf"/>
<text xml:space="preserve" transform="matrix(1 0 -0 1 0 482.288)" font-size="9.9626" font-family="CMR10"><tspan y="-39.708" x="403.551 408.5323 413.51359">214</tspan></text>
<path transform="matrix(1,0,0,-1,42.52,42.51999)" d="M382.68193-411.02873H411.02873V-382.68193H382.68193Z" fill="#d2d2ff"/>
<text xml:space="preserve" transform="matrix(1 0 -0 1 -.000030517579 482.288)" font-size="9.9626" font-family="CMR10"><tspan y="-39.708" x="431.898 436.8793 441.8606">230</tspan></text>
<path transform="matrix(1,0,0,-1,42.52,42.51999)" d="M411.02876-411.02873H439.37556V-382.68193H411.02876Z" fill="#ffffd2"/>
<text xml:space="preserve" transform="matrix(1 0 -0 1 0 482.288)" font-size="9.9626" font-family="CMR10"><tspan y="-39.708" x="460.244 465.22529 470.20658">246</tspan></text>
<path transform="matrix(1,0,0,-1,42.52,42.51999)" d="M-14.17339-439.37553H14.1734V-411.02873H-14.17339Z" fill="#afffaf"/>
<text xml:space="preserve" transform="matrix(1 0 -0 1 .0000038146974 482.288)" font-size="9.9626" font-family="CMR10"><tspan y="-11.362" x="37.538 42.5193">15</tspan></text>
<path transform="matrix(1,0,0,-1,42.52,42.51999)" d="M14.1734-439.37553H42.52019V-411.02873H14.1734Z" fill="#ffafaf"/>
<text xml:space="preserve" transform="matrix(1 0 -0 1 0 482.288)" font-size="9.9626" font-family="CMR10"><tspan y="-11.362" x="65.885 70.8663">31</tspan></text>
<path transform="matrix(1,0,0,-1,42.52,42.51999)" d="M42.52022-439.37553H70.86701V-411.02873H42.52022Z" fill="#d2ffd2"/>
<text xml:space="preserve" transform="matrix(1 0 -0 1 0 482.288)" font-size="9.9626" font-family="CMR10"><tspan y="-11.362" x="94.231 99.2123">47</tspan></text>
<path transform="matrix(1,0,0,-1,42.52,42.51999)" d="M70.86702-439.37553H99.213809V-411.02873H70.86702Z" fill="#ffd2d2"/>
<text xml:space="preserve" transform="matrix(1 0 -0 1 0 482.288)" font-size="9.9626" font-family="CMR10"><tspan y="-11.362" x="122.578 127.5593">63</tspan></text>
<path transform="matrix(1,0,0,-1,42.52,42.51999)" d="M99.21384-439.37553H127.56062V-411.02873H99.21384Z" fill="#afafff"/>
<text xml:space="preserve" transform="matrix(1 0 -0 1 0 482.288)" font-size="9.9626" font-family="CMR10"><tspan y="-11.362" x="150.924 155.90529">71</tspan></text>
<path transform="matrix(1,0,0,-1,42.52,42.51999)" d="M127.56064-439.37553H155.90743V-411.02873H127.56064Z" fill="#ffffaf"/>
<text xml:space="preserve" transform="matrix(1 0 -0 1 .000015258789 482.288)" font-size="9.9626" font-family="CMR10"><tspan y="-11.362" x="179.271 184.25229">87</tspan></text>
<path transform="matrix(1,0,0,-1,42.52,42.51999)" d="M155.90746-439.37553H184.25424V-411.02873H155.90746Z" fill="#d2d2ff"/>
<text xml:space="preserve" transform="matrix(1 0 -0 1 0 482.288)" font-size="9.9626" font-family="CMR10"><tspan y="-11.362" x="205.126 210.1073 215.0886">103</tspan></text>
<path transform="matrix(1,0,0,-1,42.52,42.51999)" d="M184.25426-439.37553H212.60105V-411.02873H184.25426Z" fill="#ffffd2"/>
<text xml:space="preserve" transform="matrix(1 0 -0 1 0 482.288)" font-size="9.9626" font-family="CMR10"><tspan y="-11.362" x="233.473 238.4543 243.4356">119</tspan></text>
<path transform="matrix(1,0,0,-1,42.52,42.51999)" d="M212.60108-439.37553H240.94786V-411.02873H212.60108Z" fill="#afffaf"/>
<text xml:space="preserve" transform="matrix(1 0 -0 1 0 482.288)" font-size="9.9626" font-family="CMR10"><tspan y="-11.362" x="261.819 266.8003 271.7816">143</tspan></text>
<path transform="matrix(1,0,0,-1,42.52,42.51999)" d="M240.94789-439.37553H269.29469V-411.02873H240.94789Z" fill="#ffafaf"/>
<text xml:space="preserve" transform="matrix(1 0 -0 1 0 482.288)" font-size="9.9626" font-family="CMR10"><tspan y="-11.362" x="290.166 295.14729 300.12858">159</tspan></text>
<path transform="matrix(1,0,0,-1,42.52,42.51999)" d="M269.2947-439.37553H297.6415V-411.02873H269.2947Z" fill="#d2ffd2"/>
<text xml:space="preserve" transform="matrix(1 0 -0 1 0 482.288)" font-size="9.9626" font-family="CMR10"><tspan y="-11.362" x="318.512 323.4933 328.47459">175</tspan></text>
<path transform="matrix(1,0,0,-1,42.52,42.51999)" d="M297.6415-439.37553H325.9883V-411.02873H297.6415Z" fill="#ffd2d2"/>
<text xml:space="preserve" transform="matrix(1 0 -0 1 -.000030517579 482.288)" font-size="9.9626" font-family="CMR10"><tspan y="-11.362" x="346.859 351.8403 356.8216">191</tspan></text>
<path transform="matrix(1,0,0,-1,42.52,42.51999)" d="M325.9883-439.37553H354.3351V-411.02873H325.9883Z" fill="#afafff"/>
<text xml:space="preserve" transform="matrix(1 0 -0 1 0 482.288)" font-size="9.9626" font-family="CMR10"><tspan y="-11.362" x="375.205 380.18629 385.16758">199</tspan></text>
<path transform="matrix(1,0,0,-1,42.52,42.51999)" d="M354.33515-439.37553H382.68196V-411.02873H354.33515Z" fill="#ffffaf"/>
<text xml:space="preserve" transform="matrix(1 0 -0 1 0 482.288)" font-size="9.9626" font-family="CMR10"><tspan y="-11.362" x="403.551 408.5323 413.51359">215</tspan></text>
<path transform="matrix(1,0,0,-1,42.52,42.51999)" d="M382.68193-439.37553H411.02873V-411.02873H382.68193Z" fill="#d2d2ff"/>
<text xml:space="preserve" transform="matrix(1 0 -0 1 -.000030517579 482.288)" font-size="9.9626" font-family="CMR10"><tspan y="-11.362" x="431.898 436.8793 441.8606">231</tspan></text>
<path transform="matrix(1,0,0,-1,42.52,42.51999)" d="M411.02876-439.37553H439.37556V-411.02873H411.02876Z" fill="#ffffd2"/>
<text xml:space="preserve" transform="matrix(1 0 -0 1 0 482.288)" font-size="9.9626" font-family="CMR10"><tspan y="-11.362" x="460.244 465.22529 470.20658">247</tspan></text>
<path transform="matrix(1,0,0,-1,42.52,42.51999)" stroke-width=".79701" stroke-linecap="butt" stroke-miterlimit="10" stroke-linejoin="miter" fill="none" stroke="#000000" d="M-14.17339-439.37556H439.37556M-14.17339-411.02876H439.37556M-14.17339-382.68193H439.37556M-14.17339-354.33515H439.37556M-14.17339-325.9883H439.37556M-14.17339-297.6415H439.37556M-14.17339-269.2947H439.37556M-14.17339-240.94789H439.37556M-14.17339-212.60108H439.37556M-14.17339-184.25426H439.37556M-14.17339-155.90746H439.37556M-14.17339-127.56064H439.37556M-14.17339-99.21384H439.37556M-14.17339-70.86702H439.37556M-14.17339-42.52022H439.37556M-14.17339-14.1734H439.37556M-14.17339 14.16344H439.37556M-14.17339-439.37556V14.17339M14.1734-439.37556V14.17339M42.52022-439.37556V14.17339M70.86702-439.37556V14.17339M99.21384-439.37556V14.17339M127.56064-439.37556V14.17339M155.90746-439.37556V14.17339M184.25426-439.37556V14.17339M212.60108-439.37556V14.17339M240.94789-439.37556V14.17339M269.2947-439.37556V14.17339M297.6415-439.37556V14.17339M325.9883-439.37556V14.17339M354.33515-439.37556V14.17339M382.68193-439.37556V14.17339M411.02876-439.37556V14.17339M439.3656-439.37556V14.17339M439.37556-439.37556"/>
<text xml:space="preserve" transform="matrix(1 0 -0 1 .0000019073487 482.288)" font-size="14.3462" font-family="CMTT12"><tspan y="-435.385" x="10.482">0</tspan></text>
<text xml:space="preserve" transform="matrix(1 0 -0 1 .0000019073487 482.28797)" font-size="14.3462" font-family="CMTT12"><tspan y="-407.038" x="10.482">1</tspan></text>
<text xml:space="preserve" transform="matrix(1 0 -0 1 .0000019073487 482.28797)" font-size="14.3462" font-family="CMTT12"><tspan y="-378.692" x="10.482">2</tspan></text>
<text xml:space="preserve" transform="matrix(1 0 -0 1 .0000019073487 482.288)" font-size="14.3462" font-family="CMTT12"><tspan y="-350.346" x="10.482">3</tspan></text>
<text xml:space="preserve" transform="matrix(1 0 -0 1 .0000019073487 482.28797)" font-size="14.3462" font-family="CMTT12"><tspan y="-321.999" x="10.482">4</tspan></text>
<text xml:space="preserve" transform="matrix(1 0 -0 1 .0000019073487 482.28804)" font-size="14.3462" font-family="CMTT12"><tspan y="-293.653" x="10.482">5</tspan></text>
<text xml:space="preserve" transform="matrix(1 0 -0 1 .0000019073487 482.288)" font-size="14.3462" font-family="CMTT12"><tspan y="-265.306" x="10.482">6</tspan></text>
<text xml:space="preserve" transform="matrix(1 0 -0 1 .0000019073487 482.288)" font-size="14.3462" font-family="CMTT12"><tspan y="-236.96" x="10.482">7</tspan></text>
<text xml:space="preserve" transform="matrix(1 0 -0 1 .0000019073487 482.288)" font-size="14.3462" font-family="CMTT12"><tspan y="-208.613" x="10.482">8</tspan></text>
<text xml:space="preserve" transform="matrix(1 0 -0 1 .0000019073487 482.288)" font-size="14.3462" font-family="CMTT12"><tspan y="-180.267" x="10.482">9</tspan></text>
<text xml:space="preserve" transform="matrix(1 0 -0 1 .00000047683718 482.28797)" font-size="14.3462" font-family="CMTT12"><tspan y="-151.92" x="6.791 14.179294">10</tspan></text>
<text xml:space="preserve" transform="matrix(1 0 -0 1 .00000047683718 482.288)" font-size="14.3462" font-family="CMTT12"><tspan y="-123.574" x="6.791 14.179294">11</tspan></text>
<text xml:space="preserve" transform="matrix(1 0 -0 1 .00000047683718 482.288)" font-size="14.3462" font-family="CMTT12"><tspan y="-95.228" x="6.791 14.179294">12</tspan></text>
<text xml:space="preserve" transform="matrix(1 0 -0 1 .00000047683718 482.28797)" font-size="14.3462" font-family="CMTT12"><tspan y="-66.881" x="6.791 14.179294">13</tspan></text>
<text xml:space="preserve" transform="matrix(1 0 -0 1 .00000047683718 482.288)" font-size="14.3462" font-family="CMTT12"><tspan y="-38.535" x="6.791 14.179294">14</tspan></text>
<text xml:space="preserve" transform="matrix(1 0 -0 1 .00000047683718 482.28797)" font-size="14.3462" font-family="CMTT12"><tspan y="-10.188" x="6.791 14.179294">15</tspan></text>
<text xml:space="preserve" transform="matrix(1 0 -0 1 .0000038146974 482.28797)" font-size="14.3462" font-family="CMTT12"><tspan y="-463.731" x="38.829">0</tspan></text>
<text xml:space="preserve" transform="matrix(1 0 -0 1 0 482.28797)" font-size="14.3462" font-family="CMTT12"><tspan y="-463.731" x="67.175">1</tspan></text>
<text xml:space="preserve" transform="matrix(1 0 -0 1 -.0000076293949 482.28797)" font-size="14.3462" font-family="CMTT12"><tspan y="-463.731" x="95.521">2</tspan></text>
<text xml:space="preserve" transform="matrix(1 0 -0 1 0 482.28797)" font-size="14.3462" font-family="CMTT12"><tspan y="-463.731" x="123.868">3</tspan></text>
<text xml:space="preserve" transform="matrix(1 0 -0 1 0 482.28797)" font-size="14.3462" font-family="CMTT12"><tspan y="-463.731" x="152.214">4</tspan></text>
<text xml:space="preserve" transform="matrix(1 0 -0 1 0 482.28797)" font-size="14.3462" font-family="CMTT12"><tspan y="-463.731" x="180.561">5</tspan></text>
<text xml:space="preserve" transform="matrix(1 0 -0 1 0 482.28797)" font-size="14.3462" font-family="CMTT12"><tspan y="-463.731" x="208.907">6</tspan></text>
<text xml:space="preserve" transform="matrix(1 0 -0 1 0 482.28797)" font-size="14.3462" font-family="CMTT12"><tspan y="-463.731" x="237.254">7</tspan></text>
<text xml:space="preserve" transform="matrix(1 0 -0 1 0 482.28797)" font-size="14.3462" font-family="CMTT12"><tspan y="-463.731" x="265.6">8</tspan></text>
<text xml:space="preserve" transform="matrix(1 0 -0 1 0 482.28797)" font-size="14.3462" font-family="CMTT12"><tspan y="-463.731" x="293.947">9</tspan></text>
<text xml:space="preserve" transform="matrix(1 0 -0 1 0 482.28797)" font-size="14.3462" font-family="CMTT12"><tspan y="-463.731" x="318.602 325.9903">10</tspan></text>
<text xml:space="preserve" transform="matrix(1 0 -0 1 0 482.28797)" font-size="14.3462" font-family="CMTT12"><tspan y="-463.731" x="346.948 354.3363">11</tspan></text>
<text xml:space="preserve" transform="matrix(1 0 -0 1 -.000030517579 482.28797)" font-size="14.3462" font-family="CMTT12"><tspan y="-463.731" x="375.295 382.68333">12</tspan></text>
<text xml:space="preserve" transform="matrix(1 0 -0 1 0 482.28797)" font-size="14.3462" font-family="CMTT12"><tspan y="-463.731" x="403.641 411.0293">13</tspan></text>
<text xml:space="preserve" transform="matrix(1 0 -0 1 -.000030517579 482.28797)" font-size="14.3462" font-family="CMTT12"><tspan y="-463.731" x="431.988 439.3763">14</tspan></text>
<text xml:space="preserve" transform="matrix(1 0 -0 1 -.000030517579 482.28797)" font-size="14.3462" font-family="CMTT12"><tspan y="-463.731" x="460.334 467.72233">15</tspan></text>
</svg>
