<svg xmlns="http://www.w3.org/2000/svg" xmlns:xlink="http://www.w3.org/1999/xlink" xmlns:inkscape="http://www.inkscape.org/namespaces/inkscape" version="1.1" width="935.831" height="255.516" viewBox="0 0 935.831 255.516">
<path transform="matrix(1,0,0,-1,42.52,42.519014)" d="M-14.17339-14.17339H14.1734V14.1734H-14.17339Z" fill="#afafff"/>
<text xml:space="preserve" transform="matrix(1 0 -0 1 0 255.51602)" font-size="9.9626" font-family="CMR10"><tspan y="-209.787" x="40.029">0</tspan></text>
<path transform="matrix(1,0,0,-1,42.52,42.519014)" d="M14.1734-14.17339H42.52019V14.1734H14.1734Z" fill="#afafff"/>
<text xml:space="preserve" transform="matrix(1 0 -0 1 0 255.51602)" font-size="9.9626" font-family="CMR10"><tspan y="-209.787" x="68.375">1</tspan></text>
<path transform="matrix(1,0,0,-1,42.52,42.519014)" d="M42.52022-14.17339H70.86701V14.1734H42.52022Z" fill="#afafff"/>
<text xml:space="preserve" transform="matrix(1 0 -0 1 0 255.51602)" font-size="9.9626" font-family="CMR10"><tspan y="-209.787" x="96.722">2</tspan></text>
<path transform="matrix(1,0,0,-1,42.52,42.519014)" d="M70.86702-14.17339H99.213809V14.1734H70.86702Z" fill="#afafff"/>
<text xml:space="preserve" transform="matrix(1 0 -0 1 -.0000076293949 255.51602)" font-size="9.9626" font-family="CMR10"><tspan y="-209.787" x="125.068">3</tspan></text>
<path transform="matrix(1,0,0,-1,42.52,42.519014)" d="M99.21384-14.17339H127.56062V14.1734H99.21384Z" fill="#afafff"/>
<text xml:space="preserve" transform="matrix(1 0 -0 1 0 255.51602)" font-size="9.9626" font-family="CMR10"><tspan y="-209.787" x="153.415">4</tspan></text>
<path transform="matrix(1,0,0,-1,42.52,42.519014)" d="M127.56064-14.17339H155.90743V14.1734H127.56064Z" fill="#afafff"/>
<text xml:space="preserve" transform="matrix(1 0 -0 1 0 255.51602)" font-size="9.9626" font-family="CMR10"><tspan y="-209.787" x="181.761">5</tspan></text>
<path transform="matrix(1,0,0,-1,42.52,42.519014)" d="M155.90746-14.17339H184.25424V14.1734H155.90746Z" fill="#afafff"/>
<text xml:space="preserve" transform="matrix(1 0 -0 1 0 255.51602)" font-size="9.9626" font-family="CMR10"><tspan y="-209.787" x="210.108">6</tspan></text>
<path transform="matrix(1,0,0,-1,42.52,42.519014)" d="M184.25426-14.17339H212.60105V14.1734H184.25426Z" fill="#afafff"/>
<text xml:space="preserve" transform="matrix(1 0 -0 1 .000015258789 255.51602)" font-size="9.9626" font-family="CMR10"><tspan y="-209.787" x="238.454">7</tspan></text>
<path transform="matrix(1,0,0,-1,42.52,42.519014)" d="M212.60108-14.17339H240.94786V14.1734H212.60108Z" fill="#afffaf"/>
<text xml:space="preserve" transform="matrix(1 0 -0 1 0 255.51602)" font-size="9.9626" font-family="CMR10"><tspan y="-209.787" x="266.801">8</tspan></text>
<path transform="matrix(1,0,0,-1,42.52,42.519014)" d="M240.94789-14.17339H269.29469V14.1734H240.94789Z" fill="#afffaf"/>
<text xml:space="preserve" transform="matrix(1 0 -0 1 0 255.51602)" font-size="9.9626" font-family="CMR10"><tspan y="-209.787" x="295.147">9</tspan></text>
<path transform="matrix(1,0,0,-1,42.52,42.519014)" d="M269.2947-14.17339H297.6415V14.1734H269.2947Z" fill="#afffaf"/>
<text xml:space="preserve" transform="matrix(1 0 -0 1 0 255.51602)" font-size="9.9626" font-family="CMR10"><tspan y="-209.787" x="321.003 325.98429">10</tspan></text>
<path transform="matrix(1,0,0,-1,42.52,42.519014)" d="M297.6415-14.17339H325.9883V14.1734H297.6415Z" fill="#afffaf"/>
<text xml:space="preserve" transform="matrix(1 0 -0 1 0 255.51602)" font-size="9.9626" font-family="CMR10"><tspan y="-209.787" x="349.349 354.3303">11</tspan></text>
<path transform="matrix(1,0,0,-1,42.52,42.519014)" d="M325.9883-14.17339H354.3351V14.1734H325.9883Z" fill="#afffaf"/>
<text xml:space="preserve" transform="matrix(1 0 -0 1 -.000030517579 255.51602)" font-size="9.9626" font-family="CMR10"><tspan y="-209.787" x="377.696 382.6773">12</tspan></text>
<path transform="matrix(1,0,0,-1,42.52,42.519014)" d="M354.33515-14.17339H382.68196V14.1734H354.33515Z" fill="#afffaf"/>
<text xml:space="preserve" transform="matrix(1 0 -0 1 0 255.51602)" font-size="9.9626" font-family="CMR10"><tspan y="-209.787" x="406.042 411.0233">13</tspan></text>
<path transform="matrix(1,0,0,-1,42.52,42.519014)" d="M382.68193-14.17339H411.02873V14.1734H382.68193Z" fill="#afffaf"/>
<text xml:space="preserve" transform="matrix(1 0 -0 1 -.000030517579 255.51602)" font-size="9.9626" font-family="CMR10"><tspan y="-209.787" x="434.389 439.3703">14</tspan></text>
<path transform="matrix(1,0,0,-1,42.52,42.519014)" d="M411.02876-14.17339H439.37556V14.1734H411.02876Z" fill="#afffaf"/>
<text xml:space="preserve" transform="matrix(1 0 -0 1 0 255.51602)" font-size="9.9626" font-family="CMR10"><tspan y="-209.787" x="462.735 467.71629">15</tspan></text>
<path transform="matrix(1,0,0,-1,42.52,42.519014)" d="M439.37556-14.17339H467.72236V14.1734H439.37556Z" fill="#ffffaf"/>
<text xml:space="preserve" transform="matrix(1 0 -0 1 0 255.51602)" font-size="9.9626" font-family="CMR10"><tspan y="-209.787" x="491.081 496.0623">16</tspan></text>
<path transform="matrix(1,0,0,-1,42.52,42.519014)" d="M467.72239-14.17339H496.06919V14.1734H467.72239Z" fill="#ffffaf"/>
<text xml:space="preserve" transform="matrix(1 0 -0 1 0 255.51602)" font-size="9.9626" font-family="CMR10"><tspan y="-209.787" x="519.428 524.4093">17</tspan></text>
<path transform="matrix(1,0,0,-1,42.52,42.519014)" d="M496.06919-14.17339H524.41598V14.1734H496.06919Z" fill="#ffffaf"/>
<text xml:space="preserve" transform="matrix(1 0 -0 1 0 255.51602)" font-size="9.9626" font-family="CMR10"><tspan y="-209.787" x="547.774 552.7553">18</tspan></text>
<path transform="matrix(1,0,0,-1,42.52,42.519014)" d="M524.416-14.17339H552.7628V14.1734H524.416Z" fill="#ffffaf"/>
<text xml:space="preserve" transform="matrix(1 0 -0 1 .000061035159 255.51602)" font-size="9.9626" font-family="CMR10"><tspan y="-209.787" x="576.121 581.1023">19</tspan></text>
<path transform="matrix(1,0,0,-1,42.52,42.519014)" d="M552.7628-14.17339H581.1096V14.1734H552.7628Z" fill="#ffffaf"/>
<text xml:space="preserve" transform="matrix(1 0 -0 1 .000061035159 255.51602)" font-size="9.9626" font-family="CMR10"><tspan y="-209.787" x="604.467 609.4483">20</tspan></text>
<path transform="matrix(1,0,0,-1,42.52,42.519014)" d="M581.1096-14.17339H609.4564V14.1734H581.1096Z" fill="#ffffaf"/>
<text xml:space="preserve" transform="matrix(1 0 -0 1 0 255.51602)" font-size="9.9626" font-family="CMR10"><tspan y="-209.787" x="632.814 637.79537">21</tspan></text>
<path transform="matrix(1,0,0,-1,42.52,42.519014)" d="M609.4564-14.17339H637.8032V14.1734H609.4564Z" fill="#ffffaf"/>
<text xml:space="preserve" transform="matrix(1 0 -0 1 .000061035159 255.51602)" font-size="9.9626" font-family="CMR10"><tspan y="-209.787" x="661.16 666.1413">22</tspan></text>
<path transform="matrix(1,0,0,-1,42.52,42.519014)" d="M637.8032-14.17339H666.15V14.1734H637.8032Z" fill="#ffffaf"/>
<text xml:space="preserve" transform="matrix(1 0 -0 1 0 255.51602)" font-size="9.9626" font-family="CMR10"><tspan y="-209.787" x="689.507 694.48837">23</tspan></text>
<path transform="matrix(1,0,0,-1,42.52,42.519014)" d="M666.15-14.17339H694.4968V14.1734H666.15Z" fill="#ffafaf"/>
<text xml:space="preserve" transform="matrix(1 0 -0 1 0 255.51602)" font-size="9.9626" font-family="CMR10"><tspan y="-209.787" x="717.853 722.83438">24</tspan></text>
<path transform="matrix(1,0,0,-1,42.52,42.519014)" d="M694.4968-14.17339H722.8436V14.1734H694.4968Z" fill="#ffafaf"/>
<text xml:space="preserve" transform="matrix(1 0 -0 1 .000061035159 255.51602)" font-size="9.9626" font-family="CMR10"><tspan y="-209.787" x="746.199 751.1803">25</tspan></text>
<path transform="matrix(1,0,0,-1,42.52,42.519014)" d="M722.8437-14.17339H751.1905V14.1734H722.8437Z" fill="#ffafaf"/>
<text xml:space="preserve" transform="matrix(1 0 -0 1 0 255.51602)" font-size="9.9626" font-family="CMR10"><tspan y="-209.787" x="774.546 779.52737">26</tspan></text>
<path transform="matrix(1,0,0,-1,42.52,42.519014)" d="M751.1904-14.17339H779.53726V14.1734H751.1904Z" fill="#ffafaf"/>
<text xml:space="preserve" transform="matrix(1 0 -0 1 0 255.51602)" font-size="9.9626" font-family="CMR10"><tspan y="-209.787" x="802.892 807.87338">27</tspan></text>
<path transform="matrix(1,0,0,-1,42.52,42.519014)" d="M779.5373-14.17339H807.8841V14.1734H779.5373Z" fill="#ffafaf"/>
<text xml:space="preserve" transform="matrix(1 0 -0 1 0 255.51602)" font-size="9.9626" font-family="CMR10"><tspan y="-209.787" x="831.239 836.22036">28</tspan></text>
<path transform="matrix(1,0,0,-1,42.52,42.519014)" d="M807.8841-14.17339H836.2309V14.1734H807.8841Z" fill="#ffafaf"/>
<text xml:space="preserve" transform="matrix(1 0 -0 1 0 255.51602)" font-size="9.9626" font-family="CMR10"><tspan y="-209.787" x="859.585 864.56637">29</tspan></text>
<path transform="matrix(1,0,0,-1,42.52,42.519014)" d="M836.2309-14.17339H864.5777V14.1734H836.2309Z" fill="#ffafaf"/>
<text xml:space="preserve" transform="matrix(1 0 -0 1 0 255.51602)" font-size="9.9626" font-family="CMR10"><tspan y="-209.787" x="887.932 892.9133">30</tspan></text>
<path transform="matrix(1,0,0,-1,42.52,42.519014)" d="M864.5777-14.17339H892.9245V14.1734H864.5777Z" fill="#ffafaf"/>
<text xml:space="preserve" transform="matrix(1 0 -0 1 0 255.51602)" font-size="9.9626" font-family="CMR10"><tspan y="-209.787" x="916.278 921.25936">31</tspan></text>
<path transform="matrix(1,0,0,-1,42.52,42.519014)" d="M-14.17339-42.5202H14.1734V-14.1734089H-14.17339Z" fill="#d2d2ff"/>
<text xml:space="preserve" transform="matrix(1 0 -0 1 .0000038146974 255.51602)" font-size="9.9626" font-family="CMR10"><tspan y="-181.44" x="37.538 42.5193">32</tspan></text>
<path transform="matrix(1,0,0,-1,42.52,42.519014)" d="M14.1734-42.5202H42.52019V-14.1734089H14.1734Z" fill="#d2d2ff"/>
<text xml:space="preserve" transform="matrix(1 0 -0 1 0 255.51602)" font-size="9.9626" font-family="CMR10"><tspan y="-181.44" x="65.885 70.8663">33</tspan></text>
<path transform="matrix(1,0,0,-1,42.52,42.519014)" d="M42.52022-42.5202H70.86701V-14.1734089H42.52022Z" fill="#d2d2ff"/>
<text xml:space="preserve" transform="matrix(1 0 -0 1 0 255.51602)" font-size="9.9626" font-family="CMR10"><tspan y="-181.44" x="94.231 99.2123">34</tspan></text>
<path transform="matrix(1,0,0,-1,42.52,42.519014)" d="M70.86702-42.5202H99.213809V-14.1734089H70.86702Z" fill="#d2d2ff"/>
<text xml:space="preserve" transform="matrix(1 0 -0 1 0 255.51602)" font-size="9.9626" font-family="CMR10"><tspan y="-181.44" x="122.578 127.5593">35</tspan></text>
<path transform="matrix(1,0,0,-1,42.52,42.519014)" d="M99.21384-42.5202H127.56062V-14.1734089H99.21384Z" fill="#d2d2ff"/>
<text xml:space="preserve" transform="matrix(1 0 -0 1 0 255.51602)" font-size="9.9626" font-family="CMR10"><tspan y="-181.44" x="150.924 155.90529">36</tspan></text>
<path transform="matrix(1,0,0,-1,42.52,42.519014)" d="M127.56064-42.5202H155.90743V-14.1734089H127.56064Z" fill="#d2d2ff"/>
<text xml:space="preserve" transform="matrix(1 0 -0 1 .000015258789 255.51602)" font-size="9.9626" font-family="CMR10"><tspan y="-181.44" x="179.271 184.25229">37</tspan></text>
<path transform="matrix(1,0,0,-1,42.52,42.519014)" d="M155.90746-42.5202H184.25424V-14.1734089H155.90746Z" fill="#d2d2ff"/>
<text xml:space="preserve" transform="matrix(1 0 -0 1 0 255.51602)" font-size="9.9626" font-family="CMR10"><tspan y="-181.44" x="207.617 212.5983">38</tspan></text>
<path transform="matrix(1,0,0,-1,42.52,42.519014)" d="M184.25426-42.5202H212.60105V-14.1734089H184.25426Z" fill="#d2d2ff"/>
<text xml:space="preserve" transform="matrix(1 0 -0 1 0 255.51602)" font-size="9.9626" font-family="CMR10"><tspan y="-181.44" x="235.963 240.94429">39</tspan></text>
<path transform="matrix(1,0,0,-1,42.52,42.519014)" d="M212.60108-42.5202H240.94786V-14.1734089H212.60108Z" fill="#d2ffd2"/>
<text xml:space="preserve" transform="matrix(1 0 -0 1 0 255.51602)" font-size="9.9626" font-family="CMR10"><tspan y="-181.44" x="264.31 269.2913">40</tspan></text>
<path transform="matrix(1,0,0,-1,42.52,42.519014)" d="M240.94789-42.5202H269.29469V-14.1734089H240.94789Z" fill="#d2ffd2"/>
<text xml:space="preserve" transform="matrix(1 0 -0 1 0 255.51602)" font-size="9.9626" font-family="CMR10"><tspan y="-181.44" x="292.656 297.6373">41</tspan></text>
<path transform="matrix(1,0,0,-1,42.52,42.519014)" d="M269.2947-42.5202H297.6415V-14.1734089H269.2947Z" fill="#d2ffd2"/>
<text xml:space="preserve" transform="matrix(1 0 -0 1 0 255.51602)" font-size="9.9626" font-family="CMR10"><tspan y="-181.44" x="321.003 325.98429">42</tspan></text>
<path transform="matrix(1,0,0,-1,42.52,42.519014)" d="M297.6415-42.5202H325.9883V-14.1734089H297.6415Z" fill="#d2ffd2"/>
<text xml:space="preserve" transform="matrix(1 0 -0 1 0 255.51602)" font-size="9.9626" font-family="CMR10"><tspan y="-181.44" x="349.349 354.3303">43</tspan></text>
<path transform="matrix(1,0,0,-1,42.52,42.519014)" d="M325.9883-42.5202H354.3351V-14.1734089H325.9883Z" fill="#d2ffd2"/>
<text xml:space="preserve" transform="matrix(1 0 -0 1 -.000030517579 255.51602)" font-size="9.9626" font-family="CMR10"><tspan y="-181.44" x="377.696 382.6773">44</tspan></text>
<path transform="matrix(1,0,0,-1,42.52,42.519014)" d="M354.33515-42.5202H382.68196V-14.1734089H354.33515Z" fill="#d2ffd2"/>
<text xml:space="preserve" transform="matrix(1 0 -0 1 0 255.51602)" font-size="9.9626" font-family="CMR10"><tspan y="-181.44" x="406.042 411.0233">45</tspan></text>
<path transform="matrix(1,0,0,-1,42.52,42.519014)" d="M382.68193-42.5202H411.02873V-14.1734089H382.68193Z" fill="#d2ffd2"/>
<text xml:space="preserve" transform="matrix(1 0 -0 1 -.000030517579 255.51602)" font-size="9.9626" font-family="CMR10"><tspan y="-181.44" x="434.389 439.3703">46</tspan></text>
<path transform="matrix(1,0,0,-1,42.52,42.519014)" d="M411.02876-42.5202H439.37556V-14.1734089H411.02876Z" fill="#d2ffd2"/>
<text xml:space="preserve" transform="matrix(1 0 -0 1 0 255.51602)" font-size="9.9626" font-family="CMR10"><tspan y="-181.44" x="462.735 467.71629">47</tspan></text>
<path transform="matrix(1,0,0,-1,42.52,42.519014)" d="M439.37556-42.5202H467.72236V-14.1734089H439.37556Z" fill="#ffffd2"/>
<text xml:space="preserve" transform="matrix(1 0 -0 1 0 255.51602)" font-size="9.9626" font-family="CMR10"><tspan y="-181.44" x="491.081 496.0623">48</tspan></text>
<path transform="matrix(1,0,0,-1,42.52,42.519014)" d="M467.72239-42.5202H496.06919V-14.1734089H467.72239Z" fill="#ffffd2"/>
<text xml:space="preserve" transform="matrix(1 0 -0 1 0 255.51602)" font-size="9.9626" font-family="CMR10"><tspan y="-181.44" x="519.428 524.4093">49</tspan></text>
<path transform="matrix(1,0,0,-1,42.52,42.519014)" d="M496.06919-42.5202H524.41598V-14.1734089H496.06919Z" fill="#ffffd2"/>
<text xml:space="preserve" transform="matrix(1 0 -0 1 0 255.51602)" font-size="9.9626" font-family="CMR10"><tspan y="-181.44" x="547.774 552.7553">50</tspan></text>
<path transform="matrix(1,0,0,-1,42.52,42.519014)" d="M524.416-42.5202H552.7628V-14.1734089H524.416Z" fill="#ffffd2"/>
<text xml:space="preserve" transform="matrix(1 0 -0 1 .000061035159 255.51602)" font-size="9.9626" font-family="CMR10"><tspan y="-181.44" x="576.121 581.1023">51</tspan></text>
<path transform="matrix(1,0,0,-1,42.52,42.519014)" d="M552.7628-42.5202H581.1096V-14.1734089H552.7628Z" fill="#ffffd2"/>
<text xml:space="preserve" transform="matrix(1 0 -0 1 .000061035159 255.51602)" font-size="9.9626" font-family="CMR10"><tspan y="-181.44" x="604.467 609.4483">52</tspan></text>
<path transform="matrix(1,0,0,-1,42.52,42.519014)" d="M581.1096-42.5202H609.4564V-14.1734089H581.1096Z" fill="#ffffd2"/>
<text xml:space="preserve" transform="matrix(1 0 -0 1 0 255.51602)" font-size="9.9626" font-family="CMR10"><tspan y="-181.44" x="632.814 637.79537">53</tspan></text>
<path transform="matrix(1,0,0,-1,42.52,42.519014)" d="M609.4564-42.5202H637.8032V-14.1734089H609.4564Z" fill="#ffffd2"/>
<text xml:space="preserve" transform="matrix(1 0 -0 1 .000061035159 255.51602)" font-size="9.9626" font-family="CMR10"><tspan y="-181.44" x="661.16 666.1413">54</tspan></text>
<path transform="matrix(1,0,0,-1,42.52,42.519014)" d="M637.8032-42.5202H666.15V-14.1734089H637.8032Z" fill="#ffffd2"/>
<text xml:space="preserve" transform="matrix(1 0 -0 1 0 255.51602)" font-size="9.9626" font-family="CMR10"><tspan y="-181.44" x="689.507 694.48837">55</tspan></text>
<path transform="matrix(1,0,0,-1,42.52,42.519014)" d="M666.15-42.5202H694.4968V-14.1734089H666.15Z" fill="#ffd2d2"/>
<text xml:space="preserve" transform="matrix(1 0 -0 1 0 255.51602)" font-size="9.9626" font-family="CMR10"><tspan y="-181.44" x="717.853 722.83438">56</tspan></text>
<path transform="matrix(1,0,0,-1,42.52,42.519014)" d="M694.4968-42.5202H722.8436V-14.1734089H694.4968Z" fill="#ffd2d2"/>
<text xml:space="preserve" transform="matrix(1 0 -0 1 .000061035159 255.51602)" font-size="9.9626" font-family="CMR10"><tspan y="-181.44" x="746.199 751.1803">57</tspan></text>
<path transform="matrix(1,0,0,-1,42.52,42.519014)" d="M722.8437-42.5202H751.1905V-14.1734089H722.8437Z" fill="#ffd2d2"/>
<text xml:space="preserve" transform="matrix(1 0 -0 1 0 255.51602)" font-size="9.9626" font-family="CMR10"><tspan y="-181.44" x="774.546 779.52737">58</tspan></text>
<path transform="matrix(1,0,0,-1,42.52,42.519014)" d="M751.1904-42.5202H779.53726V-14.1734089H751.1904Z" fill="#ffd2d2"/>
<text xml:space="preserve" transform="matrix(1 0 -0 1 0 255.51602)" font-size="9.9626" font-family="CMR10"><tspan y="-181.44" x="802.892 807.87338">59</tspan></text>
<path transform="matrix(1,0,0,-1,42.52,42.519014)" d="M779.5373-42.5202H807.8841V-14.1734089H779.5373Z" fill="#ffd2d2"/>
<text xml:space="preserve" transform="matrix(1 0 -0 1 0 255.51602)" font-size="9.9626" font-family="CMR10"><tspan y="-181.44" x="831.239 836.22036">60</tspan></text>
<path transform="matrix(1,0,0,-1,42.52,42.519014)" d="M807.8841-42.5202H836.2309V-14.1734089H807.8841Z" fill="#ffd2d2"/>
<text xml:space="preserve" transform="matrix(1 0 -0 1 0 255.51602)" font-size="9.9626" font-family="CMR10"><tspan y="-181.44" x="859.585 864.56637">61</tspan></text>
<path transform="matrix(1,0,0,-1,42.52,42.519014)" d="M836.2309-42.5202H864.5777V-14.1734089H836.2309Z" fill="#ffd2d2"/>
<text xml:space="preserve" transform="matrix(1 0 -0 1 0 255.51602)" font-size="9.9626" font-family="CMR10"><tspan y="-181.44" x="887.932 892.9133">62</tspan></text>
<path transform="matrix(1,0,0,-1,42.52,42.519014)" d="M864.5777-42.5202H892.9245V-14.1734089H864.5777Z" fill="#ffd2d2"/>
<text xml:space="preserve" transform="matrix(1 0 -0 1 0 255.51602)" font-size="9.9626" font-family="CMR10"><tspan y="-181.44" x="916.278 921.25936">63</tspan></text>
<path transform="matrix(1,0,0,-1,42.52,42.519014)" d="M-14.17339-70.867H14.1734V-42.520208H-14.17339Z" fill="#afffaf"/>
<text xml:space="preserve" transform="matrix(1 0 -0 1 .0000038146974 255.516)" font-size="9.9626" font-family="CMR10"><tspan y="-153.094" x="37.538 42.5193">72</tspan></text>
<path transform="matrix(1,0,0,-1,42.52,42.519014)" d="M14.1734-70.867H42.52019V-42.520208H14.1734Z" fill="#afffaf"/>
<text xml:space="preserve" transform="matrix(1 0 -0 1 0 255.516)" font-size="9.9626" font-family="CMR10"><tspan y="-153.094" x="65.885 70.8663">73</tspan></text>
<path transform="matrix(1,0,0,-1,42.52,42.519014)" d="M42.52022-70.867H70.86701V-42.520208H42.52022Z" fill="#afffaf"/>
<text xml:space="preserve" transform="matrix(1 0 -0 1 0 255.516)" font-size="9.9626" font-family="CMR10"><tspan y="-153.094" x="94.231 99.2123">74</tspan></text>
<path transform="matrix(1,0,0,-1,42.52,42.519014)" d="M70.86702-70.867H99.213809V-42.520208H70.86702Z" fill="#afffaf"/>
<text xml:space="preserve" transform="matrix(1 0 -0 1 0 255.516)" font-size="9.9626" font-family="CMR10"><tspan y="-153.094" x="122.578 127.5593">75</tspan></text>
<path transform="matrix(1,0,0,-1,42.52,42.519014)" d="M99.21384-70.867H127.56062V-42.520208H99.21384Z" fill="#afffaf"/>
<text xml:space="preserve" transform="matrix(1 0 -0 1 0 255.516)" font-size="9.9626" font-family="CMR10"><tspan y="-153.094" x="150.924 155.90529">76</tspan></text>
<path transform="matrix(1,0,0,-1,42.52,42.519014)" d="M127.56064-70.867H155.90743V-42.520208H127.56064Z" fill="#afffaf"/>
<text xml:space="preserve" transform="matrix(1 0 -0 1 .000015258789 255.516)" font-size="9.9626" font-family="CMR10"><tspan y="-153.094" x="179.271 184.25229">77</tspan></text>
<path transform="matrix(1,0,0,-1,42.52,42.519014)" d="M155.90746-70.867H184.25424V-42.520208H155.90746Z" fill="#afffaf"/>
<text xml:space="preserve" transform="matrix(1 0 -0 1 0 255.516)" font-size="9.9626" font-family="CMR10"><tspan y="-153.094" x="207.617 212.5983">78</tspan></text>
<path transform="matrix(1,0,0,-1,42.52,42.519014)" d="M184.25426-70.867H212.60105V-42.520208H184.25426Z" fill="#afffaf"/>
<text xml:space="preserve" transform="matrix(1 0 -0 1 0 255.516)" font-size="9.9626" font-family="CMR10"><tspan y="-153.094" x="235.963 240.94429">79</tspan></text>
<path transform="matrix(1,0,0,-1,42.52,42.519014)" d="M212.60108-70.867H240.94786V-42.520208H212.60108Z" fill="#afafff"/>
<text xml:space="preserve" transform="matrix(1 0 -0 1 0 255.516)" font-size="9.9626" font-family="CMR10"><tspan y="-153.094" x="264.31 269.2913">64</tspan></text>
<path transform="matrix(1,0,0,-1,42.52,42.519014)" d="M240.94789-70.867H269.29469V-42.520208H240.94789Z" fill="#afafff"/>
<text xml:space="preserve" transform="matrix(1 0 -0 1 0 255.516)" font-size="9.9626" font-family="CMR10"><tspan y="-153.094" x="292.656 297.6373">65</tspan></text>
<path transform="matrix(1,0,0,-1,42.52,42.519014)" d="M269.2947-70.867H297.6415V-42.520208H269.2947Z" fill="#afafff"/>
<text xml:space="preserve" transform="matrix(1 0 -0 1 0 255.516)" font-size="9.9626" font-family="CMR10"><tspan y="-153.094" x="321.003 325.98429">66</tspan></text>
<path transform="matrix(1,0,0,-1,42.52,42.519014)" d="M297.6415-70.867H325.9883V-42.520208H297.6415Z" fill="#afafff"/>
<text xml:space="preserve" transform="matrix(1 0 -0 1 0 255.516)" font-size="9.9626" font-family="CMR10"><tspan y="-153.094" x="349.349 354.3303">67</tspan></text>
<path transform="matrix(1,0,0,-1,42.52,42.519014)" d="M325.9883-70.867H354.3351V-42.520208H325.9883Z" fill="#afafff"/>
<text xml:space="preserve" transform="matrix(1 0 -0 1 -.000030517579 255.516)" font-size="9.9626" font-family="CMR10"><tspan y="-153.094" x="377.696 382.6773">68</tspan></text>
<path transform="matrix(1,0,0,-1,42.52,42.519014)" d="M354.33515-70.867H382.68196V-42.520208H354.33515Z" fill="#afafff"/>
<text xml:space="preserve" transform="matrix(1 0 -0 1 0 255.516)" font-size="9.9626" font-family="CMR10"><tspan y="-153.094" x="406.042 411.0233">69</tspan></text>
<path transform="matrix(1,0,0,-1,42.52,42.519014)" d="M382.68193-70.867H411.02873V-42.520208H382.68193Z" fill="#afafff"/>
<text xml:space="preserve" transform="matrix(1 0 -0 1 -.000030517579 255.516)" font-size="9.9626" font-family="CMR10"><tspan y="-153.094" x="434.389 439.3703">70</tspan></text>
<path transform="matrix(1,0,0,-1,42.52,42.519014)" d="M411.02876-70.867H439.37556V-42.520208H411.02876Z" fill="#afafff"/>
<text xml:space="preserve" transform="matrix(1 0 -0 1 0 255.516)" font-size="9.9626" font-family="CMR10"><tspan y="-153.094" x="462.735 467.71629">71</tspan></text>
<path transform="matrix(1,0,0,-1,42.52,42.519014)" d="M439.37556-70.867H467.72236V-42.520208H439.37556Z" fill="#ffafaf"/>
<text xml:space="preserve" transform="matrix(1 0 -0 1 0 255.516)" font-size="9.9626" font-family="CMR10"><tspan y="-153.094" x="491.081 496.0623">88</tspan></text>
<path transform="matrix(1,0,0,-1,42.52,42.519014)" d="M467.72239-70.867H496.06919V-42.520208H467.72239Z" fill="#ffafaf"/>
<text xml:space="preserve" transform="matrix(1 0 -0 1 0 255.516)" font-size="9.9626" font-family="CMR10"><tspan y="-153.094" x="519.428 524.4093">89</tspan></text>
<path transform="matrix(1,0,0,-1,42.52,42.519014)" d="M496.06919-70.867H524.41598V-42.520208H496.06919Z" fill="#ffafaf"/>
<text xml:space="preserve" transform="matrix(1 0 -0 1 0 255.516)" font-size="9.9626" font-family="CMR10"><tspan y="-153.094" x="547.774 552.7553">90</tspan></text>
<path transform="matrix(1,0,0,-1,42.52,42.519014)" d="M524.416-70.867H552.7628V-42.520208H524.416Z" fill="#ffafaf"/>
<text xml:space="preserve" transform="matrix(1 0 -0 1 .000061035159 255.516)" font-size="9.9626" font-family="CMR10"><tspan y="-153.094" x="576.121 581.1023">91</tspan></text>
<path transform="matrix(1,0,0,-1,42.52,42.519014)" d="M552.7628-70.867H581.1096V-42.520208H552.7628Z" fill="#ffafaf"/>
<text xml:space="preserve" transform="matrix(1 0 -0 1 .000061035159 255.516)" font-size="9.9626" font-family="CMR10"><tspan y="-153.094" x="604.467 609.4483">92</tspan></text>
<path transform="matrix(1,0,0,-1,42.52,42.519014)" d="M581.1096-70.867H609.4564V-42.520208H581.1096Z" fill="#ffafaf"/>
<text xml:space="preserve" transform="matrix(1 0 -0 1 0 255.516)" font-size="9.9626" font-family="CMR10"><tspan y="-153.094" x="632.814 637.79537">93</tspan></text>
<path transform="matrix(1,0,0,-1,42.52,42.519014)" d="M609.4564-70.867H637.8032V-42.520208H609.4564Z" fill="#ffafaf"/>
<text xml:space="preserve" transform="matrix(1 0 -0 1 .000061035159 255.516)" font-size="9.9626" font-family="CMR10"><tspan y="-153.094" x="661.16 666.1413">94</tspan></text>
<path transform="matrix(1,0,0,-1,42.52,42.519014)" d="M637.8032-70.867H666.15V-42.520208H637.8032Z" fill="#ffafaf"/>
<text xml:space="preserve" transform="matrix(1 0 -0 1 0 255.516)" font-size="9.9626" font-family="CMR10"><tspan y="-153.094" x="689.507 694.48837">95</tspan></text>
<path transform="matrix(1,0,0,-1,42.52,42.519014)" d="M666.15-70.867H694.4968V-42.520208H666.15Z" fill="#ffffaf"/>
<text xml:space="preserve" transform="matrix(1 0 -0 1 0 255.516)" font-size="9.9626" font-family="CMR10"><tspan y="-153.094" x="717.853 722.83438">80</tspan></text>
<path transform="matrix(1,0,0,-1,42.52,42.519014)" d="M694.4968-70.867H722.8436V-42.520208H694.4968Z" fill="#ffffaf"/>
<text xml:space="preserve" transform="matrix(1 0 -0 1 .000061035159 255.516)" font-size="9.9626" font-family="CMR10"><tspan y="-153.094" x="746.199 751.1803">81</tspan></text>
<path transform="matrix(1,0,0,-1,42.52,42.519014)" d="M722.8437-70.867H751.1905V-42.520208H722.8437Z" fill="#ffffaf"/>
<text xml:space="preserve" transform="matrix(1 0 -0 1 0 255.516)" font-size="9.9626" font-family="CMR10"><tspan y="-153.094" x="774.546 779.52737">82</tspan></text>
<path transform="matrix(1,0,0,-1,42.52,42.519014)" d="M751.1904-70.867H779.53726V-42.520208H751.1904Z" fill="#ffffaf"/>
<text xml:space="preserve" transform="matrix(1 0 -0 1 0 255.516)" font-size="9.9626" font-family="CMR10"><tspan y="-153.094" x="802.892 807.87338">83</tspan></text>
<path transform="matrix(1,0,0,-1,42.52,42.519014)" d="M779.5373-70.867H807.8841V-42.520208H779.5373Z" fill="#ffffaf"/>
<text xml:space="preserve" transform="matrix(1 0 -0 1 0 255.516)" font-size="9.9626" font-family="CMR10"><tspan y="-153.094" x="831.239 836.22036">84</tspan></text>
<path transform="matrix(1,0,0,-1,42.52,42.519014)" d="M807.8841-70.867H836.2309V-42.520208H807.8841Z" fill="#ffffaf"/>
<text xml:space="preserve" transform="matrix(1 0 -0 1 0 255.516)" font-size="9.9626" font-family="CMR10"><tspan y="-153.094" x="859.585 864.56637">85</tspan></text>
<path transform="matrix(1,0,0,-1,42.52,42.519014)" d="M836.2309-70.867H864.5777V-42.520208H836.2309Z" fill="#ffffaf"/>
<text xml:space="preserve" transform="matrix(1 0 -0 1 0 255.516)" font-size="9.9626" font-family="CMR10"><tspan y="-153.094" x="887.932 892.9133">86</tspan></text>
<path transform="matrix(1,0,0,-1,42.52,42.519014)" d="M864.5777-70.867H892.9245V-42.520208H864.5777Z" fill="#ffffaf"/>
<text xml:space="preserve" transform="matrix(1 0 -0 1 0 255.516)" font-size="9.9626" font-family="CMR10"><tspan y="-153.094" x="916.278 921.25936">87</tspan></text>
<path transform="matrix(1,0,0,-1,42.52,42.519014)" d="M-14.17339-99.21382H14.1734V-70.867038H-14.17339Z" fill="#d2ffd2"/>
<text xml:space="preserve" transform="matrix(1 0 -0 1 0 255.51602)" font-size="9.9626" font-family="CMR10"><tspan y="-124.747" x="35.048 40.0293 45.0106">104</tspan></text>
<path transform="matrix(1,0,0,-1,42.52,42.519014)" d="M14.1734-99.21382H42.52019V-70.867038H14.1734Z" fill="#d2ffd2"/>
<text xml:space="preserve" transform="matrix(1 0 -0 1 0 255.51602)" font-size="9.9626" font-family="CMR10"><tspan y="-124.747" x="63.394 68.3753 73.3566">105</tspan></text>
<path transform="matrix(1,0,0,-1,42.52,42.519014)" d="M42.52022-99.21382H70.86701V-70.867038H42.52022Z" fill="#d2ffd2"/>
<text xml:space="preserve" transform="matrix(1 0 -0 1 0 255.51602)" font-size="9.9626" font-family="CMR10"><tspan y="-124.747" x="91.741 96.7223 101.7036">106</tspan></text>
<path transform="matrix(1,0,0,-1,42.52,42.519014)" d="M70.86702-99.21382H99.213809V-70.867038H70.86702Z" fill="#d2ffd2"/>
<text xml:space="preserve" transform="matrix(1 0 -0 1 .0000076293949 255.51602)" font-size="9.9626" font-family="CMR10"><tspan y="-124.747" x="120.087 125.0683 130.04959">107</tspan></text>
<path transform="matrix(1,0,0,-1,42.52,42.519014)" d="M99.21384-99.21382H127.56062V-70.867038H99.21384Z" fill="#d2ffd2"/>
<text xml:space="preserve" transform="matrix(1 0 -0 1 0 255.51602)" font-size="9.9626" font-family="CMR10"><tspan y="-124.747" x="148.433 153.41429 158.39559">108</tspan></text>
<path transform="matrix(1,0,0,-1,42.52,42.519014)" d="M127.56064-99.21382H155.90743V-70.867038H127.56064Z" fill="#d2ffd2"/>
<text xml:space="preserve" transform="matrix(1 0 -0 1 0 255.51602)" font-size="9.9626" font-family="CMR10"><tspan y="-124.747" x="176.78 181.76129 186.74259">109</tspan></text>
<path transform="matrix(1,0,0,-1,42.52,42.519014)" d="M155.90746-99.21382H184.25424V-70.867038H155.90746Z" fill="#d2ffd2"/>
<text xml:space="preserve" transform="matrix(1 0 -0 1 0 255.51602)" font-size="9.9626" font-family="CMR10"><tspan y="-124.747" x="205.126 210.1073 215.0886">110</tspan></text>
<path transform="matrix(1,0,0,-1,42.52,42.519014)" d="M184.25426-99.21382H212.60105V-70.867038H184.25426Z" fill="#d2ffd2"/>
<text xml:space="preserve" transform="matrix(1 0 -0 1 0 255.51602)" font-size="9.9626" font-family="CMR10"><tspan y="-124.747" x="233.473 238.4543 243.4356">111</tspan></text>
<path transform="matrix(1,0,0,-1,42.52,42.519014)" d="M212.60108-99.21382H240.94786V-70.867038H212.60108Z" fill="#d2d2ff"/>
<text xml:space="preserve" transform="matrix(1 0 -0 1 0 255.51602)" font-size="9.9626" font-family="CMR10"><tspan y="-124.747" x="264.31 269.2913">96</tspan></text>
<path transform="matrix(1,0,0,-1,42.52,42.519014)" d="M240.94789-99.21382H269.29469V-70.867038H240.94789Z" fill="#d2d2ff"/>
<text xml:space="preserve" transform="matrix(1 0 -0 1 0 255.51602)" font-size="9.9626" font-family="CMR10"><tspan y="-124.747" x="292.656 297.6373">97</tspan></text>
<path transform="matrix(1,0,0,-1,42.52,42.519014)" d="M269.2947-99.21382H297.6415V-70.867038H269.2947Z" fill="#d2d2ff"/>
<text xml:space="preserve" transform="matrix(1 0 -0 1 0 255.51602)" font-size="9.9626" font-family="CMR10"><tspan y="-124.747" x="321.003 325.98429">98</tspan></text>
<path transform="matrix(1,0,0,-1,42.52,42.519014)" d="M297.6415-99.21382H325.9883V-70.867038H297.6415Z" fill="#d2d2ff"/>
<text xml:space="preserve" transform="matrix(1 0 -0 1 0 255.51602)" font-size="9.9626" font-family="CMR10"><tspan y="-124.747" x="349.349 354.3303">99</tspan></text>
<path transform="matrix(1,0,0,-1,42.52,42.519014)" d="M325.9883-99.21382H354.3351V-70.867038H325.9883Z" fill="#d2d2ff"/>
<text xml:space="preserve" transform="matrix(1 0 -0 1 0 255.51602)" font-size="9.9626" font-family="CMR10"><tspan y="-124.747" x="375.205 380.18629 385.16758">100</tspan></text>
<path transform="matrix(1,0,0,-1,42.52,42.519014)" d="M354.33515-99.21382H382.68196V-70.867038H354.33515Z" fill="#d2d2ff"/>
<text xml:space="preserve" transform="matrix(1 0 -0 1 0 255.51602)" font-size="9.9626" font-family="CMR10"><tspan y="-124.747" x="403.551 408.5323 413.51359">101</tspan></text>
<path transform="matrix(1,0,0,-1,42.52,42.519014)" d="M382.68193-99.21382H411.02873V-70.867038H382.68193Z" fill="#d2d2ff"/>
<text xml:space="preserve" transform="matrix(1 0 -0 1 -.000030517579 255.51602)" font-size="9.9626" font-family="CMR10"><tspan y="-124.747" x="431.898 436.8793 441.8606">102</tspan></text>
<path transform="matrix(1,0,0,-1,42.52,42.519014)" d="M411.02876-99.21382H439.37556V-70.867038H411.02876Z" fill="#d2d2ff"/>
<text xml:space="preserve" transform="matrix(1 0 -0 1 0 255.51602)" font-size="9.9626" font-family="CMR10"><tspan y="-124.747" x="460.244 465.22529 470.20658">103</tspan></text>
<path transform="matrix(1,0,0,-1,42.52,42.519014)" d="M439.37556-99.21382H467.72236V-70.867038H439.37556Z" fill="#ffd2d2"/>
<text xml:space="preserve" transform="matrix(1 0 -0 1 0 255.51602)" font-size="9.9626" font-family="CMR10"><tspan y="-124.747" x="488.591 493.5723 498.5536">120</tspan></text>
<path transform="matrix(1,0,0,-1,42.52,42.519014)" d="M467.72239-99.21382H496.06919V-70.867038H467.72239Z" fill="#ffd2d2"/>
<text xml:space="preserve" transform="matrix(1 0 -0 1 0 255.51602)" font-size="9.9626" font-family="CMR10"><tspan y="-124.747" x="516.937 521.91836 526.89968">121</tspan></text>
<path transform="matrix(1,0,0,-1,42.52,42.519014)" d="M496.06919-99.21382H524.41598V-70.867038H496.06919Z" fill="#ffd2d2"/>
<text xml:space="preserve" transform="matrix(1 0 -0 1 0 255.51602)" font-size="9.9626" font-family="CMR10"><tspan y="-124.747" x="545.284 550.2653 555.24667">122</tspan></text>
<path transform="matrix(1,0,0,-1,42.52,42.519014)" d="M524.416-99.21382H552.7628V-70.867038H524.416Z" fill="#ffd2d2"/>
<text xml:space="preserve" transform="matrix(1 0 -0 1 0 255.51602)" font-size="9.9626" font-family="CMR10"><tspan y="-124.747" x="573.63 578.6113 583.59268">123</tspan></text>
<path transform="matrix(1,0,0,-1,42.52,42.519014)" d="M552.7628-99.21382H581.1096V-70.867038H552.7628Z" fill="#ffd2d2"/>
<text xml:space="preserve" transform="matrix(1 0 -0 1 0 255.51602)" font-size="9.9626" font-family="CMR10"><tspan y="-124.747" x="601.977 606.9583 611.93966">124</tspan></text>
<path transform="matrix(1,0,0,-1,42.52,42.519014)" d="M581.1096-99.21382H609.4564V-70.867038H581.1096Z" fill="#ffd2d2"/>
<text xml:space="preserve" transform="matrix(1 0 -0 1 0 255.51602)" font-size="9.9626" font-family="CMR10"><tspan y="-124.747" x="630.323 635.3043 640.28567">125</tspan></text>
<path transform="matrix(1,0,0,-1,42.52,42.519014)" d="M609.4564-99.21382H637.8032V-70.867038H609.4564Z" fill="#ffd2d2"/>
<text xml:space="preserve" transform="matrix(1 0 -0 1 0 255.51602)" font-size="9.9626" font-family="CMR10"><tspan y="-124.747" x="658.669 663.6503 668.63168">126</tspan></text>
<path transform="matrix(1,0,0,-1,42.52,42.519014)" d="M637.8032-99.21382H666.15V-70.867038H637.8032Z" fill="#ffd2d2"/>
<text xml:space="preserve" transform="matrix(1 0 -0 1 0 255.51602)" font-size="9.9626" font-family="CMR10"><tspan y="-124.747" x="687.016 691.9973 696.97866">127</tspan></text>
<path transform="matrix(1,0,0,-1,42.52,42.519014)" d="M666.15-99.21382H694.4968V-70.867038H666.15Z" fill="#ffffd2"/>
<text xml:space="preserve" transform="matrix(1 0 -0 1 0 255.51602)" font-size="9.9626" font-family="CMR10"><tspan y="-124.747" x="715.362 720.3433 725.32467">112</tspan></text>
<path transform="matrix(1,0,0,-1,42.52,42.519014)" d="M694.4968-99.21382H722.8436V-70.867038H694.4968Z" fill="#ffffd2"/>
<text xml:space="preserve" transform="matrix(1 0 -0 1 .000061035159 255.51602)" font-size="9.9626" font-family="CMR10"><tspan y="-124.747" x="743.709 748.6903 753.67166">113</tspan></text>
<path transform="matrix(1,0,0,-1,42.52,42.519014)" d="M722.8437-99.21382H751.1905V-70.867038H722.8437Z" fill="#ffffd2"/>
<text xml:space="preserve" transform="matrix(1 0 -0 1 0 255.51602)" font-size="9.9626" font-family="CMR10"><tspan y="-124.747" x="772.055 777.0363 782.01766">114</tspan></text>
<path transform="matrix(1,0,0,-1,42.52,42.519014)" d="M751.1904-99.21382H779.53726V-70.867038H751.1904Z" fill="#ffffd2"/>
<text xml:space="preserve" transform="matrix(1 0 -0 1 .000061035159 255.51602)" font-size="9.9626" font-family="CMR10"><tspan y="-124.747" x="800.402 805.3833 810.3646">115</tspan></text>
<path transform="matrix(1,0,0,-1,42.52,42.519014)" d="M779.5373-99.21382H807.8841V-70.867038H779.5373Z" fill="#ffffd2"/>
<text xml:space="preserve" transform="matrix(1 0 -0 1 .000061035159 255.51602)" font-size="9.9626" font-family="CMR10"><tspan y="-124.747" x="828.748 833.7293 838.71066">116</tspan></text>
<path transform="matrix(1,0,0,-1,42.52,42.519014)" d="M807.8841-99.21382H836.2309V-70.867038H807.8841Z" fill="#ffffd2"/>
<text xml:space="preserve" transform="matrix(1 0 -0 1 .000061035159 255.51602)" font-size="9.9626" font-family="CMR10"><tspan y="-124.747" x="857.095 862.0763 867.0576">117</tspan></text>
<path transform="matrix(1,0,0,-1,42.52,42.519014)" d="M836.2309-99.21382H864.5777V-70.867038H836.2309Z" fill="#ffffd2"/>
<text xml:space="preserve" transform="matrix(1 0 -0 1 .000061035159 255.51602)" font-size="9.9626" font-family="CMR10"><tspan y="-124.747" x="885.441 890.4223 895.4036">118</tspan></text>
<path transform="matrix(1,0,0,-1,42.52,42.519014)" d="M864.5777-99.21382H892.9245V-70.867038H864.5777Z" fill="#ffffd2"/>
<text xml:space="preserve" transform="matrix(1 0 -0 1 .000061035159 255.51602)" font-size="9.9626" font-family="CMR10"><tspan y="-124.747" x="913.787 918.7683 923.74966">119</tspan></text>
<path transform="matrix(1,0,0,-1,42.52,42.519014)" d="M-14.17339-127.56062H14.1734V-99.21384H-14.17339Z" fill="#ffffaf"/>
<text xml:space="preserve" transform="matrix(1 0 -0 1 0 255.51602)" font-size="9.9626" font-family="CMR10"><tspan y="-96.401" x="35.048 40.0293 45.0106">144</tspan></text>
<path transform="matrix(1,0,0,-1,42.52,42.519014)" d="M14.1734-127.56062H42.52019V-99.21384H14.1734Z" fill="#ffffaf"/>
<text xml:space="preserve" transform="matrix(1 0 -0 1 0 255.51602)" font-size="9.9626" font-family="CMR10"><tspan y="-96.401" x="63.394 68.3753 73.3566">145</tspan></text>
<path transform="matrix(1,0,0,-1,42.52,42.519014)" d="M42.52022-127.56062H70.86701V-99.21384H42.52022Z" fill="#ffffaf"/>
<text xml:space="preserve" transform="matrix(1 0 -0 1 0 255.51602)" font-size="9.9626" font-family="CMR10"><tspan y="-96.401" x="91.741 96.7223 101.7036">146</tspan></text>
<path transform="matrix(1,0,0,-1,42.52,42.519014)" d="M70.86702-127.56062H99.213809V-99.21384H70.86702Z" fill="#ffffaf"/>
<text xml:space="preserve" transform="matrix(1 0 -0 1 .0000076293949 255.51602)" font-size="9.9626" font-family="CMR10"><tspan y="-96.401" x="120.087 125.0683 130.04959">147</tspan></text>
<path transform="matrix(1,0,0,-1,42.52,42.519014)" d="M99.21384-127.56062H127.56062V-99.21384H99.21384Z" fill="#ffffaf"/>
<text xml:space="preserve" transform="matrix(1 0 -0 1 0 255.51602)" font-size="9.9626" font-family="CMR10"><tspan y="-96.401" x="148.433 153.41429 158.39559">148</tspan></text>
<path transform="matrix(1,0,0,-1,42.52,42.519014)" d="M127.56064-127.56062H155.90743V-99.21384H127.56064Z" fill="#ffffaf"/>
<text xml:space="preserve" transform="matrix(1 0 -0 1 0 255.51602)" font-size="9.9626" font-family="CMR10"><tspan y="-96.401" x="176.78 181.76129 186.74259">149</tspan></text>
<path transform="matrix(1,0,0,-1,42.52,42.519014)" d="M155.90746-127.56062H184.25424V-99.21384H155.90746Z" fill="#ffffaf"/>
<text xml:space="preserve" transform="matrix(1 0 -0 1 0 255.51602)" font-size="9.9626" font-family="CMR10"><tspan y="-96.401" x="205.126 210.1073 215.0886">150</tspan></text>
<path transform="matrix(1,0,0,-1,42.52,42.519014)" d="M184.25426-127.56062H212.60105V-99.21384H184.25426Z" fill="#ffffaf"/>
<text xml:space="preserve" transform="matrix(1 0 -0 1 0 255.51602)" font-size="9.9626" font-family="CMR10"><tspan y="-96.401" x="233.473 238.4543 243.4356">151</tspan></text>
<path transform="matrix(1,0,0,-1,42.52,42.519014)" d="M212.60108-127.56062H240.94786V-99.21384H212.60108Z" fill="#ffafaf"/>
<text xml:space="preserve" transform="matrix(1 0 -0 1 0 255.51602)" font-size="9.9626" font-family="CMR10"><tspan y="-96.401" x="261.819 266.8003 271.7816">152</tspan></text>
<path transform="matrix(1,0,0,-1,42.52,42.519014)" d="M240.94789-127.56062H269.29469V-99.21384H240.94789Z" fill="#ffafaf"/>
<text xml:space="preserve" transform="matrix(1 0 -0 1 0 255.51602)" font-size="9.9626" font-family="CMR10"><tspan y="-96.401" x="290.166 295.14729 300.12858">153</tspan></text>
<path transform="matrix(1,0,0,-1,42.52,42.519014)" d="M269.2947-127.56062H297.6415V-99.21384H269.2947Z" fill="#ffafaf"/>
<text xml:space="preserve" transform="matrix(1 0 -0 1 0 255.51602)" font-size="9.9626" font-family="CMR10"><tspan y="-96.401" x="318.512 323.4933 328.47459">154</tspan></text>
<path transform="matrix(1,0,0,-1,42.52,42.519014)" d="M297.6415-127.56062H325.9883V-99.21384H297.6415Z" fill="#ffafaf"/>
<text xml:space="preserve" transform="matrix(1 0 -0 1 -.000030517579 255.51602)" font-size="9.9626" font-family="CMR10"><tspan y="-96.401" x="346.859 351.8403 356.8216">155</tspan></text>
<path transform="matrix(1,0,0,-1,42.52,42.519014)" d="M325.9883-127.56062H354.3351V-99.21384H325.9883Z" fill="#ffafaf"/>
<text xml:space="preserve" transform="matrix(1 0 -0 1 0 255.51602)" font-size="9.9626" font-family="CMR10"><tspan y="-96.401" x="375.205 380.18629 385.16758">156</tspan></text>
<path transform="matrix(1,0,0,-1,42.52,42.519014)" d="M354.33515-127.56062H382.68196V-99.21384H354.33515Z" fill="#ffafaf"/>
<text xml:space="preserve" transform="matrix(1 0 -0 1 0 255.51602)" font-size="9.9626" font-family="CMR10"><tspan y="-96.401" x="403.551 408.5323 413.51359">157</tspan></text>
<path transform="matrix(1,0,0,-1,42.52,42.519014)" d="M382.68193-127.56062H411.02873V-99.21384H382.68193Z" fill="#ffafaf"/>
<text xml:space="preserve" transform="matrix(1 0 -0 1 -.000030517579 255.51602)" font-size="9.9626" font-family="CMR10"><tspan y="-96.401" x="431.898 436.8793 441.8606">158</tspan></text>
<path transform="matrix(1,0,0,-1,42.52,42.519014)" d="M411.02876-127.56062H439.37556V-99.21384H411.02876Z" fill="#ffafaf"/>
<text xml:space="preserve" transform="matrix(1 0 -0 1 0 255.51602)" font-size="9.9626" font-family="CMR10"><tspan y="-96.401" x="460.244 465.22529 470.20658">159</tspan></text>
<path transform="matrix(1,0,0,-1,42.52,42.519014)" d="M439.37556-127.56062H467.72236V-99.21384H439.37556Z" fill="#afafff"/>
<text xml:space="preserve" transform="matrix(1 0 -0 1 0 255.51602)" font-size="9.9626" font-family="CMR10"><tspan y="-96.401" x="488.591 493.5723 498.5536">128</tspan></text>
<path transform="matrix(1,0,0,-1,42.52,42.519014)" d="M467.72239-127.56062H496.06919V-99.21384H467.72239Z" fill="#afafff"/>
<text xml:space="preserve" transform="matrix(1 0 -0 1 0 255.51602)" font-size="9.9626" font-family="CMR10"><tspan y="-96.401" x="516.937 521.91836 526.89968">129</tspan></text>
<path transform="matrix(1,0,0,-1,42.52,42.519014)" d="M496.06919-127.56062H524.41598V-99.21384H496.06919Z" fill="#afafff"/>
<text xml:space="preserve" transform="matrix(1 0 -0 1 0 255.51602)" font-size="9.9626" font-family="CMR10"><tspan y="-96.401" x="545.284 550.2653 555.24667">130</tspan></text>
<path transform="matrix(1,0,0,-1,42.52,42.519014)" d="M524.416-127.56062H552.7628V-99.21384H524.416Z" fill="#afafff"/>
<text xml:space="preserve" transform="matrix(1 0 -0 1 0 255.51602)" font-size="9.9626" font-family="CMR10"><tspan y="-96.401" x="573.63 578.6113 583.59268">131</tspan></text>
<path transform="matrix(1,0,0,-1,42.52,42.519014)" d="M552.7628-127.56062H581.1096V-99.21384H552.7628Z" fill="#afafff"/>
<text xml:space="preserve" transform="matrix(1 0 -0 1 0 255.51602)" font-size="9.9626" font-family="CMR10"><tspan y="-96.401" x="601.977 606.9583 611.93966">132</tspan></text>
<path transform="matrix(1,0,0,-1,42.52,42.519014)" d="M581.1096-127.56062H609.4564V-99.21384H581.1096Z" fill="#afafff"/>
<text xml:space="preserve" transform="matrix(1 0 -0 1 0 255.51602)" font-size="9.9626" font-family="CMR10"><tspan y="-96.401" x="630.323 635.3043 640.28567">133</tspan></text>
<path transform="matrix(1,0,0,-1,42.52,42.519014)" d="M609.4564-127.56062H637.8032V-99.21384H609.4564Z" fill="#afafff"/>
<text xml:space="preserve" transform="matrix(1 0 -0 1 0 255.51602)" font-size="9.9626" font-family="CMR10"><tspan y="-96.401" x="658.669 663.6503 668.63168">134</tspan></text>
<path transform="matrix(1,0,0,-1,42.52,42.519014)" d="M637.8032-127.56062H666.15V-99.21384H637.8032Z" fill="#afafff"/>
<text xml:space="preserve" transform="matrix(1 0 -0 1 0 255.51602)" font-size="9.9626" font-family="CMR10"><tspan y="-96.401" x="687.016 691.9973 696.97866">135</tspan></text>
<path transform="matrix(1,0,0,-1,42.52,42.519014)" d="M666.15-127.56062H694.4968V-99.21384H666.15Z" fill="#afffaf"/>
<text xml:space="preserve" transform="matrix(1 0 -0 1 0 255.51602)" font-size="9.9626" font-family="CMR10"><tspan y="-96.401" x="715.362 720.3433 725.32467">136</tspan></text>
<path transform="matrix(1,0,0,-1,42.52,42.519014)" d="M694.4968-127.56062H722.8436V-99.21384H694.4968Z" fill="#afffaf"/>
<text xml:space="preserve" transform="matrix(1 0 -0 1 .000061035159 255.51602)" font-size="9.9626" font-family="CMR10"><tspan y="-96.401" x="743.709 748.6903 753.67166">137</tspan></text>
<path transform="matrix(1,0,0,-1,42.52,42.519014)" d="M722.8437-127.56062H751.1905V-99.21384H722.8437Z" fill="#afffaf"/>
<text xml:space="preserve" transform="matrix(1 0 -0 1 0 255.51602)" font-size="9.9626" font-family="CMR10"><tspan y="-96.401" x="772.055 777.0363 782.01766">138</tspan></text>
<path transform="matrix(1,0,0,-1,42.52,42.519014)" d="M751.1904-127.56062H779.53726V-99.21384H751.1904Z" fill="#afffaf"/>
<text xml:space="preserve" transform="matrix(1 0 -0 1 .000061035159 255.51602)" font-size="9.9626" font-family="CMR10"><tspan y="-96.401" x="800.402 805.3833 810.3646">139</tspan></text>
<path transform="matrix(1,0,0,-1,42.52,42.519014)" d="M779.5373-127.56062H807.8841V-99.21384H779.5373Z" fill="#afffaf"/>
<text xml:space="preserve" transform="matrix(1 0 -0 1 .000061035159 255.51602)" font-size="9.9626" font-family="CMR10"><tspan y="-96.401" x="828.748 833.7293 838.71066">140</tspan></text>
<path transform="matrix(1,0,0,-1,42.52,42.519014)" d="M807.8841-127.56062H836.2309V-99.21384H807.8841Z" fill="#afffaf"/>
<text xml:space="preserve" transform="matrix(1 0 -0 1 .000061035159 255.51602)" font-size="9.9626" font-family="CMR10"><tspan y="-96.401" x="857.095 862.0763 867.0576">141</tspan></text>
<path transform="matrix(1,0,0,-1,42.52,42.519014)" d="M836.2309-127.56062H864.5777V-99.21384H836.2309Z" fill="#afffaf"/>
<text xml:space="preserve" transform="matrix(1 0 -0 1 .000061035159 255.51602)" font-size="9.9626" font-family="CMR10"><tspan y="-96.401" x="885.441 890.4223 895.4036">142</tspan></text>
<path transform="matrix(1,0,0,-1,42.52,42.519014)" d="M864.5777-127.56062H892.9245V-99.21384H864.5777Z" fill="#afffaf"/>
<text xml:space="preserve" transform="matrix(1 0 -0 1 .000061035159 255.51602)" font-size="9.9626" font-family="CMR10"><tspan y="-96.401" x="913.787 918.7683 923.74966">143</tspan></text>
<path transform="matrix(1,0,0,-1,42.52,42.519014)" d="M-14.17339-155.90744H14.1734V-127.56065H-14.17339Z" fill="#ffffd2"/>
<text xml:space="preserve" transform="matrix(1 0 -0 1 0 255.51602)" font-size="9.9626" font-family="CMR10"><tspan y="-68.055" x="35.048 40.0293 45.0106">176</tspan></text>
<path transform="matrix(1,0,0,-1,42.52,42.519014)" d="M14.1734-155.90744H42.52019V-127.56065H14.1734Z" fill="#ffffd2"/>
<text xml:space="preserve" transform="matrix(1 0 -0 1 0 255.51602)" font-size="9.9626" font-family="CMR10"><tspan y="-68.055" x="63.394 68.3753 73.3566">177</tspan></text>
<path transform="matrix(1,0,0,-1,42.52,42.519014)" d="M42.52022-155.90744H70.86701V-127.56065H42.52022Z" fill="#ffffd2"/>
<text xml:space="preserve" transform="matrix(1 0 -0 1 0 255.51602)" font-size="9.9626" font-family="CMR10"><tspan y="-68.055" x="91.741 96.7223 101.7036">178</tspan></text>
<path transform="matrix(1,0,0,-1,42.52,42.519014)" d="M70.86702-155.90744H99.213809V-127.56065H70.86702Z" fill="#ffffd2"/>
<text xml:space="preserve" transform="matrix(1 0 -0 1 .0000076293949 255.51602)" font-size="9.9626" font-family="CMR10"><tspan y="-68.055" x="120.087 125.0683 130.04959">179</tspan></text>
<path transform="matrix(1,0,0,-1,42.52,42.519014)" d="M99.21384-155.90744H127.56062V-127.56065H99.21384Z" fill="#ffffd2"/>
<text xml:space="preserve" transform="matrix(1 0 -0 1 0 255.51602)" font-size="9.9626" font-family="CMR10"><tspan y="-68.055" x="148.433 153.41429 158.39559">180</tspan></text>
<path transform="matrix(1,0,0,-1,42.52,42.519014)" d="M127.56064-155.90744H155.90743V-127.56065H127.56064Z" fill="#ffffd2"/>
<text xml:space="preserve" transform="matrix(1 0 -0 1 0 255.51602)" font-size="9.9626" font-family="CMR10"><tspan y="-68.055" x="176.78 181.76129 186.74259">181</tspan></text>
<path transform="matrix(1,0,0,-1,42.52,42.519014)" d="M155.90746-155.90744H184.25424V-127.56065H155.90746Z" fill="#ffffd2"/>
<text xml:space="preserve" transform="matrix(1 0 -0 1 0 255.51602)" font-size="9.9626" font-family="CMR10"><tspan y="-68.055" x="205.126 210.1073 215.0886">182</tspan></text>
<path transform="matrix(1,0,0,-1,42.52,42.519014)" d="M184.25426-155.90744H212.60105V-127.56065H184.25426Z" fill="#ffffd2"/>
<text xml:space="preserve" transform="matrix(1 0 -0 1 0 255.51602)" font-size="9.9626" font-family="CMR10"><tspan y="-68.055" x="233.473 238.4543 243.4356">183</tspan></text>
<path transform="matrix(1,0,0,-1,42.52,42.519014)" d="M212.60108-155.90744H240.94786V-127.56065H212.60108Z" fill="#ffd2d2"/>
<text xml:space="preserve" transform="matrix(1 0 -0 1 0 255.51602)" font-size="9.9626" font-family="CMR10"><tspan y="-68.055" x="261.819 266.8003 271.7816">184</tspan></text>
<path transform="matrix(1,0,0,-1,42.52,42.519014)" d="M240.94789-155.90744H269.29469V-127.56065H240.94789Z" fill="#ffd2d2"/>
<text xml:space="preserve" transform="matrix(1 0 -0 1 0 255.51602)" font-size="9.9626" font-family="CMR10"><tspan y="-68.055" x="290.166 295.14729 300.12858">185</tspan></text>
<path transform="matrix(1,0,0,-1,42.52,42.519014)" d="M269.2947-155.90744H297.6415V-127.56065H269.2947Z" fill="#ffd2d2"/>
<text xml:space="preserve" transform="matrix(1 0 -0 1 0 255.51602)" font-size="9.9626" font-family="CMR10"><tspan y="-68.055" x="318.512 323.4933 328.47459">186</tspan></text>
<path transform="matrix(1,0,0,-1,42.52,42.519014)" d="M297.6415-155.90744H325.9883V-127.56065H297.6415Z" fill="#ffd2d2"/>
<text xml:space="preserve" transform="matrix(1 0 -0 1 -.000030517579 255.51602)" font-size="9.9626" font-family="CMR10"><tspan y="-68.055" x="346.859 351.8403 356.8216">187</tspan></text>
<path transform="matrix(1,0,0,-1,42.52,42.519014)" d="M325.9883-155.90744H354.3351V-127.56065H325.9883Z" fill="#ffd2d2"/>
<text xml:space="preserve" transform="matrix(1 0 -0 1 0 255.51602)" font-size="9.9626" font-family="CMR10"><tspan y="-68.055" x="375.205 380.18629 385.16758">188</tspan></text>
<path transform="matrix(1,0,0,-1,42.52,42.519014)" d="M354.33515-155.90744H382.68196V-127.56065H354.33515Z" fill="#ffd2d2"/>
<text xml:space="preserve" transform="matrix(1 0 -0 1 0 255.51602)" font-size="9.9626" font-family="CMR10"><tspan y="-68.055" x="403.551 408.5323 413.51359">189</tspan></text>
<path transform="matrix(1,0,0,-1,42.52,42.519014)" d="M382.68193-155.90744H411.02873V-127.56065H382.68193Z" fill="#ffd2d2"/>
<text xml:space="preserve" transform="matrix(1 0 -0 1 -.000030517579 255.51602)" font-size="9.9626" font-family="CMR10"><tspan y="-68.055" x="431.898 436.8793 441.8606">190</tspan></text>
<path transform="matrix(1,0,0,-1,42.52,42.519014)" d="M411.02876-155.90744H439.37556V-127.56065H411.02876Z" fill="#ffd2d2"/>
<text xml:space="preserve" transform="matrix(1 0 -0 1 0 255.51602)" font-size="9.9626" font-family="CMR10"><tspan y="-68.055" x="460.244 465.22529 470.20658">191</tspan></text>
<path transform="matrix(1,0,0,-1,42.52,42.519014)" d="M439.37556-155.90744H467.72236V-127.56065H439.37556Z" fill="#d2d2ff"/>
<text xml:space="preserve" transform="matrix(1 0 -0 1 0 255.51602)" font-size="9.9626" font-family="CMR10"><tspan y="-68.055" x="488.591 493.5723 498.5536">160</tspan></text>
<path transform="matrix(1,0,0,-1,42.52,42.519014)" d="M467.72239-155.90744H496.06919V-127.56065H467.72239Z" fill="#d2d2ff"/>
<text xml:space="preserve" transform="matrix(1 0 -0 1 0 255.51602)" font-size="9.9626" font-family="CMR10"><tspan y="-68.055" x="516.937 521.91836 526.89968">161</tspan></text>
<path transform="matrix(1,0,0,-1,42.52,42.519014)" d="M496.06919-155.90744H524.41598V-127.56065H496.06919Z" fill="#d2d2ff"/>
<text xml:space="preserve" transform="matrix(1 0 -0 1 0 255.51602)" font-size="9.9626" font-family="CMR10"><tspan y="-68.055" x="545.284 550.2653 555.24667">162</tspan></text>
<path transform="matrix(1,0,0,-1,42.52,42.519014)" d="M524.416-155.90744H552.7628V-127.56065H524.416Z" fill="#d2d2ff"/>
<text xml:space="preserve" transform="matrix(1 0 -0 1 0 255.51602)" font-size="9.9626" font-family="CMR10"><tspan y="-68.055" x="573.63 578.6113 583.59268">163</tspan></text>
<path transform="matrix(1,0,0,-1,42.52,42.519014)" d="M552.7628-155.90744H581.1096V-127.56065H552.7628Z" fill="#d2d2ff"/>
<text xml:space="preserve" transform="matrix(1 0 -0 1 0 255.51602)" font-size="9.9626" font-family="CMR10"><tspan y="-68.055" x="601.977 606.9583 611.93966">164</tspan></text>
<path transform="matrix(1,0,0,-1,42.52,42.519014)" d="M581.1096-155.90744H609.4564V-127.56065H581.1096Z" fill="#d2d2ff"/>
<text xml:space="preserve" transform="matrix(1 0 -0 1 0 255.51602)" font-size="9.9626" font-family="CMR10"><tspan y="-68.055" x="630.323 635.3043 640.28567">165</tspan></text>
<path transform="matrix(1,0,0,-1,42.52,42.519014)" d="M609.4564-155.90744H637.8032V-127.56065H609.4564Z" fill="#d2d2ff"/>
<text xml:space="preserve" transform="matrix(1 0 -0 1 0 255.51602)" font-size="9.9626" font-family="CMR10"><tspan y="-68.055" x="658.669 663.6503 668.63168">166</tspan></text>
<path transform="matrix(1,0,0,-1,42.52,42.519014)" d="M637.8032-155.90744H666.15V-127.56065H637.8032Z" fill="#d2d2ff"/>
<text xml:space="preserve" transform="matrix(1 0 -0 1 0 255.51602)" font-size="9.9626" font-family="CMR10"><tspan y="-68.055" x="687.016 691.9973 696.97866">167</tspan></text>
<path transform="matrix(1,0,0,-1,42.52,42.519014)" d="M666.15-155.90744H694.4968V-127.56065H666.15Z" fill="#d2ffd2"/>
<text xml:space="preserve" transform="matrix(1 0 -0 1 0 255.51602)" font-size="9.9626" font-family="CMR10"><tspan y="-68.055" x="715.362 720.3433 725.32467">168</tspan></text>
<path transform="matrix(1,0,0,-1,42.52,42.519014)" d="M694.4968-155.90744H722.8436V-127.56065H694.4968Z" fill="#d2ffd2"/>
<text xml:space="preserve" transform="matrix(1 0 -0 1 .000061035159 255.51602)" font-size="9.9626" font-family="CMR10"><tspan y="-68.055" x="743.709 748.6903 753.67166">169</tspan></text>
<path transform="matrix(1,0,0,-1,42.52,42.519014)" d="M722.8437-155.90744H751.1905V-127.56065H722.8437Z" fill="#d2ffd2"/>
<text xml:space="preserve" transform="matrix(1 0 -0 1 0 255.51602)" font-size="9.9626" font-family="CMR10"><tspan y="-68.055" x="772.055 777.0363 782.01766">170</tspan></text>
<path transform="matrix(1,0,0,-1,42.52,42.519014)" d="M751.1904-155.90744H779.53726V-127.56065H751.1904Z" fill="#d2ffd2"/>
<text xml:space="preserve" transform="matrix(1 0 -0 1 .000061035159 255.51602)" font-size="9.9626" font-family="CMR10"><tspan y="-68.055" x="800.402 805.3833 810.3646">171</tspan></text>
<path transform="matrix(1,0,0,-1,42.52,42.519014)" d="M779.5373-155.90744H807.8841V-127.56065H779.5373Z" fill="#d2ffd2"/>
<text xml:space="preserve" transform="matrix(1 0 -0 1 .000061035159 255.51602)" font-size="9.9626" font-family="CMR10"><tspan y="-68.055" x="828.748 833.7293 838.71066">172</tspan></text>
<path transform="matrix(1,0,0,-1,42.52,42.519014)" d="M807.8841-155.90744H836.2309V-127.56065H807.8841Z" fill="#d2ffd2"/>
<text xml:space="preserve" transform="matrix(1 0 -0 1 .000061035159 255.51602)" font-size="9.9626" font-family="CMR10"><tspan y="-68.055" x="857.095 862.0763 867.0576">173</tspan></text>
<path transform="matrix(1,0,0,-1,42.52,42.519014)" d="M836.2309-155.90744H864.5777V-127.56065H836.2309Z" fill="#d2ffd2"/>
<text xml:space="preserve" transform="matrix(1 0 -0 1 .000061035159 255.51602)" font-size="9.9626" font-family="CMR10"><tspan y="-68.055" x="885.441 890.4223 895.4036">174</tspan></text>
<path transform="matrix(1,0,0,-1,42.52,42.519014)" d="M864.5777-155.90744H892.9245V-127.56065H864.5777Z" fill="#d2ffd2"/>
<text xml:space="preserve" transform="matrix(1 0 -0 1 .000061035159 255.51602)" font-size="9.9626" font-family="CMR10"><tspan y="-68.055" x="913.787 918.7683 923.74966">175</tspan></text>
<path transform="matrix(1,0,0,-1,42.52,42.519014)" d="M-14.17339-184.25424H14.1734V-155.90746H-14.17339Z" fill="#ffafaf"/>
<text xml:space="preserve" transform="matrix(1 0 -0 1 0 255.51602)" font-size="9.9626" font-family="CMR10"><tspan y="-39.708" x="35.048 40.0293 45.0106">216</tspan></text>
<path transform="matrix(1,0,0,-1,42.52,42.519014)" d="M14.1734-184.25424H42.52019V-155.90746H14.1734Z" fill="#ffafaf"/>
<text xml:space="preserve" transform="matrix(1 0 -0 1 0 255.51602)" font-size="9.9626" font-family="CMR10"><tspan y="-39.708" x="63.394 68.3753 73.3566">217</tspan></text>
<path transform="matrix(1,0,0,-1,42.52,42.519014)" d="M42.52022-184.25424H70.86701V-155.90746H42.52022Z" fill="#ffafaf"/>
<text xml:space="preserve" transform="matrix(1 0 -0 1 0 255.51602)" font-size="9.9626" font-family="CMR10"><tspan y="-39.708" x="91.741 96.7223 101.7036">218</tspan></text>
<path transform="matrix(1,0,0,-1,42.52,42.519014)" d="M70.86702-184.25424H99.213809V-155.90746H70.86702Z" fill="#ffafaf"/>
<text xml:space="preserve" transform="matrix(1 0 -0 1 .0000076293949 255.51602)" font-size="9.9626" font-family="CMR10"><tspan y="-39.708" x="120.087 125.0683 130.04959">219</tspan></text>
<path transform="matrix(1,0,0,-1,42.52,42.519014)" d="M99.21384-184.25424H127.56062V-155.90746H99.21384Z" fill="#ffafaf"/>
<text xml:space="preserve" transform="matrix(1 0 -0 1 0 255.51602)" font-size="9.9626" font-family="CMR10"><tspan y="-39.708" x="148.433 153.41429 158.39559">220</tspan></text>
<path transform="matrix(1,0,0,-1,42.52,42.519014)" d="M127.56064-184.25424H155.90743V-155.90746H127.56064Z" fill="#ffafaf"/>
<text xml:space="preserve" transform="matrix(1 0 -0 1 0 255.51602)" font-size="9.9626" font-family="CMR10"><tspan y="-39.708" x="176.78 181.76129 186.74259">221</tspan></text>
<path transform="matrix(1,0,0,-1,42.52,42.519014)" d="M155.90746-184.25424H184.25424V-155.90746H155.90746Z" fill="#ffafaf"/>
<text xml:space="preserve" transform="matrix(1 0 -0 1 0 255.51602)" font-size="9.9626" font-family="CMR10"><tspan y="-39.708" x="205.126 210.1073 215.0886">222</tspan></text>
<path transform="matrix(1,0,0,-1,42.52,42.519014)" d="M184.25426-184.25424H212.60105V-155.90746H184.25426Z" fill="#ffafaf"/>
<text xml:space="preserve" transform="matrix(1 0 -0 1 0 255.51602)" font-size="9.9626" font-family="CMR10"><tspan y="-39.708" x="233.473 238.4543 243.4356">223</tspan></text>
<path transform="matrix(1,0,0,-1,42.52,42.519014)" d="M212.60108-184.25424H240.94786V-155.90746H212.60108Z" fill="#ffffaf"/>
<text xml:space="preserve" transform="matrix(1 0 -0 1 0 255.51602)" font-size="9.9626" font-family="CMR10"><tspan y="-39.708" x="261.819 266.8003 271.7816">208</tspan></text>
<path transform="matrix(1,0,0,-1,42.52,42.519014)" d="M240.94789-184.25424H269.29469V-155.90746H240.94789Z" fill="#ffffaf"/>
<text xml:space="preserve" transform="matrix(1 0 -0 1 0 255.51602)" font-size="9.9626" font-family="CMR10"><tspan y="-39.708" x="290.166 295.14729 300.12858">209</tspan></text>
<path transform="matrix(1,0,0,-1,42.52,42.519014)" d="M269.2947-184.25424H297.6415V-155.90746H269.2947Z" fill="#ffffaf"/>
<text xml:space="preserve" transform="matrix(1 0 -0 1 0 255.51602)" font-size="9.9626" font-family="CMR10"><tspan y="-39.708" x="318.512 323.4933 328.47459">210</tspan></text>
<path transform="matrix(1,0,0,-1,42.52,42.519014)" d="M297.6415-184.25424H325.9883V-155.90746H297.6415Z" fill="#ffffaf"/>
<text xml:space="preserve" transform="matrix(1 0 -0 1 -.000030517579 255.51602)" font-size="9.9626" font-family="CMR10"><tspan y="-39.708" x="346.859 351.8403 356.8216">211</tspan></text>
<path transform="matrix(1,0,0,-1,42.52,42.519014)" d="M325.9883-184.25424H354.3351V-155.90746H325.9883Z" fill="#ffffaf"/>
<text xml:space="preserve" transform="matrix(1 0 -0 1 0 255.51602)" font-size="9.9626" font-family="CMR10"><tspan y="-39.708" x="375.205 380.18629 385.16758">212</tspan></text>
<path transform="matrix(1,0,0,-1,42.52,42.519014)" d="M354.33515-184.25424H382.68196V-155.90746H354.33515Z" fill="#ffffaf"/>
<text xml:space="preserve" transform="matrix(1 0 -0 1 0 255.51602)" font-size="9.9626" font-family="CMR10"><tspan y="-39.708" x="403.551 408.5323 413.51359">213</tspan></text>
<path transform="matrix(1,0,0,-1,42.52,42.519014)" d="M382.68193-184.25424H411.02873V-155.90746H382.68193Z" fill="#ffffaf"/>
<text xml:space="preserve" transform="matrix(1 0 -0 1 -.000030517579 255.51602)" font-size="9.9626" font-family="CMR10"><tspan y="-39.708" x="431.898 436.8793 441.8606">214</tspan></text>
<path transform="matrix(1,0,0,-1,42.52,42.519014)" d="M411.02876-184.25424H439.37556V-155.90746H411.02876Z" fill="#ffffaf"/>
<text xml:space="preserve" transform="matrix(1 0 -0 1 0 255.51602)" font-size="9.9626" font-family="CMR10"><tspan y="-39.708" x="460.244 465.22529 470.20658">215</tspan></text>
<path transform="matrix(1,0,0,-1,42.52,42.519014)" d="M439.37556-184.25424H467.72236V-155.90746H439.37556Z" fill="#afffaf"/>
<text xml:space="preserve" transform="matrix(1 0 -0 1 0 255.51602)" font-size="9.9626" font-family="CMR10"><tspan y="-39.708" x="488.591 493.5723 498.5536">200</tspan></text>
<path transform="matrix(1,0,0,-1,42.52,42.519014)" d="M467.72239-184.25424H496.06919V-155.90746H467.72239Z" fill="#afffaf"/>
<text xml:space="preserve" transform="matrix(1 0 -0 1 0 255.51602)" font-size="9.9626" font-family="CMR10"><tspan y="-39.708" x="516.937 521.91836 526.89968">201</tspan></text>
<path transform="matrix(1,0,0,-1,42.52,42.519014)" d="M496.06919-184.25424H524.41598V-155.90746H496.06919Z" fill="#afffaf"/>
<text xml:space="preserve" transform="matrix(1 0 -0 1 0 255.51602)" font-size="9.9626" font-family="CMR10"><tspan y="-39.708" x="545.284 550.2653 555.24667">202</tspan></text>
<path transform="matrix(1,0,0,-1,42.52,42.519014)" d="M524.416-184.25424H552.7628V-155.90746H524.416Z" fill="#afffaf"/>
<text xml:space="preserve" transform="matrix(1 0 -0 1 0 255.51602)" font-size="9.9626" font-family="CMR10"><tspan y="-39.708" x="573.63 578.6113 583.59268">203</tspan></text>
<path transform="matrix(1,0,0,-1,42.52,42.519014)" d="M552.7628-184.25424H581.1096V-155.90746H552.7628Z" fill="#afffaf"/>
<text xml:space="preserve" transform="matrix(1 0 -0 1 0 255.51602)" font-size="9.9626" font-family="CMR10"><tspan y="-39.708" x="601.977 606.9583 611.93966">204</tspan></text>
<path transform="matrix(1,0,0,-1,42.52,42.519014)" d="M581.1096-184.25424H609.4564V-155.90746H581.1096Z" fill="#afffaf"/>
<text xml:space="preserve" transform="matrix(1 0 -0 1 0 255.51602)" font-size="9.9626" font-family="CMR10"><tspan y="-39.708" x="630.323 635.3043 640.28567">205</tspan></text>
<path transform="matrix(1,0,0,-1,42.52,42.519014)" d="M609.4564-184.25424H637.8032V-155.90746H609.4564Z" fill="#afffaf"/>
<text xml:space="preserve" transform="matrix(1 0 -0 1 0 255.51602)" font-size="9.9626" font-family="CMR10"><tspan y="-39.708" x="658.669 663.6503 668.63168">206</tspan></text>
<path transform="matrix(1,0,0,-1,42.52,42.519014)" d="M637.8032-184.25424H666.15V-155.90746H637.8032Z" fill="#afffaf"/>
<text xml:space="preserve" transform="matrix(1 0 -0 1 0 255.51602)" font-size="9.9626" font-family="CMR10"><tspan y="-39.708" x="687.016 691.9973 696.97866">207</tspan></text>
<path transform="matrix(1,0,0,-1,42.52,42.519014)" d="M666.15-184.25424H694.4968V-155.90746H666.15Z" fill="#afafff"/>
<text xml:space="preserve" transform="matrix(1 0 -0 1 0 255.51602)" font-size="9.9626" font-family="CMR10"><tspan y="-39.708" x="715.362 720.3433 725.32467">192</tspan></text>
<path transform="matrix(1,0,0,-1,42.52,42.519014)" d="M694.4968-184.25424H722.8436V-155.90746H694.4968Z" fill="#afafff"/>
<text xml:space="preserve" transform="matrix(1 0 -0 1 .000061035159 255.51602)" font-size="9.9626" font-family="CMR10"><tspan y="-39.708" x="743.709 748.6903 753.67166">193</tspan></text>
<path transform="matrix(1,0,0,-1,42.52,42.519014)" d="M722.8437-184.25424H751.1905V-155.90746H722.8437Z" fill="#afafff"/>
<text xml:space="preserve" transform="matrix(1 0 -0 1 0 255.51602)" font-size="9.9626" font-family="CMR10"><tspan y="-39.708" x="772.055 777.0363 782.01766">194</tspan></text>
<path transform="matrix(1,0,0,-1,42.52,42.519014)" d="M751.1904-184.25424H779.53726V-155.90746H751.1904Z" fill="#afafff"/>
<text xml:space="preserve" transform="matrix(1 0 -0 1 .000061035159 255.51602)" font-size="9.9626" font-family="CMR10"><tspan y="-39.708" x="800.402 805.3833 810.3646">195</tspan></text>
<path transform="matrix(1,0,0,-1,42.52,42.519014)" d="M779.5373-184.25424H807.8841V-155.90746H779.5373Z" fill="#afafff"/>
<text xml:space="preserve" transform="matrix(1 0 -0 1 .000061035159 255.51602)" font-size="9.9626" font-family="CMR10"><tspan y="-39.708" x="828.748 833.7293 838.71066">196</tspan></text>
<path transform="matrix(1,0,0,-1,42.52,42.519014)" d="M807.8841-184.25424H836.2309V-155.90746H807.8841Z" fill="#afafff"/>
<text xml:space="preserve" transform="matrix(1 0 -0 1 .000061035159 255.51602)" font-size="9.9626" font-family="CMR10"><tspan y="-39.708" x="857.095 862.0763 867.0576">197</tspan></text>
<path transform="matrix(1,0,0,-1,42.52,42.519014)" d="M836.2309-184.25424H864.5777V-155.90746H836.2309Z" fill="#afafff"/>
<text xml:space="preserve" transform="matrix(1 0 -0 1 .000061035159 255.51602)" font-size="9.9626" font-family="CMR10"><tspan y="-39.708" x="885.441 890.4223 895.4036">198</tspan></text>
<path transform="matrix(1,0,0,-1,42.52,42.519014)" d="M864.5777-184.25424H892.9245V-155.90746H864.5777Z" fill="#afafff"/>
<text xml:space="preserve" transform="matrix(1 0 -0 1 .000061035159 255.51602)" font-size="9.9626" font-family="CMR10"><tspan y="-39.708" x="913.787 918.7683 923.74966">199</tspan></text>
<path transform="matrix(1,0,0,-1,42.52,42.519014)" d="M-14.17339-212.60106H14.1734V-184.25428H-14.17339Z" fill="#ffd2d2"/>
<text xml:space="preserve" transform="matrix(1 0 -0 1 0 255.516)" font-size="9.9626" font-family="CMR10"><tspan y="-11.362" x="35.048 40.0293 45.0106">248</tspan></text>
<path transform="matrix(1,0,0,-1,42.52,42.519014)" d="M14.1734-212.60106H42.52019V-184.25428H14.1734Z" fill="#ffd2d2"/>
<text xml:space="preserve" transform="matrix(1 0 -0 1 0 255.516)" font-size="9.9626" font-family="CMR10"><tspan y="-11.362" x="63.394 68.3753 73.3566">249</tspan></text>
<path transform="matrix(1,0,0,-1,42.52,42.519014)" d="M42.52022-212.60106H70.86701V-184.25428H42.52022Z" fill="#ffd2d2"/>
<text xml:space="preserve" transform="matrix(1 0 -0 1 0 255.516)" font-size="9.9626" font-family="CMR10"><tspan y="-11.362" x="91.741 96.7223 101.7036">250</tspan></text>
<path transform="matrix(1,0,0,-1,42.52,42.519014)" d="M70.86702-212.60106H99.213809V-184.25428H70.86702Z" fill="#ffd2d2"/>
<text xml:space="preserve" transform="matrix(1 0 -0 1 .0000076293949 255.516)" font-size="9.9626" font-family="CMR10"><tspan y="-11.362" x="120.087 125.0683 130.04959">251</tspan></text>
<path transform="matrix(1,0,0,-1,42.52,42.519014)" d="M99.21384-212.60106H127.56062V-184.25428H99.21384Z" fill="#ffd2d2"/>
<text xml:space="preserve" transform="matrix(1 0 -0 1 0 255.516)" font-size="9.9626" font-family="CMR10"><tspan y="-11.362" x="148.433 153.41429 158.39559">252</tspan></text>
<path transform="matrix(1,0,0,-1,42.52,42.519014)" d="M127.56064-212.60106H155.90743V-184.25428H127.56064Z" fill="#ffd2d2"/>
<text xml:space="preserve" transform="matrix(1 0 -0 1 0 255.516)" font-size="9.9626" font-family="CMR10"><tspan y="-11.362" x="176.78 181.76129 186.74259">253</tspan></text>
<path transform="matrix(1,0,0,-1,42.52,42.519014)" d="M155.90746-212.60106H184.25424V-184.25428H155.90746Z" fill="#ffd2d2"/>
<text xml:space="preserve" transform="matrix(1 0 -0 1 0 255.516)" font-size="9.9626" font-family="CMR10"><tspan y="-11.362" x="205.126 210.1073 215.0886">254</tspan></text>
<path transform="matrix(1,0,0,-1,42.52,42.519014)" d="M184.25426-212.60106H212.60105V-184.25428H184.25426Z" fill="#ffd2d2"/>
<text xml:space="preserve" transform="matrix(1 0 -0 1 0 255.516)" font-size="9.9626" font-family="CMR10"><tspan y="-11.362" x="233.473 238.4543 243.4356">255</tspan></text>
<path transform="matrix(1,0,0,-1,42.52,42.519014)" d="M212.60108-212.60106H240.94786V-184.25428H212.60108Z" fill="#ffffd2"/>
<text xml:space="preserve" transform="matrix(1 0 -0 1 0 255.516)" font-size="9.9626" font-family="CMR10"><tspan y="-11.362" x="261.819 266.8003 271.7816">240</tspan></text>
<path transform="matrix(1,0,0,-1,42.52,42.519014)" d="M240.94789-212.60106H269.29469V-184.25428H240.94789Z" fill="#ffffd2"/>
<text xml:space="preserve" transform="matrix(1 0 -0 1 0 255.516)" font-size="9.9626" font-family="CMR10"><tspan y="-11.362" x="290.166 295.14729 300.12858">241</tspan></text>
<path transform="matrix(1,0,0,-1,42.52,42.519014)" d="M269.2947-212.60106H297.6415V-184.25428H269.2947Z" fill="#ffffd2"/>
<text xml:space="preserve" transform="matrix(1 0 -0 1 0 255.516)" font-size="9.9626" font-family="CMR10"><tspan y="-11.362" x="318.512 323.4933 328.47459">242</tspan></text>
<path transform="matrix(1,0,0,-1,42.52,42.519014)" d="M297.6415-212.60106H325.9883V-184.25428H297.6415Z" fill="#ffffd2"/>
<text xml:space="preserve" transform="matrix(1 0 -0 1 -.000030517579 255.516)" font-size="9.9626" font-family="CMR10"><tspan y="-11.362" x="346.859 351.8403 356.8216">243</tspan></text>
<path transform="matrix(1,0,0,-1,42.52,42.519014)" d="M325.9883-212.60106H354.3351V-184.25428H325.9883Z" fill="#ffffd2"/>
<text xml:space="preserve" transform="matrix(1 0 -0 1 0 255.516)" font-size="9.9626" font-family="CMR10"><tspan y="-11.362" x="375.205 380.18629 385.16758">244</tspan></text>
<path transform="matrix(1,0,0,-1,42.52,42.519014)" d="M354.33515-212.60106H382.68196V-184.25428H354.33515Z" fill="#ffffd2"/>
<text xml:space="preserve" transform="matrix(1 0 -0 1 0 255.516)" font-size="9.9626" font-family="CMR10"><tspan y="-11.362" x="403.551 408.5323 413.51359">245</tspan></text>
<path transform="matrix(1,0,0,-1,42.52,42.519014)" d="M382.68193-212.60106H411.02873V-184.25428H382.68193Z" fill="#ffffd2"/>
<text xml:space="preserve" transform="matrix(1 0 -0 1 -.000030517579 255.516)" font-size="9.9626" font-family="CMR10"><tspan y="-11.362" x="431.898 436.8793 441.8606">246</tspan></text>
<path transform="matrix(1,0,0,-1,42.52,42.519014)" d="M411.02876-212.60106H439.37556V-184.25428H411.02876Z" fill="#ffffd2"/>
<text xml:space="preserve" transform="matrix(1 0 -0 1 0 255.516)" font-size="9.9626" font-family="CMR10"><tspan y="-11.362" x="460.244 465.22529 470.20658">247</tspan></text>
<path transform="matrix(1,0,0,-1,42.52,42.519014)" d="M439.37556-212.60106H467.72236V-184.25428H439.37556Z" fill="#d2ffd2"/>
<text xml:space="preserve" transform="matrix(1 0 -0 1 0 255.516)" font-size="9.9626" font-family="CMR10"><tspan y="-11.362" x="488.591 493.5723 498.5536">232</tspan></text>
<path transform="matrix(1,0,0,-1,42.52,42.519014)" d="M467.72239-212.60106H496.06919V-184.25428H467.72239Z" fill="#d2ffd2"/>
<text xml:space="preserve" transform="matrix(1 0 -0 1 0 255.516)" font-size="9.9626" font-family="CMR10"><tspan y="-11.362" x="516.937 521.91836 526.89968">233</tspan></text>
<path transform="matrix(1,0,0,-1,42.52,42.519014)" d="M496.06919-212.60106H524.41598V-184.25428H496.06919Z" fill="#d2ffd2"/>
<text xml:space="preserve" transform="matrix(1 0 -0 1 0 255.516)" font-size="9.9626" font-family="CMR10"><tspan y="-11.362" x="545.284 550.2653 555.24667">234</tspan></text>
<path transform="matrix(1,0,0,-1,42.52,42.519014)" d="M524.416-212.60106H552.7628V-184.25428H524.416Z" fill="#d2ffd2"/>
<text xml:space="preserve" transform="matrix(1 0 -0 1 0 255.516)" font-size="9.9626" font-family="CMR10"><tspan y="-11.362" x="573.63 578.6113 583.59268">235</tspan></text>
<path transform="matrix(1,0,0,-1,42.52,42.519014)" d="M552.7628-212.60106H581.1096V-184.25428H552.7628Z" fill="#d2ffd2"/>
<text xml:space="preserve" transform="matrix(1 0 -0 1 0 255.516)" font-size="9.9626" font-family="CMR10"><tspan y="-11.362" x="601.977 606.9583 611.93966">236</tspan></text>
<path transform="matrix(1,0,0,-1,42.52,42.519014)" d="M581.1096-212.60106H609.4564V-184.25428H581.1096Z" fill="#d2ffd2"/>
<text xml:space="preserve" transform="matrix(1 0 -0 1 0 255.516)" font-size="9.9626" font-family="CMR10"><tspan y="-11.362" x="630.323 635.3043 640.28567">237</tspan></text>
<path transform="matrix(1,0,0,-1,42.52,42.519014)" d="M609.4564-212.60106H637.8032V-184.25428H609.4564Z" fill="#d2ffd2"/>
<text xml:space="preserve" transform="matrix(1 0 -0 1 0 255.516)" font-size="9.9626" font-family="CMR10"><tspan y="-11.362" x="658.669 663.6503 668.63168">238</tspan></text>
<path transform="matrix(1,0,0,-1,42.52,42.519014)" d="M637.8032-212.60106H666.15V-184.25428H637.8032Z" fill="#d2ffd2"/>
<text xml:space="preserve" transform="matrix(1 0 -0 1 0 255.516)" font-size="9.9626" font-family="CMR10"><tspan y="-11.362" x="687.016 691.9973 696.97866">239</tspan></text>
<path transform="matrix(1,0,0,-1,42.52,42.519014)" d="M666.15-212.60106H694.4968V-184.25428H666.15Z" fill="#d2d2ff"/>
<text xml:space="preserve" transform="matrix(1 0 -0 1 0 255.516)" font-size="9.9626" font-family="CMR10"><tspan y="-11.362" x="715.362 720.3433 725.32467">224</tspan></text>
<path transform="matrix(1,0,0,-1,42.52,42.519014)" d="M694.4968-212.60106H722.8436V-184.25428H694.4968Z" fill="#d2d2ff"/>
<text xml:space="preserve" transform="matrix(1 0 -0 1 .000061035159 255.516)" font-size="9.9626" font-family="CMR10"><tspan y="-11.362" x="743.709 748.6903 753.67166">225</tspan></text>
<path transform="matrix(1,0,0,-1,42.52,42.519014)" d="M722.8437-212.60106H751.1905V-184.25428H722.8437Z" fill="#d2d2ff"/>
<text xml:space="preserve" transform="matrix(1 0 -0 1 0 255.516)" font-size="9.9626" font-family="CMR10"><tspan y="-11.362" x="772.055 777.0363 782.01766">226</tspan></text>
<path transform="matrix(1,0,0,-1,42.52,42.519014)" d="M751.1904-212.60106H779.53726V-184.25428H751.1904Z" fill="#d2d2ff"/>
<text xml:space="preserve" transform="matrix(1 0 -0 1 .000061035159 255.516)" font-size="9.9626" font-family="CMR10"><tspan y="-11.362" x="800.402 805.3833 810.3646">227</tspan></text>
<path transform="matrix(1,0,0,-1,42.52,42.519014)" d="M779.5373-212.60106H807.8841V-184.25428H779.5373Z" fill="#d2d2ff"/>
<text xml:space="preserve" transform="matrix(1 0 -0 1 .000061035159 255.516)" font-size="9.9626" font-family="CMR10"><tspan y="-11.362" x="828.748 833.7293 838.71066">228</tspan></text>
<path transform="matrix(1,0,0,-1,42.52,42.519014)" d="M807.8841-212.60106H836.2309V-184.25428H807.8841Z" fill="#d2d2ff"/>
<text xml:space="preserve" transform="matrix(1 0 -0 1 .000061035159 255.516)" font-size="9.9626" font-family="CMR10"><tspan y="-11.362" x="857.095 862.0763 867.0576">229</tspan></text>
<path transform="matrix(1,0,0,-1,42.52,42.519014)" d="M836.2309-212.60106H864.5777V-184.25428H836.2309Z" fill="#d2d2ff"/>
<text xml:space="preserve" transform="matrix(1 0 -0 1 .000061035159 255.516)" font-size="9.9626" font-family="CMR10"><tspan y="-11.362" x="885.441 890.4223 895.4036">230</tspan></text>
<path transform="matrix(1,0,0,-1,42.52,42.519014)" d="M864.5777-212.60106H892.9245V-184.25428H864.5777Z" fill="#d2d2ff"/>
<text xml:space="preserve" transform="matrix(1 0 -0 1 .000061035159 255.516)" font-size="9.9626" font-family="CMR10"><tspan y="-11.362" x="913.787 918.7683 923.74966">231</tspan></text>
<path transform="matrix(1,0,0,-1,42.52,42.519014)" stroke-width=".79701" stroke-linecap="butt" stroke-miterlimit="10" stroke-linejoin="miter" fill="none" stroke="#000000" d="M-14.17339-212.60108H892.9245M-14.17339-184.25426H892.9245M-14.17339-155.90746H892.9245M-14.17339-127.56064H892.9245M-14.17339-99.21384H892.9245M-14.17339-70.86702H892.9245M-14.17339-42.52022H892.9245M-14.17339-14.1734H892.9245M-14.17339 14.16344H892.9245M-14.17339-212.60108V14.17339M14.1734-212.60108V14.17339M42.52022-212.60108V14.17339M70.86702-212.60108V14.17339M99.21384-212.60108V14.17339M127.56064-212.60108V14.17339M155.90746-212.60108V14.17339M184.25426-212.60108V14.17339M212.60108-212.60108V14.17339M240.94789-212.60108V14.17339M269.2947-212.60108V14.17339M297.6415-212.60108V14.17339M325.9883-212.60108V14.17339M354.33515-212.60108V14.17339M382.68193-212.60108V14.17339M411.02876-212.60108V14.17339M439.37556-212.60108V14.17339M467.72239-212.60108V14.17339M496.06919-212.60108V14.17339M524.416-212.60108V14.17339M552.7628-212.60108V14.17339M581.1096-212.60108V14.17339M609.4564-212.60108V14.17339M637.8032-212.60108V14.17339M666.15-212.60108V14.17339M694.4968-212.60108V14.17339M722.8437-212.60108V14.17339M751.1904-212.60108V14.17339M779.5373-212.60108V14.17339M807.8841-212.60108V14.17339M836.2309-212.60108V14.17339M864.5777-212.60108V14.17339M892.91458-212.60108V14.17339M892.9245-212.60108"/>
<text xml:space="preserve" transform="matrix(1 0 -0 1 .0000019073487 255.51602)" font-size="14.3462" font-family="CMTT12"><tspan y="-208.613" x="10.482">0</tspan></text>
<text xml:space="preserve" transform="matrix(1 0 -0 1 .0000019073487 255.516)" font-size="14.3462" font-family="CMTT12"><tspan y="-180.267" x="10.482">1</tspan></text>
<text xml:space="preserve" transform="matrix(1 0 -0 1 .0000019073487 255.51602)" font-size="14.3462" font-family="CMTT12"><tspan y="-151.921" x="10.482">2</tspan></text>
<text xml:space="preserve" transform="matrix(1 0 -0 1 .0000019073487 255.51602)" font-size="14.3462" font-family="CMTT12"><tspan y="-123.574" x="10.482">3</tspan></text>
<text xml:space="preserve" transform="matrix(1 0 -0 1 .0000019073487 255.516)" font-size="14.3462" font-family="CMTT12"><tspan y="-95.228" x="10.482">4</tspan></text>
<text xml:space="preserve" transform="matrix(1 0 -0 1 .0000019073487 255.516)" font-size="14.3462" font-family="CMTT12"><tspan y="-66.881" x="10.482">5</tspan></text>
<text xml:space="preserve" transform="matrix(1 0 -0 1 .0000019073487 255.51602)" font-size="14.3462" font-family="CMTT12"><tspan y="-38.535" x="10.482">6</tspan></text>
<text xml:space="preserve" transform="matrix(1 0 -0 1 .0000019073487 255.51602)" font-size="14.3462" font-family="CMTT12"><tspan y="-10.188" x="10.482">7</tspan></text>
<text xml:space="preserve" transform="matrix(1 0 -0 1 0 255.51602)" font-size="14.3462" font-family="CMTT12"><tspan y="-236.96" x="38.828">0</tspan></text>
<text xml:space="preserve" transform="matrix(1 0 -0 1 0 255.51602)" font-size="14.3462" font-family="CMTT12"><tspan y="-236.96" x="67.175">1</tspan></text>
<text xml:space="preserve" transform="matrix(1 0 -0 1 -.0000076293949 255.51602)" font-size="14.3462" font-family="CMTT12"><tspan y="-236.96" x="95.521">2</tspan></text>
<text xml:space="preserve" transform="matrix(1 0 -0 1 0 255.51602)" font-size="14.3462" font-family="CMTT12"><tspan y="-236.96" x="123.868">3</tspan></text>
<text xml:space="preserve" transform="matrix(1 0 -0 1 0 255.51602)" font-size="14.3462" font-family="CMTT12"><tspan y="-236.96" x="152.214">4</tspan></text>
<text xml:space="preserve" transform="matrix(1 0 -0 1 0 255.51602)" font-size="14.3462" font-family="CMTT12"><tspan y="-236.96" x="180.561">5</tspan></text>
<text xml:space="preserve" transform="matrix(1 0 -0 1 0 255.51602)" font-size="14.3462" font-family="CMTT12"><tspan y="-236.96" x="208.907">6</tspan></text>
<text xml:space="preserve" transform="matrix(1 0 -0 1 0 255.51602)" font-size="14.3462" font-family="CMTT12"><tspan y="-236.96" x="237.254">7</tspan></text>
<text xml:space="preserve" transform="matrix(1 0 -0 1 0 255.51602)" font-size="14.3462" font-family="CMTT12"><tspan y="-236.96" x="265.6">8</tspan></text>
<text xml:space="preserve" transform="matrix(1 0 -0 1 0 255.51602)" font-size="14.3462" font-family="CMTT12"><tspan y="-236.96" x="293.947">9</tspan></text>
<text xml:space="preserve" transform="matrix(1 0 -0 1 0 255.51602)" font-size="14.3462" font-family="CMTT12"><tspan y="-236.96" x="318.602 325.9903">10</tspan></text>
<text xml:space="preserve" transform="matrix(1 0 -0 1 0 255.51602)" font-size="14.3462" font-family="CMTT12"><tspan y="-236.96" x="346.948 354.3363">11</tspan></text>
<text xml:space="preserve" transform="matrix(1 0 -0 1 -.000030517579 255.51602)" font-size="14.3462" font-family="CMTT12"><tspan y="-236.96" x="375.295 382.68333">12</tspan></text>
<text xml:space="preserve" transform="matrix(1 0 -0 1 0 255.51602)" font-size="14.3462" font-family="CMTT12"><tspan y="-236.96" x="403.641 411.0293">13</tspan></text>
<text xml:space="preserve" transform="matrix(1 0 -0 1 -.000030517579 255.51602)" font-size="14.3462" font-family="CMTT12"><tspan y="-236.96" x="431.988 439.3763">14</tspan></text>
<text xml:space="preserve" transform="matrix(1 0 -0 1 -.000030517579 255.51602)" font-size="14.3462" font-family="CMTT12"><tspan y="-236.96" x="460.334 467.72233">15</tspan></text>
<text xml:space="preserve" transform="matrix(1 0 -0 1 0 255.51602)" font-size="14.3462" font-family="CMTT12"><tspan y="-236.96" x="488.68 496.0683">16</tspan></text>
<text xml:space="preserve" transform="matrix(1 0 -0 1 0 255.51602)" font-size="14.3462" font-family="CMTT12"><tspan y="-236.96" x="517.027 524.4153">17</tspan></text>
<text xml:space="preserve" transform="matrix(1 0 -0 1 0 255.51602)" font-size="14.3462" font-family="CMTT12"><tspan y="-236.96" x="545.373 552.7613">18</tspan></text>
<text xml:space="preserve" transform="matrix(1 0 -0 1 .000061035159 255.51602)" font-size="14.3462" font-family="CMTT12"><tspan y="-236.96" x="573.72 581.1083">19</tspan></text>
<text xml:space="preserve" transform="matrix(1 0 -0 1 .000061035159 255.51602)" font-size="14.3462" font-family="CMTT12"><tspan y="-236.96" x="602.066 609.4543">20</tspan></text>
<text xml:space="preserve" transform="matrix(1 0 -0 1 0 255.51602)" font-size="14.3462" font-family="CMTT12"><tspan y="-236.96" x="630.413 637.80136">21</tspan></text>
<text xml:space="preserve" transform="matrix(1 0 -0 1 .000061035159 255.51602)" font-size="14.3462" font-family="CMTT12"><tspan y="-236.96" x="658.759 666.1473">22</tspan></text>
<text xml:space="preserve" transform="matrix(1 0 -0 1 0 255.51602)" font-size="14.3462" font-family="CMTT12"><tspan y="-236.96" x="687.106 694.4943">23</tspan></text>
<text xml:space="preserve" transform="matrix(1 0 -0 1 0 255.51602)" font-size="14.3462" font-family="CMTT12"><tspan y="-236.96" x="715.452 722.84036">24</tspan></text>
<text xml:space="preserve" transform="matrix(1 0 -0 1 .000061035159 255.51602)" font-size="14.3462" font-family="CMTT12"><tspan y="-236.96" x="743.798 751.1863">25</tspan></text>
<text xml:space="preserve" transform="matrix(1 0 -0 1 0 255.51602)" font-size="14.3462" font-family="CMTT12"><tspan y="-236.96" x="772.145 779.5333">26</tspan></text>
<text xml:space="preserve" transform="matrix(1 0 -0 1 0 255.51602)" font-size="14.3462" font-family="CMTT12"><tspan y="-236.96" x="800.491 807.87936">27</tspan></text>
<text xml:space="preserve" transform="matrix(1 0 -0 1 0 255.51602)" font-size="14.3462" font-family="CMTT12"><tspan y="-236.96" x="828.838 836.2263">28</tspan></text>
<text xml:space="preserve" transform="matrix(1 0 -0 1 0 255.51602)" font-size="14.3462" font-family="CMTT12"><tspan y="-236.96" x="857.184 864.5723">29</tspan></text>
<text xml:space="preserve" transform="matrix(1 0 -0 1 0 255.51602)" font-size="14.3462" font-family="CMTT12"><tspan y="-236.96" x="885.531 892.9193">30</tspan></text>
<text xml:space="preserve" transform="matrix(1 0 -0 1 0 255.51602)" font-size="14.3462" font-family="CMTT12"><tspan y="-236.96" x="913.877 921.2653">31</tspan></text>
</svg>
