<svg width="100%" height="100%" viewBox="0 0 500 180" preserveAspectRatio="xMidYMid meet" xmlns="http://www.w3.org/2000/svg">
<rect x="20" y="20" width="20" height="20" fill="rgb(175,175,255)" stroke="black"/>
<text x="30" y="30" text-anchor="middle" alignment-baseline="central" font-size="8">0</text>
<rect x="40" y="20" width="20" height="20" fill="rgb(175,255,175)" stroke="black"/>
<text x="50" y="30" text-anchor="middle" alignment-baseline="central" font-size="8">1</text>
<rect x="60" y="20" width="20" height="20" fill="rgb(255,255,175)" stroke="black"/>
<text x="70" y="30" text-anchor="middle" alignment-baseline="central" font-size="8">2</text>
<rect x="80" y="20" width="20" height="20" fill="rgb(255,175,175)" stroke="black"/>
<text x="90" y="30" text-anchor="middle" alignment-baseline="central" font-size="8">3</text>
<rect x="100" y="20" width="20" height="20" fill="rgb(210,210,255)" stroke="black"/>
<text x="110" y="30" text-anchor="middle" alignment-baseline="central" font-size="8">4</text>
<rect x="120" y="20" width="20" height="20" fill="rgb(210,255,210)" stroke="black"/>
<text x="130" y="30" text-anchor="middle" alignment-baseline="central" font-size="8">5</text>
<rect x="140" y="20" width="20" height="20" fill="rgb(255,255,210)" stroke="black"/>
<text x="150" y="30" text-anchor="middle" alignment-baseline="central" font-size="8">6</text>
<rect x="160" y="20" width="20" height="20" fill="rgb(255,210,210)" stroke="black"/>
<text x="170" y="30" text-anchor="middle" alignment-baseline="central" font-size="8">7</text>
<rect x="180" y="20" width="20" height="20" fill="rgb(175,175,255)" stroke="black"/>
<text x="190" y="30" text-anchor="middle" alignment-baseline="central" font-size="8">8</text>
<rect x="200" y="20" width="20" height="20" fill="rgb(175,255,175)" stroke="black"/>
<text x="210" y="30" text-anchor="middle" alignment-baseline="central" font-size="8">9</text>
<rect x="220" y="20" width="20" height="20" fill="rgb(255,255,175)" stroke="black"/>
<text x="230" y="30" text-anchor="middle" alignment-baseline="central" font-size="8">10</text>
<rect x="240" y="20" width="20" height="20" fill="rgb(255,175,175)" stroke="black"/>
<text x="250" y="30" text-anchor="middle" alignment-baseline="central" font-size="8">11</text>
<rect x="260" y="20" width="20" height="20" fill="rgb(210,210,255)" stroke="black"/>
<text x="270" y="30" text-anchor="middle" alignment-baseline="central" font-size="8">12</text>
<rect x="280" y="20" width="20" height="20" fill="rgb(210,255,210)" stroke="black"/>
<text x="290" y="30" text-anchor="middle" alignment-baseline="central" font-size="8">13</text>
<rect x="300" y="20" width="20" height="20" fill="rgb(255,255,210)" stroke="black"/>
<text x="310" y="30" text-anchor="middle" alignment-baseline="central" font-size="8">14</text>
<rect x="320" y="20" width="20" height="20" fill="rgb(255,210,210)" stroke="black"/>
<text x="330" y="30" text-anchor="middle" alignment-baseline="central" font-size="8">15</text>
<rect x="340" y="20" width="20" height="20" fill="rgb(175,175,255)" stroke="black"/>
<text x="350" y="30" text-anchor="middle" alignment-baseline="central" font-size="8">16</text>
<rect x="360" y="20" width="20" height="20" fill="rgb(175,255,175)" stroke="black"/>
<text x="370" y="30" text-anchor="middle" alignment-baseline="central" font-size="8">17</text>
<rect x="380" y="20" width="20" height="20" fill="rgb(255,255,175)" stroke="black"/>
<text x="390" y="30" text-anchor="middle" alignment-baseline="central" font-size="8">18</text>
<rect x="400" y="20" width="20" height="20" fill="rgb(255,175,175)" stroke="black"/>
<text x="410" y="30" text-anchor="middle" alignment-baseline="central" font-size="8">19</text>
<rect x="420" y="20" width="20" height="20" fill="rgb(210,210,255)" stroke="black"/>
<text x="430" y="30" text-anchor="middle" alignment-baseline="central" font-size="8">20</text>
<rect x="440" y="20" width="20" height="20" fill="rgb(210,255,210)" stroke="black"/>
<text x="450" y="30" text-anchor="middle" alignment-baseline="central" font-size="8">21</text>
<rect x="460" y="20" width="20" height="20" fill="rgb(255,255,210)" stroke="black"/>
<text x="470" y="30" text-anchor="middle" alignment-baseline="central" font-size="8">22</text>
<rect x="480" y="20" width="20" height="20" fill="rgb(255,210,210)" stroke="black"/>
<text x="490" y="30" text-anchor="middle" alignment-baseline="central" font-size="8">23</text>
<rect x="20" y="40" width="20" height="20" fill="rgb(175,255,175)" stroke="black"/>
<text x="30" y="50" text-anchor="middle" alignment-baseline="central" font-size="8">25</text>
<rect x="40" y="40" width="20" height="20" fill="rgb(175,175,255)" stroke="black"/>
<text x="50" y="50" text-anchor="middle" alignment-baseline="central" font-size="8">24</text>
<rect x="60" y="40" width="20" height="20" fill="rgb(255,175,175)" stroke="black"/>
<text x="70" y="50" text-anchor="middle" alignment-baseline="central" font-size="8">27</text>
<rect x="80" y="40" width="20" height="20" fill="rgb(255,255,175)" stroke="black"/>
<text x="90" y="50" text-anchor="middle" alignment-baseline="central" font-size="8">26</text>
<rect x="100" y="40" width="20" height="20" fill="rgb(210,255,210)" stroke="black"/>
<text x="110" y="50" text-anchor="middle" alignment-baseline="central" font-size="8">29</text>
<rect x="120" y="40" width="20" height="20" fill="rgb(210,210,255)" stroke="black"/>
<text x="130" y="50" text-anchor="middle" alignment-baseline="central" font-size="8">28</text>
<rect x="140" y="40" width="20" height="20" fill="rgb(255,210,210)" stroke="black"/>
<text x="150" y="50" text-anchor="middle" alignment-baseline="central" font-size="8">31</text>
<rect x="160" y="40" width="20" height="20" fill="rgb(255,255,210)" stroke="black"/>
<text x="170" y="50" text-anchor="middle" alignment-baseline="central" font-size="8">30</text>
<rect x="180" y="40" width="20" height="20" fill="rgb(175,255,175)" stroke="black"/>
<text x="190" y="50" text-anchor="middle" alignment-baseline="central" font-size="8">33</text>
<rect x="200" y="40" width="20" height="20" fill="rgb(175,175,255)" stroke="black"/>
<text x="210" y="50" text-anchor="middle" alignment-baseline="central" font-size="8">32</text>
<rect x="220" y="40" width="20" height="20" fill="rgb(255,175,175)" stroke="black"/>
<text x="230" y="50" text-anchor="middle" alignment-baseline="central" font-size="8">35</text>
<rect x="240" y="40" width="20" height="20" fill="rgb(255,255,175)" stroke="black"/>
<text x="250" y="50" text-anchor="middle" alignment-baseline="central" font-size="8">34</text>
<rect x="260" y="40" width="20" height="20" fill="rgb(210,255,210)" stroke="black"/>
<text x="270" y="50" text-anchor="middle" alignment-baseline="central" font-size="8">37</text>
<rect x="280" y="40" width="20" height="20" fill="rgb(210,210,255)" stroke="black"/>
<text x="290" y="50" text-anchor="middle" alignment-baseline="central" font-size="8">36</text>
<rect x="300" y="40" width="20" height="20" fill="rgb(255,210,210)" stroke="black"/>
<text x="310" y="50" text-anchor="middle" alignment-baseline="central" font-size="8">39</text>
<rect x="320" y="40" width="20" height="20" fill="rgb(255,255,210)" stroke="black"/>
<text x="330" y="50" text-anchor="middle" alignment-baseline="central" font-size="8">38</text>
<rect x="340" y="40" width="20" height="20" fill="rgb(175,255,175)" stroke="black"/>
<text x="350" y="50" text-anchor="middle" alignment-baseline="central" font-size="8">41</text>
<rect x="360" y="40" width="20" height="20" fill="rgb(175,175,255)" stroke="black"/>
<text x="370" y="50" text-anchor="middle" alignment-baseline="central" font-size="8">40</text>
<rect x="380" y="40" width="20" height="20" fill="rgb(255,175,175)" stroke="black"/>
<text x="390" y="50" text-anchor="middle" alignment-baseline="central" font-size="8">43</text>
<rect x="400" y="40" width="20" height="20" fill="rgb(255,255,175)" stroke="black"/>
<text x="410" y="50" text-anchor="middle" alignment-baseline="central" font-size="8">42</text>
<rect x="420" y="40" width="20" height="20" fill="rgb(210,255,210)" stroke="black"/>
<text x="430" y="50" text-anchor="middle" alignment-baseline="central" font-size="8">45</text>
<rect x="440" y="40" width="20" height="20" fill="rgb(210,210,255)" stroke="black"/>
<text x="450" y="50" text-anchor="middle" alignment-baseline="central" font-size="8">44</text>
<rect x="460" y="40" width="20" height="20" fill="rgb(255,210,210)" stroke="black"/>
<text x="470" y="50" text-anchor="middle" alignment-baseline="central" font-size="8">47</text>
<rect x="480" y="40" width="20" height="20" fill="rgb(255,255,210)" stroke="black"/>
<text x="490" y="50" text-anchor="middle" alignment-baseline="central" font-size="8">46</text>
<rect x="20" y="60" width="20" height="20" fill="rgb(255,255,175)" stroke="black"/>
<text x="30" y="70" text-anchor="middle" alignment-baseline="central" font-size="8">50</text>
<rect x="40" y="60" width="20" height="20" fill="rgb(255,175,175)" stroke="black"/>
<text x="50" y="70" text-anchor="middle" alignment-baseline="central" font-size="8">51</text>
<rect x="60" y="60" width="20" height="20" fill="rgb(175,175,255)" stroke="black"/>
<text x="70" y="70" text-anchor="middle" alignment-baseline="central" font-size="8">48</text>
<rect x="80" y="60" width="20" height="20" fill="rgb(175,255,175)" stroke="black"/>
<text x="90" y="70" text-anchor="middle" alignment-baseline="central" font-size="8">49</text>
<rect x="100" y="60" width="20" height="20" fill="rgb(255,255,210)" stroke="black"/>
<text x="110" y="70" text-anchor="middle" alignment-baseline="central" font-size="8">54</text>
<rect x="120" y="60" width="20" height="20" fill="rgb(255,210,210)" stroke="black"/>
<text x="130" y="70" text-anchor="middle" alignment-baseline="central" font-size="8">55</text>
<rect x="140" y="60" width="20" height="20" fill="rgb(210,210,255)" stroke="black"/>
<text x="150" y="70" text-anchor="middle" alignment-baseline="central" font-size="8">52</text>
<rect x="160" y="60" width="20" height="20" fill="rgb(210,255,210)" stroke="black"/>
<text x="170" y="70" text-anchor="middle" alignment-baseline="central" font-size="8">53</text>
<rect x="180" y="60" width="20" height="20" fill="rgb(255,255,175)" stroke="black"/>
<text x="190" y="70" text-anchor="middle" alignment-baseline="central" font-size="8">58</text>
<rect x="200" y="60" width="20" height="20" fill="rgb(255,175,175)" stroke="black"/>
<text x="210" y="70" text-anchor="middle" alignment-baseline="central" font-size="8">59</text>
<rect x="220" y="60" width="20" height="20" fill="rgb(175,175,255)" stroke="black"/>
<text x="230" y="70" text-anchor="middle" alignment-baseline="central" font-size="8">56</text>
<rect x="240" y="60" width="20" height="20" fill="rgb(175,255,175)" stroke="black"/>
<text x="250" y="70" text-anchor="middle" alignment-baseline="central" font-size="8">57</text>
<rect x="260" y="60" width="20" height="20" fill="rgb(255,255,210)" stroke="black"/>
<text x="270" y="70" text-anchor="middle" alignment-baseline="central" font-size="8">62</text>
<rect x="280" y="60" width="20" height="20" fill="rgb(255,210,210)" stroke="black"/>
<text x="290" y="70" text-anchor="middle" alignment-baseline="central" font-size="8">63</text>
<rect x="300" y="60" width="20" height="20" fill="rgb(210,210,255)" stroke="black"/>
<text x="310" y="70" text-anchor="middle" alignment-baseline="central" font-size="8">60</text>
<rect x="320" y="60" width="20" height="20" fill="rgb(210,255,210)" stroke="black"/>
<text x="330" y="70" text-anchor="middle" alignment-baseline="central" font-size="8">61</text>
<rect x="340" y="60" width="20" height="20" fill="rgb(255,255,175)" stroke="black"/>
<text x="350" y="70" text-anchor="middle" alignment-baseline="central" font-size="8">66</text>
<rect x="360" y="60" width="20" height="20" fill="rgb(255,175,175)" stroke="black"/>
<text x="370" y="70" text-anchor="middle" alignment-baseline="central" font-size="8">67</text>
<rect x="380" y="60" width="20" height="20" fill="rgb(175,175,255)" stroke="black"/>
<text x="390" y="70" text-anchor="middle" alignment-baseline="central" font-size="8">64</text>
<rect x="400" y="60" width="20" height="20" fill="rgb(175,255,175)" stroke="black"/>
<text x="410" y="70" text-anchor="middle" alignment-baseline="central" font-size="8">65</text>
<rect x="420" y="60" width="20" height="20" fill="rgb(255,255,210)" stroke="black"/>
<text x="430" y="70" text-anchor="middle" alignment-baseline="central" font-size="8">70</text>
<rect x="440" y="60" width="20" height="20" fill="rgb(255,210,210)" stroke="black"/>
<text x="450" y="70" text-anchor="middle" alignment-baseline="central" font-size="8">71</text>
<rect x="460" y="60" width="20" height="20" fill="rgb(210,210,255)" stroke="black"/>
<text x="470" y="70" text-anchor="middle" alignment-baseline="central" font-size="8">68</text>
<rect x="480" y="60" width="20" height="20" fill="rgb(210,255,210)" stroke="black"/>
<text x="490" y="70" text-anchor="middle" alignment-baseline="central" font-size="8">69</text>
<rect x="20" y="80" width="20" height="20" fill="rgb(255,175,175)" stroke="black"/>
<text x="30" y="90" text-anchor="middle" alignment-baseline="central" font-size="8">75</text>
<rect x="40" y="80" width="20" height="20" fill="rgb(255,255,175)" stroke="black"/>
<text x="50" y="90" text-anchor="middle" alignment-baseline="central" font-size="8">74</text>
<rect x="60" y="80" width="20" height="20" fill="rgb(175,255,175)" stroke="black"/>
<text x="70" y="90" text-anchor="middle" alignment-baseline="central" font-size="8">73</text>
<rect x="80" y="80" width="20" height="20" fill="rgb(175,175,255)" stroke="black"/>
<text x="90" y="90" text-anchor="middle" alignment-baseline="central" font-size="8">72</text>
<rect x="100" y="80" width="20" height="20" fill="rgb(255,210,210)" stroke="black"/>
<text x="110" y="90" text-anchor="middle" alignment-baseline="central" font-size="8">79</text>
<rect x="120" y="80" width="20" height="20" fill="rgb(255,255,210)" stroke="black"/>
<text x="130" y="90" text-anchor="middle" alignment-baseline="central" font-size="8">78</text>
<rect x="140" y="80" width="20" height="20" fill="rgb(210,255,210)" stroke="black"/>
<text x="150" y="90" text-anchor="middle" alignment-baseline="central" font-size="8">77</text>
<rect x="160" y="80" width="20" height="20" fill="rgb(210,210,255)" stroke="black"/>
<text x="170" y="90" text-anchor="middle" alignment-baseline="central" font-size="8">76</text>
<rect x="180" y="80" width="20" height="20" fill="rgb(255,175,175)" stroke="black"/>
<text x="190" y="90" text-anchor="middle" alignment-baseline="central" font-size="8">83</text>
<rect x="200" y="80" width="20" height="20" fill="rgb(255,255,175)" stroke="black"/>
<text x="210" y="90" text-anchor="middle" alignment-baseline="central" font-size="8">82</text>
<rect x="220" y="80" width="20" height="20" fill="rgb(175,255,175)" stroke="black"/>
<text x="230" y="90" text-anchor="middle" alignment-baseline="central" font-size="8">81</text>
<rect x="240" y="80" width="20" height="20" fill="rgb(175,175,255)" stroke="black"/>
<text x="250" y="90" text-anchor="middle" alignment-baseline="central" font-size="8">80</text>
<rect x="260" y="80" width="20" height="20" fill="rgb(255,210,210)" stroke="black"/>
<text x="270" y="90" text-anchor="middle" alignment-baseline="central" font-size="8">87</text>
<rect x="280" y="80" width="20" height="20" fill="rgb(255,255,210)" stroke="black"/>
<text x="290" y="90" text-anchor="middle" alignment-baseline="central" font-size="8">86</text>
<rect x="300" y="80" width="20" height="20" fill="rgb(210,255,210)" stroke="black"/>
<text x="310" y="90" text-anchor="middle" alignment-baseline="central" font-size="8">85</text>
<rect x="320" y="80" width="20" height="20" fill="rgb(210,210,255)" stroke="black"/>
<text x="330" y="90" text-anchor="middle" alignment-baseline="central" font-size="8">84</text>
<rect x="340" y="80" width="20" height="20" fill="rgb(255,175,175)" stroke="black"/>
<text x="350" y="90" text-anchor="middle" alignment-baseline="central" font-size="8">91</text>
<rect x="360" y="80" width="20" height="20" fill="rgb(255,255,175)" stroke="black"/>
<text x="370" y="90" text-anchor="middle" alignment-baseline="central" font-size="8">90</text>
<rect x="380" y="80" width="20" height="20" fill="rgb(175,255,175)" stroke="black"/>
<text x="390" y="90" text-anchor="middle" alignment-baseline="central" font-size="8">89</text>
<rect x="400" y="80" width="20" height="20" fill="rgb(175,175,255)" stroke="black"/>
<text x="410" y="90" text-anchor="middle" alignment-baseline="central" font-size="8">88</text>
<rect x="420" y="80" width="20" height="20" fill="rgb(255,210,210)" stroke="black"/>
<text x="430" y="90" text-anchor="middle" alignment-baseline="central" font-size="8">95</text>
<rect x="440" y="80" width="20" height="20" fill="rgb(255,255,210)" stroke="black"/>
<text x="450" y="90" text-anchor="middle" alignment-baseline="central" font-size="8">94</text>
<rect x="460" y="80" width="20" height="20" fill="rgb(210,255,210)" stroke="black"/>
<text x="470" y="90" text-anchor="middle" alignment-baseline="central" font-size="8">93</text>
<rect x="480" y="80" width="20" height="20" fill="rgb(210,210,255)" stroke="black"/>
<text x="490" y="90" text-anchor="middle" alignment-baseline="central" font-size="8">92</text>
<rect x="20" y="100" width="20" height="20" fill="rgb(210,210,255)" stroke="black"/>
<text x="30" y="110" text-anchor="middle" alignment-baseline="central" font-size="8">100</text>
<rect x="40" y="100" width="20" height="20" fill="rgb(210,255,210)" stroke="black"/>
<text x="50" y="110" text-anchor="middle" alignment-baseline="central" font-size="8">101</text>
<rect x="60" y="100" width="20" height="20" fill="rgb(255,255,210)" stroke="black"/>
<text x="70" y="110" text-anchor="middle" alignment-baseline="central" font-size="8">102</text>
<rect x="80" y="100" width="20" height="20" fill="rgb(255,210,210)" stroke="black"/>
<text x="90" y="110" text-anchor="middle" alignment-baseline="central" font-size="8">103</text>
<rect x="100" y="100" width="20" height="20" fill="rgb(175,175,255)" stroke="black"/>
<text x="110" y="110" text-anchor="middle" alignment-baseline="central" font-size="8">96</text>
<rect x="120" y="100" width="20" height="20" fill="rgb(175,255,175)" stroke="black"/>
<text x="130" y="110" text-anchor="middle" alignment-baseline="central" font-size="8">97</text>
<rect x="140" y="100" width="20" height="20" fill="rgb(255,255,175)" stroke="black"/>
<text x="150" y="110" text-anchor="middle" alignment-baseline="central" font-size="8">98</text>
<rect x="160" y="100" width="20" height="20" fill="rgb(255,175,175)" stroke="black"/>
<text x="170" y="110" text-anchor="middle" alignment-baseline="central" font-size="8">99</text>
<rect x="180" y="100" width="20" height="20" fill="rgb(210,210,255)" stroke="black"/>
<text x="190" y="110" text-anchor="middle" alignment-baseline="central" font-size="8">108</text>
<rect x="200" y="100" width="20" height="20" fill="rgb(210,255,210)" stroke="black"/>
<text x="210" y="110" text-anchor="middle" alignment-baseline="central" font-size="8">109</text>
<rect x="220" y="100" width="20" height="20" fill="rgb(255,255,210)" stroke="black"/>
<text x="230" y="110" text-anchor="middle" alignment-baseline="central" font-size="8">110</text>
<rect x="240" y="100" width="20" height="20" fill="rgb(255,210,210)" stroke="black"/>
<text x="250" y="110" text-anchor="middle" alignment-baseline="central" font-size="8">111</text>
<rect x="260" y="100" width="20" height="20" fill="rgb(175,175,255)" stroke="black"/>
<text x="270" y="110" text-anchor="middle" alignment-baseline="central" font-size="8">104</text>
<rect x="280" y="100" width="20" height="20" fill="rgb(175,255,175)" stroke="black"/>
<text x="290" y="110" text-anchor="middle" alignment-baseline="central" font-size="8">105</text>
<rect x="300" y="100" width="20" height="20" fill="rgb(255,255,175)" stroke="black"/>
<text x="310" y="110" text-anchor="middle" alignment-baseline="central" font-size="8">106</text>
<rect x="320" y="100" width="20" height="20" fill="rgb(255,175,175)" stroke="black"/>
<text x="330" y="110" text-anchor="middle" alignment-baseline="central" font-size="8">107</text>
<rect x="340" y="100" width="20" height="20" fill="rgb(210,210,255)" stroke="black"/>
<text x="350" y="110" text-anchor="middle" alignment-baseline="central" font-size="8">116</text>
<rect x="360" y="100" width="20" height="20" fill="rgb(210,255,210)" stroke="black"/>
<text x="370" y="110" text-anchor="middle" alignment-baseline="central" font-size="8">117</text>
<rect x="380" y="100" width="20" height="20" fill="rgb(255,255,210)" stroke="black"/>
<text x="390" y="110" text-anchor="middle" alignment-baseline="central" font-size="8">118</text>
<rect x="400" y="100" width="20" height="20" fill="rgb(255,210,210)" stroke="black"/>
<text x="410" y="110" text-anchor="middle" alignment-baseline="central" font-size="8">119</text>
<rect x="420" y="100" width="20" height="20" fill="rgb(175,175,255)" stroke="black"/>
<text x="430" y="110" text-anchor="middle" alignment-baseline="central" font-size="8">112</text>
<rect x="440" y="100" width="20" height="20" fill="rgb(175,255,175)" stroke="black"/>
<text x="450" y="110" text-anchor="middle" alignment-baseline="central" font-size="8">113</text>
<rect x="460" y="100" width="20" height="20" fill="rgb(255,255,175)" stroke="black"/>
<text x="470" y="110" text-anchor="middle" alignment-baseline="central" font-size="8">114</text>
<rect x="480" y="100" width="20" height="20" fill="rgb(255,175,175)" stroke="black"/>
<text x="490" y="110" text-anchor="middle" alignment-baseline="central" font-size="8">115</text>
<rect x="20" y="120" width="20" height="20" fill="rgb(210,255,210)" stroke="black"/>
<text x="30" y="130" text-anchor="middle" alignment-baseline="central" font-size="8">125</text>
<rect x="40" y="120" width="20" height="20" fill="rgb(210,210,255)" stroke="black"/>
<text x="50" y="130" text-anchor="middle" alignment-baseline="central" font-size="8">124</text>
<rect x="60" y="120" width="20" height="20" fill="rgb(255,210,210)" stroke="black"/>
<text x="70" y="130" text-anchor="middle" alignment-baseline="central" font-size="8">127</text>
<rect x="80" y="120" width="20" height="20" fill="rgb(255,255,210)" stroke="black"/>
<text x="90" y="130" text-anchor="middle" alignment-baseline="central" font-size="8">126</text>
<rect x="100" y="120" width="20" height="20" fill="rgb(175,255,175)" stroke="black"/>
<text x="110" y="130" text-anchor="middle" alignment-baseline="central" font-size="8">121</text>
<rect x="120" y="120" width="20" height="20" fill="rgb(175,175,255)" stroke="black"/>
<text x="130" y="130" text-anchor="middle" alignment-baseline="central" font-size="8">120</text>
<rect x="140" y="120" width="20" height="20" fill="rgb(255,175,175)" stroke="black"/>
<text x="150" y="130" text-anchor="middle" alignment-baseline="central" font-size="8">123</text>
<rect x="160" y="120" width="20" height="20" fill="rgb(255,255,175)" stroke="black"/>
<text x="170" y="130" text-anchor="middle" alignment-baseline="central" font-size="8">122</text>
<rect x="180" y="120" width="20" height="20" fill="rgb(210,255,210)" stroke="black"/>
<text x="190" y="130" text-anchor="middle" alignment-baseline="central" font-size="8">133</text>
<rect x="200" y="120" width="20" height="20" fill="rgb(210,210,255)" stroke="black"/>
<text x="210" y="130" text-anchor="middle" alignment-baseline="central" font-size="8">132</text>
<rect x="220" y="120" width="20" height="20" fill="rgb(255,210,210)" stroke="black"/>
<text x="230" y="130" text-anchor="middle" alignment-baseline="central" font-size="8">135</text>
<rect x="240" y="120" width="20" height="20" fill="rgb(255,255,210)" stroke="black"/>
<text x="250" y="130" text-anchor="middle" alignment-baseline="central" font-size="8">134</text>
<rect x="260" y="120" width="20" height="20" fill="rgb(175,255,175)" stroke="black"/>
<text x="270" y="130" text-anchor="middle" alignment-baseline="central" font-size="8">129</text>
<rect x="280" y="120" width="20" height="20" fill="rgb(175,175,255)" stroke="black"/>
<text x="290" y="130" text-anchor="middle" alignment-baseline="central" font-size="8">128</text>
<rect x="300" y="120" width="20" height="20" fill="rgb(255,175,175)" stroke="black"/>
<text x="310" y="130" text-anchor="middle" alignment-baseline="central" font-size="8">131</text>
<rect x="320" y="120" width="20" height="20" fill="rgb(255,255,175)" stroke="black"/>
<text x="330" y="130" text-anchor="middle" alignment-baseline="central" font-size="8">130</text>
<rect x="340" y="120" width="20" height="20" fill="rgb(210,255,210)" stroke="black"/>
<text x="350" y="130" text-anchor="middle" alignment-baseline="central" font-size="8">141</text>
<rect x="360" y="120" width="20" height="20" fill="rgb(210,210,255)" stroke="black"/>
<text x="370" y="130" text-anchor="middle" alignment-baseline="central" font-size="8">140</text>
<rect x="380" y="120" width="20" height="20" fill="rgb(255,210,210)" stroke="black"/>
<text x="390" y="130" text-anchor="middle" alignment-baseline="central" font-size="8">143</text>
<rect x="400" y="120" width="20" height="20" fill="rgb(255,255,210)" stroke="black"/>
<text x="410" y="130" text-anchor="middle" alignment-baseline="central" font-size="8">142</text>
<rect x="420" y="120" width="20" height="20" fill="rgb(175,255,175)" stroke="black"/>
<text x="430" y="130" text-anchor="middle" alignment-baseline="central" font-size="8">137</text>
<rect x="440" y="120" width="20" height="20" fill="rgb(175,175,255)" stroke="black"/>
<text x="450" y="130" text-anchor="middle" alignment-baseline="central" font-size="8">136</text>
<rect x="460" y="120" width="20" height="20" fill="rgb(255,175,175)" stroke="black"/>
<text x="470" y="130" text-anchor="middle" alignment-baseline="central" font-size="8">139</text>
<rect x="480" y="120" width="20" height="20" fill="rgb(255,255,175)" stroke="black"/>
<text x="490" y="130" text-anchor="middle" alignment-baseline="central" font-size="8">138</text>
<rect x="20" y="140" width="20" height="20" fill="rgb(255,255,210)" stroke="black"/>
<text x="30" y="150" text-anchor="middle" alignment-baseline="central" font-size="8">150</text>
<rect x="40" y="140" width="20" height="20" fill="rgb(255,210,210)" stroke="black"/>
<text x="50" y="150" text-anchor="middle" alignment-baseline="central" font-size="8">151</text>
<rect x="60" y="140" width="20" height="20" fill="rgb(210,210,255)" stroke="black"/>
<text x="70" y="150" text-anchor="middle" alignment-baseline="central" font-size="8">148</text>
<rect x="80" y="140" width="20" height="20" fill="rgb(210,255,210)" stroke="black"/>
<text x="90" y="150" text-anchor="middle" alignment-baseline="central" font-size="8">149</text>
<rect x="100" y="140" width="20" height="20" fill="rgb(255,255,175)" stroke="black"/>
<text x="110" y="150" text-anchor="middle" alignment-baseline="central" font-size="8">146</text>
<rect x="120" y="140" width="20" height="20" fill="rgb(255,175,175)" stroke="black"/>
<text x="130" y="150" text-anchor="middle" alignment-baseline="central" font-size="8">147</text>
<rect x="140" y="140" width="20" height="20" fill="rgb(175,175,255)" stroke="black"/>
<text x="150" y="150" text-anchor="middle" alignment-baseline="central" font-size="8">144</text>
<rect x="160" y="140" width="20" height="20" fill="rgb(175,255,175)" stroke="black"/>
<text x="170" y="150" text-anchor="middle" alignment-baseline="central" font-size="8">145</text>
<rect x="180" y="140" width="20" height="20" fill="rgb(255,255,210)" stroke="black"/>
<text x="190" y="150" text-anchor="middle" alignment-baseline="central" font-size="8">158</text>
<rect x="200" y="140" width="20" height="20" fill="rgb(255,210,210)" stroke="black"/>
<text x="210" y="150" text-anchor="middle" alignment-baseline="central" font-size="8">159</text>
<rect x="220" y="140" width="20" height="20" fill="rgb(210,210,255)" stroke="black"/>
<text x="230" y="150" text-anchor="middle" alignment-baseline="central" font-size="8">156</text>
<rect x="240" y="140" width="20" height="20" fill="rgb(210,255,210)" stroke="black"/>
<text x="250" y="150" text-anchor="middle" alignment-baseline="central" font-size="8">157</text>
<rect x="260" y="140" width="20" height="20" fill="rgb(255,255,175)" stroke="black"/>
<text x="270" y="150" text-anchor="middle" alignment-baseline="central" font-size="8">154</text>
<rect x="280" y="140" width="20" height="20" fill="rgb(255,175,175)" stroke="black"/>
<text x="290" y="150" text-anchor="middle" alignment-baseline="central" font-size="8">155</text>
<rect x="300" y="140" width="20" height="20" fill="rgb(175,175,255)" stroke="black"/>
<text x="310" y="150" text-anchor="middle" alignment-baseline="central" font-size="8">152</text>
<rect x="320" y="140" width="20" height="20" fill="rgb(175,255,175)" stroke="black"/>
<text x="330" y="150" text-anchor="middle" alignment-baseline="central" font-size="8">153</text>
<rect x="340" y="140" width="20" height="20" fill="rgb(255,255,210)" stroke="black"/>
<text x="350" y="150" text-anchor="middle" alignment-baseline="central" font-size="8">166</text>
<rect x="360" y="140" width="20" height="20" fill="rgb(255,210,210)" stroke="black"/>
<text x="370" y="150" text-anchor="middle" alignment-baseline="central" font-size="8">167</text>
<rect x="380" y="140" width="20" height="20" fill="rgb(210,210,255)" stroke="black"/>
<text x="390" y="150" text-anchor="middle" alignment-baseline="central" font-size="8">164</text>
<rect x="400" y="140" width="20" height="20" fill="rgb(210,255,210)" stroke="black"/>
<text x="410" y="150" text-anchor="middle" alignment-baseline="central" font-size="8">165</text>
<rect x="420" y="140" width="20" height="20" fill="rgb(255,255,175)" stroke="black"/>
<text x="430" y="150" text-anchor="middle" alignment-baseline="central" font-size="8">162</text>
<rect x="440" y="140" width="20" height="20" fill="rgb(255,175,175)" stroke="black"/>
<text x="450" y="150" text-anchor="middle" alignment-baseline="central" font-size="8">163</text>
<rect x="460" y="140" width="20" height="20" fill="rgb(175,175,255)" stroke="black"/>
<text x="470" y="150" text-anchor="middle" alignment-baseline="central" font-size="8">160</text>
<rect x="480" y="140" width="20" height="20" fill="rgb(175,255,175)" stroke="black"/>
<text x="490" y="150" text-anchor="middle" alignment-baseline="central" font-size="8">161</text>
<rect x="20" y="160" width="20" height="20" fill="rgb(255,210,210)" stroke="black"/>
<text x="30" y="170" text-anchor="middle" alignment-baseline="central" font-size="8">175</text>
<rect x="40" y="160" width="20" height="20" fill="rgb(255,255,210)" stroke="black"/>
<text x="50" y="170" text-anchor="middle" alignment-baseline="central" font-size="8">174</text>
<rect x="60" y="160" width="20" height="20" fill="rgb(210,255,210)" stroke="black"/>
<text x="70" y="170" text-anchor="middle" alignment-baseline="central" font-size="8">173</text>
<rect x="80" y="160" width="20" height="20" fill="rgb(210,210,255)" stroke="black"/>
<text x="90" y="170" text-anchor="middle" alignment-baseline="central" font-size="8">172</text>
<rect x="100" y="160" width="20" height="20" fill="rgb(255,175,175)" stroke="black"/>
<text x="110" y="170" text-anchor="middle" alignment-baseline="central" font-size="8">171</text>
<rect x="120" y="160" width="20" height="20" fill="rgb(255,255,175)" stroke="black"/>
<text x="130" y="170" text-anchor="middle" alignment-baseline="central" font-size="8">170</text>
<rect x="140" y="160" width="20" height="20" fill="rgb(175,255,175)" stroke="black"/>
<text x="150" y="170" text-anchor="middle" alignment-baseline="central" font-size="8">169</text>
<rect x="160" y="160" width="20" height="20" fill="rgb(175,175,255)" stroke="black"/>
<text x="170" y="170" text-anchor="middle" alignment-baseline="central" font-size="8">168</text>
<rect x="180" y="160" width="20" height="20" fill="rgb(255,210,210)" stroke="black"/>
<text x="190" y="170" text-anchor="middle" alignment-baseline="central" font-size="8">183</text>
<rect x="200" y="160" width="20" height="20" fill="rgb(255,255,210)" stroke="black"/>
<text x="210" y="170" text-anchor="middle" alignment-baseline="central" font-size="8">182</text>
<rect x="220" y="160" width="20" height="20" fill="rgb(210,255,210)" stroke="black"/>
<text x="230" y="170" text-anchor="middle" alignment-baseline="central" font-size="8">181</text>
<rect x="240" y="160" width="20" height="20" fill="rgb(210,210,255)" stroke="black"/>
<text x="250" y="170" text-anchor="middle" alignment-baseline="central" font-size="8">180</text>
<rect x="260" y="160" width="20" height="20" fill="rgb(255,175,175)" stroke="black"/>
<text x="270" y="170" text-anchor="middle" alignment-baseline="central" font-size="8">179</text>
<rect x="280" y="160" width="20" height="20" fill="rgb(255,255,175)" stroke="black"/>
<text x="290" y="170" text-anchor="middle" alignment-baseline="central" font-size="8">178</text>
<rect x="300" y="160" width="20" height="20" fill="rgb(175,255,175)" stroke="black"/>
<text x="310" y="170" text-anchor="middle" alignment-baseline="central" font-size="8">177</text>
<rect x="320" y="160" width="20" height="20" fill="rgb(175,175,255)" stroke="black"/>
<text x="330" y="170" text-anchor="middle" alignment-baseline="central" font-size="8">176</text>
<rect x="340" y="160" width="20" height="20" fill="rgb(255,210,210)" stroke="black"/>
<text x="350" y="170" text-anchor="middle" alignment-baseline="central" font-size="8">191</text>
<rect x="360" y="160" width="20" height="20" fill="rgb(255,255,210)" stroke="black"/>
<text x="370" y="170" text-anchor="middle" alignment-baseline="central" font-size="8">190</text>
<rect x="380" y="160" width="20" height="20" fill="rgb(210,255,210)" stroke="black"/>
<text x="390" y="170" text-anchor="middle" alignment-baseline="central" font-size="8">189</text>
<rect x="400" y="160" width="20" height="20" fill="rgb(210,210,255)" stroke="black"/>
<text x="410" y="170" text-anchor="middle" alignment-baseline="central" font-size="8">188</text>
<rect x="420" y="160" width="20" height="20" fill="rgb(255,175,175)" stroke="black"/>
<text x="430" y="170" text-anchor="middle" alignment-baseline="central" font-size="8">187</text>
<rect x="440" y="160" width="20" height="20" fill="rgb(255,255,175)" stroke="black"/>
<text x="450" y="170" text-anchor="middle" alignment-baseline="central" font-size="8">186</text>
<rect x="460" y="160" width="20" height="20" fill="rgb(175,255,175)" stroke="black"/>
<text x="470" y="170" text-anchor="middle" alignment-baseline="central" font-size="8">185</text>
<rect x="480" y="160" width="20" height="20" fill="rgb(175,175,255)" stroke="black"/>
<text x="490" y="170" text-anchor="middle" alignment-baseline="central" font-size="8">184</text>
<text x="10.0" y="30.0" text-anchor="middle" alignment-baseline="central" font-size="12">0</text>
<text x="10.0" y="50.0" text-anchor="middle" alignment-baseline="central" font-size="12">1</text>
<text x="10.0" y="70.0" text-anchor="middle" alignment-baseline="central" font-size="12">2</text>
<text x="10.0" y="90.0" text-anchor="middle" alignment-baseline="central" font-size="12">3</text>
<text x="10.0" y="110.0" text-anchor="middle" alignment-baseline="central" font-size="12">4</text>
<text x="10.0" y="130.0" text-anchor="middle" alignment-baseline="central" font-size="12">5</text>
<text x="10.0" y="150.0" text-anchor="middle" alignment-baseline="central" font-size="12">6</text>
<text x="10.0" y="170.0" text-anchor="middle" alignment-baseline="central" font-size="12">7</text>
<text x="30.0" y="10.0" text-anchor="middle" alignment-baseline="central" font-size="12">0</text>
<text x="50.0" y="10.0" text-anchor="middle" alignment-baseline="central" font-size="12">1</text>
<text x="70.0" y="10.0" text-anchor="middle" alignment-baseline="central" font-size="12">2</text>
<text x="90.0" y="10.0" text-anchor="middle" alignment-baseline="central" font-size="12">3</text>
<text x="110.0" y="10.0" text-anchor="middle" alignment-baseline="central" font-size="12">4</text>
<text x="130.0" y="10.0" text-anchor="middle" alignment-baseline="central" font-size="12">5</text>
<text x="150.0" y="10.0" text-anchor="middle" alignment-baseline="central" font-size="12">6</text>
<text x="170.0" y="10.0" text-anchor="middle" alignment-baseline="central" font-size="12">7</text>
<text x="190.0" y="10.0" text-anchor="middle" alignment-baseline="central" font-size="12">8</text>
<text x="210.0" y="10.0" text-anchor="middle" alignment-baseline="central" font-size="12">9</text>
<text x="230.0" y="10.0" text-anchor="middle" alignment-baseline="central" font-size="12">10</text>
<text x="250.0" y="10.0" text-anchor="middle" alignment-baseline="central" font-size="12">11</text>
<text x="270.0" y="10.0" text-anchor="middle" alignment-baseline="central" font-size="12">12</text>
<text x="290.0" y="10.0" text-anchor="middle" alignment-baseline="central" font-size="12">13</text>
<text x="310.0" y="10.0" text-anchor="middle" alignment-baseline="central" font-size="12">14</text>
<text x="330.0" y="10.0" text-anchor="middle" alignment-baseline="central" font-size="12">15</text>
<text x="350.0" y="10.0" text-anchor="middle" alignment-baseline="central" font-size="12">16</text>
<text x="370.0" y="10.0" text-anchor="middle" alignment-baseline="central" font-size="12">17</text>
<text x="390.0" y="10.0" text-anchor="middle" alignment-baseline="central" font-size="12">18</text>
<text x="410.0" y="10.0" text-anchor="middle" alignment-baseline="central" font-size="12">19</text>
<text x="430.0" y="10.0" text-anchor="middle" alignment-baseline="central" font-size="12">20</text>
<text x="450.0" y="10.0" text-anchor="middle" alignment-baseline="central" font-size="12">21</text>
<text x="470.0" y="10.0" text-anchor="middle" alignment-baseline="central" font-size="12">22</text>
<text x="490.0" y="10.0" text-anchor="middle" alignment-baseline="central" font-size="12">23</text>
</svg>
