<svg width="100%" height="100%" viewBox="0 0 100 180" preserveAspectRatio="xMidYMid meet" xmlns="http://www.w3.org/2000/svg">
<rect x="20" y="20" width="20" height="20" fill="rgb(175,175,255)" stroke="black"/>
<text x="30" y="30" text-anchor="middle" alignment-baseline="central" font-size="8">0</text>
<rect x="40" y="20" width="20" height="20" fill="rgb(175,255,175)" stroke="black"/>
<text x="50" y="30" text-anchor="middle" alignment-baseline="central" font-size="8">1</text>
<rect x="60" y="20" width="20" height="20" fill="rgb(255,255,175)" stroke="black"/>
<text x="70" y="30" text-anchor="middle" alignment-baseline="central" font-size="8">2</text>
<rect x="80" y="20" width="20" height="20" fill="rgb(255,175,175)" stroke="black"/>
<text x="90" y="30" text-anchor="middle" alignment-baseline="central" font-size="8">3</text>
<rect x="20" y="40" width="20" height="20" fill="rgb(210,255,210)" stroke="black"/>
<text x="30" y="50" text-anchor="middle" alignment-baseline="central" font-size="8">5</text>
<rect x="40" y="40" width="20" height="20" fill="rgb(210,210,255)" stroke="black"/>
<text x="50" y="50" text-anchor="middle" alignment-baseline="central" font-size="8">4</text>
<rect x="60" y="40" width="20" height="20" fill="rgb(255,210,210)" stroke="black"/>
<text x="70" y="50" text-anchor="middle" alignment-baseline="central" font-size="8">7</text>
<rect x="80" y="40" width="20" height="20" fill="rgb(255,255,210)" stroke="black"/>
<text x="90" y="50" text-anchor="middle" alignment-baseline="central" font-size="8">6</text>
<rect x="20" y="60" width="20" height="20" fill="rgb(255,255,175)" stroke="black"/>
<text x="30" y="70" text-anchor="middle" alignment-baseline="central" font-size="8">10</text>
<rect x="40" y="60" width="20" height="20" fill="rgb(255,175,175)" stroke="black"/>
<text x="50" y="70" text-anchor="middle" alignment-baseline="central" font-size="8">11</text>
<rect x="60" y="60" width="20" height="20" fill="rgb(175,175,255)" stroke="black"/>
<text x="70" y="70" text-anchor="middle" alignment-baseline="central" font-size="8">8</text>
<rect x="80" y="60" width="20" height="20" fill="rgb(175,255,175)" stroke="black"/>
<text x="90" y="70" text-anchor="middle" alignment-baseline="central" font-size="8">9</text>
<rect x="20" y="80" width="20" height="20" fill="rgb(255,210,210)" stroke="black"/>
<text x="30" y="90" text-anchor="middle" alignment-baseline="central" font-size="8">15</text>
<rect x="40" y="80" width="20" height="20" fill="rgb(255,255,210)" stroke="black"/>
<text x="50" y="90" text-anchor="middle" alignment-baseline="central" font-size="8">14</text>
<rect x="60" y="80" width="20" height="20" fill="rgb(210,255,210)" stroke="black"/>
<text x="70" y="90" text-anchor="middle" alignment-baseline="central" font-size="8">13</text>
<rect x="80" y="80" width="20" height="20" fill="rgb(210,210,255)" stroke="black"/>
<text x="90" y="90" text-anchor="middle" alignment-baseline="central" font-size="8">12</text>
<rect x="20" y="100" width="20" height="20" fill="rgb(210,210,255)" stroke="black"/>
<text x="30" y="110" text-anchor="middle" alignment-baseline="central" font-size="8">20</text>
<rect x="40" y="100" width="20" height="20" fill="rgb(210,255,210)" stroke="black"/>
<text x="50" y="110" text-anchor="middle" alignment-baseline="central" font-size="8">21</text>
<rect x="60" y="100" width="20" height="20" fill="rgb(255,255,210)" stroke="black"/>
<text x="70" y="110" text-anchor="middle" alignment-baseline="central" font-size="8">22</text>
<rect x="80" y="100" width="20" height="20" fill="rgb(255,210,210)" stroke="black"/>
<text x="90" y="110" text-anchor="middle" alignment-baseline="central" font-size="8">23</text>
<rect x="20" y="120" width="20" height="20" fill="rgb(175,255,175)" stroke="black"/>
<text x="30" y="130" text-anchor="middle" alignment-baseline="central" font-size="8">17</text>
<rect x="40" y="120" width="20" height="20" fill="rgb(175,175,255)" stroke="black"/>
<text x="50" y="130" text-anchor="middle" alignment-baseline="central" font-size="8">16</text>
<rect x="60" y="120" width="20" height="20" fill="rgb(255,175,175)" stroke="black"/>
<text x="70" y="130" text-anchor="middle" alignment-baseline="central" font-size="8">19</text>
<rect x="80" y="120" width="20" height="20" fill="rgb(255,255,175)" stroke="black"/>
<text x="90" y="130" text-anchor="middle" alignment-baseline="central" font-size="8">18</text>
<rect x="20" y="140" width="20" height="20" fill="rgb(255,255,210)" stroke="black"/>
<text x="30" y="150" text-anchor="middle" alignment-baseline="central" font-size="8">30</text>
<rect x="40" y="140" width="20" height="20" fill="rgb(255,210,210)" stroke="black"/>
<text x="50" y="150" text-anchor="middle" alignment-baseline="central" font-size="8">31</text>
<rect x="60" y="140" width="20" height="20" fill="rgb(210,210,255)" stroke="black"/>
<text x="70" y="150" text-anchor="middle" alignment-baseline="central" font-size="8">28</text>
<rect x="80" y="140" width="20" height="20" fill="rgb(210,255,210)" stroke="black"/>
<text x="90" y="150" text-anchor="middle" alignment-baseline="central" font-size="8">29</text>
<rect x="20" y="160" width="20" height="20" fill="rgb(255,175,175)" stroke="black"/>
<text x="30" y="170" text-anchor="middle" alignment-baseline="central" font-size="8">27</text>
<rect x="40" y="160" width="20" height="20" fill="rgb(255,255,175)" stroke="black"/>
<text x="50" y="170" text-anchor="middle" alignment-baseline="central" font-size="8">26</text>
<rect x="60" y="160" width="20" height="20" fill="rgb(175,255,175)" stroke="black"/>
<text x="70" y="170" text-anchor="middle" alignment-baseline="central" font-size="8">25</text>
<rect x="80" y="160" width="20" height="20" fill="rgb(175,175,255)" stroke="black"/>
<text x="90" y="170" text-anchor="middle" alignment-baseline="central" font-size="8">24</text>
<text x="10.0" y="30.0" text-anchor="middle" alignment-baseline="central" font-size="12">0</text>
<text x="10.0" y="50.0" text-anchor="middle" alignment-baseline="central" font-size="12">1</text>
<text x="10.0" y="70.0" text-anchor="middle" alignment-baseline="central" font-size="12">2</text>
<text x="10.0" y="90.0" text-anchor="middle" alignment-baseline="central" font-size="12">3</text>
<text x="10.0" y="110.0" text-anchor="middle" alignment-baseline="central" font-size="12">4</text>
<text x="10.0" y="130.0" text-anchor="middle" alignment-baseline="central" font-size="12">5</text>
<text x="10.0" y="150.0" text-anchor="middle" alignment-baseline="central" font-size="12">6</text>
<text x="10.0" y="170.0" text-anchor="middle" alignment-baseline="central" font-size="12">7</text>
<text x="30.0" y="10.0" text-anchor="middle" alignment-baseline="central" font-size="12">0</text>
<text x="50.0" y="10.0" text-anchor="middle" alignment-baseline="central" font-size="12">1</text>
<text x="70.0" y="10.0" text-anchor="middle" alignment-baseline="central" font-size="12">2</text>
<text x="90.0" y="10.0" text-anchor="middle" alignment-baseline="central" font-size="12">3</text>
</svg>
